<mxfile host="app.diagrams.net" agent="Mozilla/5.0 (Macintosh; Intel Mac OS X 10_15_7) AppleWebKit/537.36 (KHTML, like Gecko) Chrome/138.0.0.0 Safari/537.36" version="28.0.6">
  <diagram name="Page-1" id="g3E_wJN-rIJ8TY2RXcz3">
    <mxGraphModel dx="1665" dy="834" grid="1" gridSize="10" guides="1" tooltips="1" connect="1" arrows="1" fold="1" page="1" pageScale="1" pageWidth="850" pageHeight="1100" math="0" shadow="0">
      <root>
        <mxCell id="0" />
        <mxCell id="1" parent="0" />
        <mxCell id="d5ftj_FYXe6vEuWilVj4-1" value="Pipeline Batch Bovespa" style="text;html=1;align=center;verticalAlign=middle;whiteSpace=wrap;rounded=0;fontSize=21;fontStyle=5" parent="1" vertex="1">
          <mxGeometry x="360" y="10" width="300" height="30" as="geometry" />
        </mxCell>
        <mxCell id="d5ftj_FYXe6vEuWilVj4-2" value="SITE/API" style="shape=image;verticalLabelPosition=bottom;labelBackgroundColor=default;verticalAlign=top;aspect=fixed;imageAspect=0;image=data:image/png,iVBORw0KGgoAAAANSUhEUgAAA4QAAAOECAIAAAB2LGhsAAAAAXNSR0IArs4c6QAAAERlWElmTU0AKgAAAAgAAYdpAAQAAAABAAAAGgAAAAAAA6ABAAMAAAABAAEAAKACAAQAAAABAAADhKADAAQAAAABAAADhAAAAACiFCq0AABAAElEQVR4Aey9CaAeZ13vP+v7vmfL0iRNuhfa0tKqRQREuHABAZXVpUhlEa4gIBdFBAUXBFxA5SIoeC9QFRRU/ldF3EX0j7K1oBaF7tC9dEvTNDk5y/vOdr/f3zMzZ86WnDQnmTnJd3Iy7yzPPMtnnnnmO79n84ui8LSIgAiIgAiIgAiIgAiIQBsEgjYCVZgiIAIiIAIiIAIiIAIiQAISo8oHIiACIiACIiACIiACrRGQGG0NvQIWAREQAREQAREQARGQGFUeEAEREAEREAEREAERaI2AxGhr6BWwCIiACIiACIiACIiAxKjygAiIgAiIgAiIgAiIQGsEJEZbQ6+ARUAEREAEREAEREAEJEaVB0RABERABERABERABFojIDHaGnoFLAIiIAIiIAIiIAIiIDGqPCACIiACIiACIiACItAaAYnR1tArYBEQAREQAREQAREQAYlR5QEREAEREAEREAEREIHWCEiMtoZeAYuACIiACIiACIiACEiMKg+IgAiIgAiIgAiIgAi0RkBitDX0ClgEREAEREAEREAEREBiVHlABERABERABERABESgNQISo62hV8AiIAIiIAIiIAIiIAISo8oDIiACIiACIiACIiACrRGQGG0NvQIWAREQAREQAREQARGQGFUeEAEREAEREAEREAERaI2AxGhr6BWwCIiACIiACIiACIiAxKjygAiIgAiIgAiIgAiIQGsEJEZbQ6+ARUAEREAEREAEREAEJEaVB0RABERABERABERABFojIDHaGnoFLAIiIAIiIAIiIAIiIDGqPCACIiACIiACIiACItAaAYnR1tArYBEQAREQAREQAREQAYlR5QEREAEREAEREAEREIHWCEiMtoZeAYuACIiACIiACIiACEiMKg+IgAiIgAiIgAiIgAi0RkBitDX0ClgEREAEREAEREAEREBiVHlABERABERABERABESgNQISo62hV8AiIAIiIAIiIAIiIAISo8oDIiACIiACIiACIiACrRGQGG0NvQIWAREQAREQAREQARGQGFUeEAEREAEREAEREAERaI2AxGhr6BWwCIiACIiACIiACIiAxKjygAiIgAiIgAiIgAiIQGsEJEZbQ6+ARUAEREAEREAEREAEJEaVB0RABERABERABERABFojIDHaGnoFLAIiIAIiIAIiIAIiIDGqPCACIiACIiACIiACItAaAYnR1tArYBEQAREQAREQAREQAYlR5QEREAEREAEREAEREIHWCEiMtoZeAYuACIiACIiACIiACEiMKg+IgAiIgAiIgAiIgAi0RkBitDX0ClgEREAEREAEREAEREBiVHlABERABERABERABESgNQISo62hV8AiIAIiIAIiIAIiIAISo8oDIiACIiACIiACIiACrRGQGG0NvQIWAREQAREQAREQARGQGFUeEAEREAEREAEREAERaI2AxGhr6BWwCIiACIiACIiACIiAxKjygAiIgAiIgAiIgAiIQGsEJEZbQ6+ARUAEREAEREAEREAEJEaVB0RABERABERABERABFojIDHaGnoFLAIiIAIiIAIiIAIiIDGqPCACIiACIiACIiACItAaAYnR1tArYBEQAREQAREQAREQAYlR5QEREAEREAEREAEREIHWCEiMtoZeAYuACIiACIiACIiACEiMKg+IgAiIgAiIgAiIgAi0RkBitDX0ClgEREAEREAEREAEREBiVHlABERABERABERABESgNQISo62hV8AiIAIiIAIiIAIiIAISo8oDIiACIiACIiACIiACrRGQGG0NvQIWAREQAREQAREQARGQGFUeEAEREAEREAEREAERaI2AxGhr6BWwCIiACIiACIiACIiAxKjygAiIgAiIgAiIgAiIQGsEJEZbQ6+ARUAEREAEREAEREAEJEaVB0RABERABERABERABFojIDHaGnoFLAIiIAIiIAIiIAIiIDGqPCACIiACIiACIiACItAaAYnR1tArYBEQAREQAREQAREQAYlR5QEREAEREAEREAEREIHWCEiMtoZeAYuACIiACIiACIiACEiMKg+IgAiIgAiIgAiIgAi0RkBitDX0ClgEREAEREAEREAEREBiVHlABERABERABERABESgNQISo62hV8AiIAIiIAIiIAIiIAISo8oDIiACIiACIiACIiACrRGQGG0NvQIWAREQAREQAREQARGQGFUeEAEREAEREAEREAERaI2AxGhr6BWwCIiACIiACIiACIiAxKjygAiIgAiIgAiIgAiIQGsEJEZbQ6+ARUAEREAEREAEREAEJEaVB0RABERABERABERABFojIDHaGnoFLAIiIAIiIAIiIAIiIDGqPCACIiACIiACIiACItAaAYnR1tArYBEQAREQAREQAREQAYlR5QEREAEREAEREAEREIHWCEiMtoZeAYuACIiACIiACIiACEiMKg+IgAiIgAiIgAiIgAi0RkBitDX0ClgEREAEREAEREAEREBiVHlABERABERABERABESgNQISo62hV8AiIAIiIAIiIAIiIAISo8oDIiACIiACIiACIiACrRGQGG0NvQIWAREQAREQAREQARGQGFUeEAEREAEREAEREAERaI2AxGhr6BWwCIiACIiACIiACIiAxKjygAiIgAiIgAiIgAiIQGsEJEZbQ6+ARUAEREAEREAEREAEJEaVB0RABERABERABERABFojIDHaGnoFLAIiIAIiIAIiIAIiIDGqPCACIiACIiACIiACItAaAYnR1tArYBEQAREQAREQAREQAYlR5QEREAEREAEREAEREIHWCEiMtoZeAYuACIiACIiACIiACEiMKg+IgAiIgAiIgAiIgAi0RkBitDX0ClgEREAEREAEREAEREBiVHlABERABERABERABESgNQISo62hV8AiIAIiIAIiIAIiIAISo8oDIiACIiACIiACIiACrRGQGG0NvQIWAREQAREQAREQARGQGFUeEAEREAEREAEREAERaI2AxGhr6BWwCIiACIiACIiACIiAxKjygAiIgAiIgAiIgAiIQGsEJEZbQ6+ARUAEREAEREAEREAEJEaVB0RABERABERABERABFojIDHaGnoFLAIiIAIiIAIiIAIiIDGqPCACIiACIiACIiACItAaAYnR1tArYBEQAREQAREQAREQAYlR5QEREAEREAEREAEREIHWCEiMtoZeAYuACIiACIiACIiACEiMKg+IgAiIgAiIgAiIgAi0RkBitDX0ClgEREAEREAEREAEREBiVHlABERABERABERABESgNQISo62hV8AiIAIiIAIiIAIiIAISo8oDIiACIiACIiACIiACrRGQGG0NvQIWAREQAREQAREQARGQGFUeEAEREAEREAEREAERaI2AxGhr6BWwCIiACIiACIiACIiAxKjygAiIgAiIgAiIgAiIQGsEJEZbQ6+ARUAEREAEREAEREAEJEaVB0RABERABERABERABFojIDHaGnoFLAIiIAIiIAIiIAIiIDGqPCACIiACIiACIiACItAaAYnR1tArYBEQAREQAREQAREQAYlR5QEREAEREAEREAEREIHWCEiMtoZeAYuACIiACIiACIiACEiMKg+IgAiIgAiIgAiIgAi0RkBitDX0ClgEREAEREAEREAEREBiVHlABERABERABERABESgNQISo62hV8AiIAIiIAIiIAIiIAISo8oDIiACIiACIiACIiACrRGQGG0NvQIWAREQAREQAREQARGQGFUeEAEREAEREAEREAERaI2AxGhr6BWwCIiACIiACIiACIiAxKjygAiIgAiIgAiIgAiIQGsEJEZbQ6+ARUAEREAEREAEREAEJEaVB0RABERABERABERABFojIDHaGnoFLAIiIAIiIAIiIAIiIDGqPCACIiACIiACIiACItAaAYnR1tArYBEQAREQAREQAREQAYlR5QEREAEREAEREAEREIHWCEiMtoZeAYuACIiACIiACIiACEiMKg+IgAiIgAiIgAiIgAi0RkBitDX0ClgEREAEREAEREAEREBiVHlABERABERABERABESgNQISo62hV8AiIAIiIAIiIAIiIAISo8oDIiACIiACIiACIiACrRGQGG0NvQIWAREQAREQAREQARGQGFUeEAEREAEREAEREAERaI2AxGhr6BWwCIiACIiACIiACIiAxKjygAiIgAiIgAiIgAiIQGsEJEZbQ6+ARUAEREAEREAEREAEJEaVB0RABERABERABERABFojIDHaGnoFLAIiIAIiIAIiIAIiIDGqPCACIiACIiACIiACItAaAYnR1tArYBEQAREQAREQAREQAYlR5QEREAEREAEREAEREIHWCEiMtoZeAYuACIiACIiACIiACEiMKg+IgAiIgAiIgAiIgAi0RkBitDX0ClgEREAEREAEREAEREBiVHlABERABERABERABESgNQISo62hV8AiIAIiIAIiIAIiIAISo8oDIiACIiACIiACIiACrRGQGG0NvQIWAREQAREQAREQARGQGFUeEAEREAEREAEREAERaI2AxGhr6BWwCIiACIiACIiACIiAxKjygAiIgAiIgAiIgAiIQGsEJEZbQ6+ARUAEREAEREAEREAEJEaVB0RABERABERABERABFojIDHaGnoFLAIiIAIiIAIiUBMobKl3tXHiEPBx60+c1CqlIiACIiACIiAC60IA+sH3/bV7tZrecJ40zx6Wt2uPgFx2lkDU2ZgpYiIgAiIgAiIgAq0TWE0mrq9khG8uoPX1tnV6isBaCMgyuhZKciMCIiACIiACJxaBWoOuXR1KTZ5YWWT9Uisxun4s5ZMIiIAIiIAIHBcEaiW6PDUratODuK99WPHC+qw2TmQCqqY/ke++0i4CIiACIiACayWwmppcixJFGKs5W83btUZL7jY+AYnRjX8PlQIREAEREAEROGwCuV0R1L2YV+mL5JzRLTo8+35Yh2PisvQEBw+pKVcTo87D5tlDelXHQRvHBwGJ0ePjPioVIiACIiACIrBGAlSQhVeqzNwrB3kMTZYWuecHVJZUhz4O4YcncIxXFRn1KC7lHpyaJ+7CSqrWshKe5HkaBM5/eopruBQZVrZj0tYCgVs7h7PQx9ZP33lbXVSe5Q9dVoc1QmUDzIbdlBjdsLdOERcBERABERCBB0sAYs7EHqUoxB01nU/h6UEKVqoxL3KIUp+alJKUS+6HYQiXeZYFEbUqr6vcYxtO6t0sy8IwsMvgMC/8wDRu5i7z/Yi+umtpn63kZX2989zCQCQay0KUGwe1uYEJqAPTBr55iroIiIAIiIAIrEagVIqLTjtDZmVNpMJz9kiunXunS02TUkZCjMKkmSQJJGIU4ULIxgySFOvAo13Th+ETTihjuWfrcrPIIV0pW9M0jeIYZlQsUdgzvernaQb/w7iKDC6Ct9Cm5kcVNRhfna90ZtbcoBFGHZpLRcOr+ow2NgIBidGNcJcURxEQAREQARE4TALL5CGud6INsq6h21g/jj9aKe00a8kDD5rPN8so5Ghp+0SdOyQp96kL8Y+Vq84SmudFALsnPIJ6hIWVx7Fkro7e1rmLD2rgccJHUwD6kPGXiylaXG+OnDHWQ4sBRMxpT3NnJ5eLUYs1k6DKXgdz46115zbePVOMRUAEREAEROCQBFayIFYXlW09TQk6YUqLZOAq0KEIXTtPSFJsu4p0KEhIRig+SkTPC4MotwBwlA7Cqsln6PQkRarnR3ALnQoL6nCEKvswCoM093qhD2Mp7KzQpaUx1eLA5qoMpNSfDAbH4TEDgpZtCGg4c0sVB+zZZnVcvxuKgCyjG+p2KbIiIAIiIAIisEYCTrEt0mgmJGlEbMjQ2je0BLVLIC5LVQo1aA1Jk4yKM7CeS3CSQR8G3gPT3uxccmD/dIJ9akXaTAsfde1QmXmR5Tt27giDYDDuD3q8HJIUghZ/qO2HJazIYTc1tcswEJ9amTJQqBNeQ32KM7USNbOoS1edOhpimS5EsE6KNjYWAYnRjXW/FFsREAEREAERWBsBJ9fgdkGP0lIJJYozy6SbOwXXkHRBrUphyMwDSs3M9+65r7jm2pvu3r33wMxofpTfec/uB/Yf2HPv7rlRgj5NfgTraJEWaQAxin9evuu0U8b7g80nbd40Obll08T2LWOn7dz2sHNOnhinMEWk0H8fzly9u4tjbf7kbiU3XVNRl+byeHWKrqCh7Rz1rHOk9UYjIDG60e6Y4isCIiACIiACayHQUGyVcyfbIPOWGBGdEqVGLbwQ/d6xhUNZ4c0MvS9/9fbPfOGK6752y979czffdteeB+ZgEE0zL+qNx/0xVN+j/t1MnriIQbojMGfOz8/CG9TIoxtTL/C2TvZOOXnrru2bT95x0oXnP+T7nvM9p2zzYtOPWEGeQpi6eC4RyvTUllKJYtsdctrT9zhSlIlod8D2tNpIBCRGN9LdUlxFQAREQAREYI0E0H/IXHJApfKSnC05IRatBxEPZ9Cbfmq9g2D9RHf3sAjC+ZG3Z6939fW7//BjH/+zD3/Uiwfeth3xYDwajEGqFkHsBzEq1tFmFL5ZDfviGJXNR6Es6aWdg9ucle2omx8lRZpk+/d7e/fsPOf0l73k+c///qft2hGO9b2xCL6jqz5spdahBdGEOg6CUTIfxr0AI0PBRophUSGkKUat6QBTRkMvliqRtqPVhiIgMbqhbpciKwIiIAIiIAJrI2AD1DuFxsE+qT0pOP0cAhQCNTAlGkIGoF1mllmd+Xzi3XjjA5f/29W/88E/uf4/b4h3nd2f2oJh6/04TnEZ23HSghn6PcjaDLKWWnOJkdVFrtSgJkbdNtyFGHk08tFkNAwzdMXPRnP7i9H+0Teu/55LvueNP/2q7Zv7Dz19E2yoeerFkKO8DsEkPncCDC8VR3ElRk3m0oDrQl8xDmvDJFcdICAx2oGboCiIgAiIgAiIwHoTMHshrZHokU4tyn32mWd3+AAWyBHMlb7fS9ldyEty75qvzXzm8q/82q+9Z+8Ds5M7z8rDsRSyM+6l7LAEIcre8xEHDvWDwrQpBq1fiHMtB016VgZRO+9c0TbqFgYPXZvlEXxMR1Cl6XD/6NavPesFz33uM5/87Y96+Bmn9XueN47rUvcfI0BFHv5gDoVqLjvsYy4o57MNC2WJW4iOtjYUAYnRDXW7FFkREAEREAERWAMBJ9PMtojBQa1DEZplUoZC+mGwJdg1M0g8dDuCy1vvTD7xN//y1//0pX//zxtSL9y09eT51At6Y5CdcJZmI6hZmEehSNFPHpoyxJhNMFlCBJaic3FlfX2wbAPq4kLpGARRmiTQvmF/LMNGlvfjHkbC74VeNnMgG037xfR3Pe3xT3nCI3/oBx63Bc7gFmurtKeRNCtCDrzvRLDE6BrywQZxIjG6QW6UoikCIiACIiACayZQi1G0C2XbTlfDzhGU2C3JDnkjz0s877Lf/+dPfuqKy6+8zpvYlsXjYRgnHBM0TrIUzTch/sykyV5KnEAJ1eSQlBxAFAPWN8ToQSrrTZvSiImOUTCsBmiZChNtiMagkJewlRbJECOQoiEqrKRhMRrNTyfz0y96/nNfeemzv+2iCcQ4RIcmXF6gLWmAxgKchpRjSCF8tjygvrZ0QeNq2aAEJEY36I1TtEVABERABETgYAQo/6jUINJQ2806eTeYEq2ekXcg8+7a7f3469/6L5/+Yn/Lmb2JrXMeKt9zNA/FAtGZJailpwpEQ0+rXodxNHBi1IWa2QBQ8BQB2dii7IrPOv+la9bvIy64HEbZAP2fIEBpU8V1vDIOwmR+Noxj9nDK0hhjkwbezP13e3ff+M7fevsPXvL4kybZoHVgCbDA2GgAHrgD5jlFtpaNS0BidOPeO8VcBERABERABFYlYL2VXJU2jKGsrDd52su8YN/Qu+I/7vn13/r9y//jhsHm7UU8Nkoy6MixsbHZudkghj700iwLwjifn/MG41B/tKZSmULfQgVSWcKuadKTVfcUoytIUspQqkaTpxCQMKmytahtMN7sEI+L6WcAw2sKiyz7/s/Pzfd6cZjOz913x6WXPv01L3/et563BUJ4ABso5DKDhhiFuDYhakZZWl7d3qo8dKK7BCRGu3tvFDMREAEREAERWDMBSDq3LJgJodnMlsn+8pCS+Em9wf6R938/8aWf/6X3Jf6UP9ich4NhloZxFBY5eqxH/Ygd56FEe72cUy1B4rFxKE2SHFSJ9fP8g3zk2KBLQ6yOVL/sPYVLOCcTDlF6UhJDN6LVahYFMWPocSomTnxPQYsAqEdpHc2gYudH++48dVvvjz7464+56GT0asK4pWg4gKuwaXHDjxs1nwe0bFAC1R3doNFXtEVABERABETgBCFgAmxRWs0WaMoMPdXL0+w4zwGYuBQ5Kt5pd4RgSz1MjhSNvOhX3vNXv/m+jw4278z8OOyNQ/JhCHvUkjuF1wwEErRaSoHrsyu+LSYxsUUnqMDnMXeqdGB181CXOGNalk4pYemQCwcNdQuii0jCFssNaOYoTFMMJwUDbBIFQTo7H46mzztj4jfe8ronP/YM6NGYijQpBavzAl4hHhS+pZ/62VgEyuy1sSKt2IqACIiACIiACJStLqHLaL/EHqvAueEMh9Y9KEDHI5gcg14RDKBE3/d7f/fu9/2hP74j703kvcH8/BxUIJQoGobiykoflmihF6s/GCn5t8Dc9Rlyl0BMmuGz1JoLu6Vz2lWXyUR3EGsYTv2QshUdnDCGKcQzxDSSEPd66XB+MLmlv2nnDbfu+5lffPdnv3Q3elzNW6U/TacuuYg0BnxaEvWFiGprAxCQZXQD3CRFUQREQAREQASot0rNBxhmS+KRGgxGW6JRlK0pTY9abXaBwZEwqdIo9+ZS7z2/8/F3vPWd8ZkXhZPb8rCfZHkvilE1D984iqjVktfeHXLD1bzDmYtCbelk6DhUqdUyqvSuoWW5i6W0iEFZwjhaSmq0KA2iPB+h31VAUYrxAPIYw4smczM3X/tnf/mhpz/5tNjLoxx20xhO6IfFgBrVRDn8dXK83rWwtOouAYnR7t4bxUwEREAEREAEGgQg5mo9BwkG02Clw0oZWqoxSjEOJIqu8b25guM3zabe7/3Bp9729v8z2HxKMLFp3+zIi/sYXwmDJaGFJsyiYRBnRdoI69CbBQZjYmU9XFqdvF1RxmhBiR7cn1KMmoZ2SpresZlBkWDMJ9bbo2kqROfQD9K8l80fuOW//vaf/uAJjzmtj/p6pNqUN8So9dZaEKMHD1Vnu0ZAYrRrd0TxEQEREAEREIEVCUBxQYyaXGPnoQUxCtcQoKZI3YXo+g6XPuQoxvA84Hmf+Jurf+INv+TH28PxLbNpEo2PwyzKDkkJOg/BLGoatzIrrhj2soOwo1oc2CUel7s/E8dUoqXKrNQz/YeFdrknPE5rbqkjYR/FgKYmjj1M8JTmCVJCw2fe64dRNJrL5/fOPXDblVf87XmnewPMCGURpyKtutbXXi0LSwe6S2B5zuhuXBUzERABERABEThhCVCELlmsetqOuak2qVRpFeVCdZhgLCbP+/JVe9/4lneGEzvRd35UxF48SCBr4QD9hOIoR4NLU4RL/D7kbtWclF2nTGg6DQpz6ZKORGgEWv2t4imiu+gMtKkXpglGuUcXJsy/xKHyh8l8CqE6vtnrbX/7b/7+vQ9w0H42dGXk2VXLUs19t7HUz0UBaKdbBCRGu3U/FBsREAEREAERWI2A2QFxckGE0qUTclCEJst4hJMcZfPDWfRM3zPrvfSVr8NgoaOgP+SUSxgAHxIVbTB7GN+e3dJj2Dg58BMvPIwlxxSeoYea9ARWWP5Zbyc2FYVPGPeJix3nOoPxcyW/qZhx3BlHnXzk2tlKQ7Qc5TBPaErgpQnmgkJDgmGWj5+08xP/8K8f//vPz0FOIxIcbIruYFVtClBsN3dXCl3HukJAYrQrd0LxEAEREAEREIHVCJiUc6ZHp0RXeH3DjUk+s5IGUW8wBcvor/7G7999z3QwmCqiHiUirIgwXMYx9GiBrksYPz5PYMp8ULot9XxYJ9HStNSUC5Ff6Ghlx1hBv1hALzhl0BCc7gA2OMwT+jNB0gZRhoH10xRjkHJKeijOIIoGg/miiMYn3/KO3/rMF2+GUReW0+EwgQgOg7DpDzypdxuhabOLBFbIzV2MpuIkAiIgAiIgAiLAtpjuz1hQfpZQaO90WtRG8Byl/jAPP/2F6z/5z//W37xzmOZRL6YS5XxImZcO2fXHjzgKE/2AXfRgegCqzqnVWrPCmJqiSSpGA4VvvBqKMoeuZTtSKlEOKcqpkjhuUxxEE0WOJqA0wdYCsaFBYdFkUwG31GFl6OFvPazoFTxDh6UcQ5Dm8ViYx+HsrP/Jf/7SPXsLyOHBWB/BM6zK/lpvVL7qt9MEDpb5Oh1xRU4EREAEREAETkQCDTFaJZ+TZLKanA0rOUgTOv+E8Z593t9+6vLb77w/7E2F8dhwdgZNLmED5aCfVqWOdWWwXMHPym/+1tqulpLcoBLNvQgjg6KjFG2uNLgmIw5u76PfUVqkoxAmzSLI5rDB6ZNqoblkm2EsWyiuzWDabJBK2Zv7o2Extf2MD7z/o//+lRsgRp0Md46XeaMDG4CAxOgGuEmKogiIgAiIgAgchABtkKhvL9Ie5vDkOEc0Tn7+S1/7i7/53NjmXRjhKYGlNOpj8ndIQ0zN6bSnSVJsuo75h9Cjrta7FqOoWWdnfPxhwdBLDDUvkhSzisZ5EWJkUI7PlGej2bBIwyjMRmiwakvdmWlJVX5Z179Q41+1Q2XEcJSWV7skQ7ercDLPx/tbTvvt//0H+2c9eI2GADT74r8LpNpwu1p3nIBlo47HUdETAREQAREQgRObQCmyVoWA9pHQhwUaWUKGpZn3jbu9j338n+/bX3jRIEd7ymgAgyIEJT1gHyN0UWcdO3Sen0crDbq0KCQn8qh3bRAoGkphh4Q1tpSh7E2PqUXZCSrNIHlDP8iSFOvY5nZCxX1o3aRqseh8hz9LjiwKlTuIIReGVu4EUYARUvucwXSw+XOf/PxV1+1GHT8cIHDnWx1bd63W3SegcUa7f48UQxEQAREQARGg2MJSqlK3g33IQmxDBvopxk+C9oRoQ1X556/c813f/eKJcy9GBXmG6UBRcQ/1yeHts8Bnjbm17MR1MDrCVMqZOBfN9kkXixaORWrmRihaiEgsNoSTD8UJSyy6DuVpQuspJSqigoH2MbVnPErRRwozJUX5cOixfxEXXouIQ4naIbe7KDDbsZRSjJrQZJNTHKE1l5FlswT05c9n7j/r5PjKT78vzr0YtlpI0krg1hvLfdaRrhFA7tQiAiIgAiIgAiKwoQi4Om72UqcmhEyETRQaLSuyBL18Eu/97/9w79Sz07BnrUMh0gJMUo+p3qNBnHGiJVzDdp5Wve1sjlib3XQ1DBxhqZShEJS0xI7SQT8ezU9jjE80G01H8x7q4tHtHfZXP+hPTGIkpogDhfopTLXs6l5qUMS0stEutEZdLdjSHsrKfQwmyhFMwyBIUVUfIVFxPL7la1/8wt5pb/sEPYDPbm2it9Ttq/usM10hIDHalTuheIiACIiACIjAQQiU2opya+mCPuYchtPzhmnWj8Prb5r5iz/7y8kLvn0Wg9uHMUyLqF6HXIzHBmk6YkU+Fw4Iim7qNJH6KQ/hv6lbO7toBW3H86ZH0zSl1MvSTV6299ZbvXT2EY/6poede9Y55545OTWYm5vBpEnfuGf3v372S7d/9Vpv++mDqe09P4J11sll549Tjc46u1qgjRjQ7ssIBxHUZoZYx0GOeevRLGEUeNt3/sMnv/DC73ucgSnr/anMy2Q2vNFmVwlIjHb1zhydeOFZZWnDNes+bDnop3DlSL8NAoeyHzScalMEOk2gljVUGmWZYOUD2/7xmJajQGAR9cPzf1nhQ/soh0+KOCA86tGLQdwbFt4ffuwTkzvOHEGQ9TBUJw2GsEtiJvpkOMveSrjXfBNY4U8fyltfxwXaFW1AYWeFKRNriFAXZ1Txx1EUeimDnD+w92tX/cwvvPG7v+fJ27aNTU54YwOrxsfpzNs3U7zuFS+6b9/w7/7hsx+87CPD1B/bvC2LeiMqSIpaDiYK7xuZrLldtmEtc2EjegiX0UVXfdb1o4XsYNDPp6b+/SvXvviSxyH9TJyWDUhAbUY34E07/CjXZR+eY9bNlO3W6REH57Dv49LXRtFw+OGcCFcAoaPoEmulec23pNd0cCIwURo3JgHkW5d1qTZcxuYBy75sR2iZu04aDsM9s7gMTjWUJRt1SUBKBGkLNF+jXDXC5SkY+hpnSucH+alvV3Xj6A+HOsJISrxbmIoIFs5gJvO2jT9h24WPnY7jUQiTE0e0p7e0FMKJE5g8gMXJTNdLHWqVLvPUtS9lIqDuaDe17MBeQp6fJGNxPnvz1TvO3PY3H/nAQ04dTEyi4ScmFvV6aNWJHvUYoD5gu1XYZKEOD8x7t98xvOyDH/7gZR+dOPsR+cRJcxyLNIRhFdX2yGXQyhS+8BuZDgFSIqMRKsZKdYZNCGoMrQ/PmEK641ABrI6HQmZWxBAC8/d/56PO/b13//TOSa/PNHGh2LUsLBOpA9Lx9eLSpuORVfSOjIAr/2zdvO8sNOixK+eOLIgT72oHdXm6Vzu+3KWOiEB3CJgksOg0ywh2FjFh4iKKt3t3YtydmDShVEr0IOUATrm/taag6X99jR1EfTV1JsQZfMSUS5/7wo1eND7MI3RagtYsBxbFl4S1uAwhHa0ZqVs7ryAHaYzkxJo4h+hDQHPw+jIg10UJujYbRfn83J7bf+5tr//ip//ggvMGm6e8kHLYG4Rp5KU9L+sHuZ/N9b184Hljvrd93Pvmc/q/879e+aHf+818fndy4L4+51LKehGm+uTsnZadDBQFtf1Rj1ZBMwZIAaOHPxOjSACzJ6YAxYj4OYy1/bEbbrn1yqtuwTUNP6u4O01b7umnowRUTd/RG7Oe0UJxZc81H99q8e3Lt5ShToza443zKxZ51XUn9C8pOiMH11Z6kge+5ptoa0RwsOLx2oE2RKBVAs3XfRkR995Gvm1mXeRkNzsOLoAxiqfMtrbC9a2mp/3ATYO6ksEBpIpitOpSFZKxAffwCVaeL72SxzGiUhH0cOaKL/9XdOopaEOKgwFMm5CXiIJ9QlCyUrUyUksXVM07WyP648MxreCoO+WtR4/7XhzNH5ju+Vkv3f/mN77q0u994s4J89asmewe5UXoxoRLfPSTYiYJKDW5y+k6Me3oDz7v0fvy1//8r713btaPB5vQDQk6EnX+qPGnpRPB8L8jtjR5i6PKuZ6QHhg+M4wfgCD8cP++B/bs2et5Z8PlEss9Er7kyGLftNcJAu6B6URUFImjQYDlT+O5ZumCYFDO2LIQYlVJt3BEWysSAL7y7eKeHRSF7q923TyCbS0i0GECrkRgoUD1YBG1jToXo3YUcoTSxP46nJTWo1Yp0YbQc2UFYlbTw0lKQxj5bOtwIs27tGgpixcch6rDGVSOQ/jtH3r/dc0N/amtecih7NHDB2FhjTpxWERxd7Ht7vHStRk4XX25l5tb3H34gKUI0vnheBSn0/e9+Hnf88Lve+KZ27zYxsov0H4UWtXeLAyB2heXRBzsKfTRvBT97HEWE5FieeHzH/2Tr36RN9of5kmacByoujLdUlYpUSLCf2sWYCeWrExfsvkBL496WZaPRumBA7Nw1ny14SyOSIkuodfNXVlGu3lf1jFWLPKqOiOUCdhz5aAVHigQyxLOPtipqw6vDdM6RnTDeLX0nQDC7q1geMtkuIPNIxsmfYroiUMAjfrwyLv0Wr52RUQTAA7jYJ3DUXrUZ2VwqlE0NxwxI1mWFXVTyMoZGUK3YSnhVycO+9ca/aPhJWQcinT2pr/jjpk77tyfYkx41NH76EpESedsoVhj4d2k5dLd00VrKFFriolqf/ResjvtQ0oGcRAXaRrlM/ndt/3PH7lk5xZaNUOG5qMrE8KmU2pQa3LKmOAPI5rCeOmjZ1WK5gGsjMNQ9d4znvLoP//4P9x013Q4OAkeRz5GCoU/jQUvJfrA0adsWQkRwoJ5FBPXhximCg1Og+FwNDMzA/eunai7UjLUcdgQ65Vu84aIuCK5VgL4tnWPOp5vV+4sfvIX+aP8sAjHqjssepvL0v3mOW2LwAYhUD3+ppJcnmZVLWQGNROESuWgSk/TClUdO5F/ScnSX4Iyhix1KQFNsPEsjvIPJgJXOW1XHMkKvrmiHb+Fd931N99x+z3D4RAqEOoTxtIYMyzZGtZOt422n9hesrYx5aFSOT4+9GWIenAPU3qyhen8zIF+WOy//643v/3NZ57qGoliSCiM1JTCMkrlyX+IBGQuN3EGCUKDTia1KKA4ixzm2BxD7Z93+taXvfAHR3t35zmmlM8T1N/Xi5EpbaLwrWwKZd7WbqoNGD0hdFlfj/5SYQxhOj83StDTyRa4khKtUG2MX1lGN8Z9Wo9Yolyo3iV8zq2Y4AeslRbcsEIAPyxGtKxAwEwFaN4EjI4Vil0rPkGT9VQ8XC+OYuNAfUYbItAVAs6uRm1k6qiKFtr6VcP6MFOjISEG+uHLgkpjefmw/Ejl0Qn1C12EBpINyc5KYigw6viqICgLDHJZEeUhgJXeNAuXervwEg6/6e3ZvXt+9sDk1ElFMUzSobtliABUJqMBuWohM7YQio01wzbf/DwxJZdzCFKoV84B7xXJfm9u9wsv/U7U/ffRXyqFfz10H0JP/hyGT5hAcS3jh/RieHuWhxxpyir5MSB+GMRZjr5N3mTkXXDOGZObByNvlOZoMQpCC8xMoVN9ms0eHqJDVfXago/VwujR7oq4eWFvkKezQRDt2XP/gelkfAvswYwHPgCWbFRX67eLBCRGu3hX1i9OLBdssee5fKqdZbQ8heKITzsEFgsqt7hCRevlBACJBaXH5lK2EN2KxSVggvkKxWh5oX5EoIsEkGOtZEC+RvSgVEw94df2nBJd/lzoCAlUaszdV1dQoHu7QweRiimLTK7BLRZidlxtd62rZpECL6pdBsJPBdgZd9975+wdN8anx8kcBltCvTkKKJOc7B1v2xwIyrZ5ufOk8ipH/TwMpuyen6M3Ego3yMp0iPFKvQfu/rm3vv6kSU65iW5DEVykaREjTZyKyanYMhFwjAshZSlJaRSGYwTMS5KiF/mbJwfnnnPGVbfvh1U16o2niRWhLo7sxp/i0wcJompmqkjKiln8lOmFzkRTUcw+GnKJk/l0vD82QrtRjsZfFc68jEutSt2u1t0kIDHazfuyfrFiCYnyAu1r7EXCRxzFYmJPOUMpi0NXPnIXz/vi7+Xmt/OJs83CeYEDu5SSW55ZCypMuAdLAKwD1PH4PHeFJtC5lzK5YqneE25PaxHoIgHTAY2I2ZufBQHMXahdzYuU0/ZEMZUOzG60OTnp0Fg3npSl1rYTp8SgfOJiP6CIb3523GFBwuKXRrqyeHAOca68wl23tnVVUNM1t817bJryQ4el+enpiy448+3v+sVR0I/ifsZ668adOvg2PTVLJm47O9GzDpytTVHPjuk35/Y946mPGY84DgvkKGYdpT2TbUG5z+oixIcpdDkoszax3GZ3ehaUWExe5v6gH23buqW4bR9iyGp6ftLzdLXAF8QZ5atdVB21X+c59SUMsrCGwnMI0AijRM3ncdx3DUYxMj8ttTauPq5yBxd5o53uEZAY7d49WdcY4V2ChjV4OEN8m0Jc4UMXA8+hkLQig5/yWJpyqixRoL1w4gReA02zYAUMI4ZxUhLMtoySDvts7MDyEnYCTMRHkuXS3K6O6VcEukmAGZs5FnoAWR5b2EcLPzQ4zPIEL30oUZYcaQoblEsBm6FX5QPe+PX2CV1iQJ0BnolOduJ2BSzLBxAlXpoDaj1K3E5X8dSRL7BB0pAZ+Nu3TH3Xd/63FDU4NmaoSUV+VuM7Yi1rxASRRJyc8QJilJkBfY8CbzQ33L4ZDUf5SQ59B7HI5CChLgXMD7bUlUXlEb52XHU5T7PXEfbZ2hRSMsGYqFkRxxghH22gUNFvftXCFLvOt5KVC8C8IWkYbylK4T9yJt5xUKVY43SdUSFDcZ497m30+4XrtdU9AhKj3bsn6xoj9DnkG8VUE+ow4hgNd1B8YJRiPPHYQklTfpU6YYpiwxWd6xqLDeuZgbOvdpas/NTmD0pMFOz28Y1zmPnZGkgtTqQroRcf054IdJQA8jVzrMkAvrfTbOj57P/icw9z5fB9b3W7NEo5dy4peDDgige1GEGILzSZhKIbJSN8tMYhhnYvgZWMSBmuKJusmLDVg6DnZGAFHj3ZMwzs6XtbxlmWU0SWN5ShuBt8yHUVJcaGL4fKH9zesI92o+i6hCxB2eByAYKzPEP3C4vTlG6fOrROIOKXFlHISeq9IBl50eRY2AuG8zPocm/O4RllrgWOI/WFC343tiBFoTMtN7LJQNrrRU6V1mIUjpU5G8Q6vSkx2unbc+SRy9GH0cx4tOf1YeHg/Bx4q6ASxY0tgqLCCoCq3GKQKxQvRx6TDeoDiKEIpii1DVZUUonyGMeSRq1kbRtYSOHBy9AFd9oSgQ4QqCSK+y61vI56zwSzNYYxeqAgm6O/NPO6i6s9CkujveLBpY6O831wRN9y6FCKz9yPY8xA5I0482WFDgzXsXCt7AjOd6guTK2E20TpadFA6Cy6bHFF0iHXZpJA9JEUXEznpZ8WbfRUosyGbRTZwqzkzoRRJqoMysKrV3UkGRlULEXoQn/3nul///I1YbwzTTJM1hREmCmqXhA2ZAkl/eLF5dLyGEUoCmJ+K2EKUQhk2FnCnTt3btrUr8z3C1fLLLrAosNbEqMdvjnrEDV0aozTbIQvRTy3aOaDgvGue/cnGNYj6LNoQJFJZcVCwhU9VuZULydz4Aq3E23N6jXagGDygQGDoLDGTCFBXpy0JZqaADPYIVCuotVSzALfvWOWVSetwz2UFyJwFAlQcFj2tjwM6WAqwF724cgL7rtvZpiGud8bJVkfX7NUKSofViYAchi+CGtWPNGIiI/++cAbnnnaZhqO0SkHRypdWm8Y/8NcVYqWvtbb6JWEXZZb7CVQLnBxOIt1HELEXa6gL7SAohRE1TzELgZ5gu+IOj/Ec/SOx6j25r2F5yy1i4NjwkEL51mX5KVeOD3yrrv5rrnpYW8HRh2NsiKhAZ7FLBaEC6cuArjMcV7sIw8imS6GFrksGyZDPx31+73YOi8tsdPTOKul8wQkRjt/i44sgnjGo7CXFSl63uReb9+B4Rve9Mtjm07x/EHmo8rFFRV8vK0gKEe0XkvrohPBjY9OHJxRhM2ZkF6I0fSBPS9/yaWPf8K5fTS9tXGXUVPErp0wGEiJHlle1dUtEcB7HSVAZUSzF3cQxji654Hh//2rT33uiqt7Y1vYIBFfXubyRHj2H0QaIbbYwTGI0HozzjwMY5TO773o/F2ve+1LegEqUjCKO6CaRZH2QlfqPsh77kQmvHCijDK3UlwokeA55RqVoDt/uKGYXxYGr0cbTzbxxBbaemacXcmyC/ohLJbUdYoWAmWsnGfwzXrO3njHgT/8408Em3bA/IH5S6NekCbzrL3jQpMu48z6JjvQXIGYGWvrY9Cw8B+5EjdrbGIwNTWF6/GvqT6XCNP6Wm10jYDEaNfuyLrGhyUUCkjY9NiqEa3AMC3HX33sbybPfkQeTGUoMFEacMo1DKWBkiLCPBas6kHpwQdaaxKw8o8VQign+/lo5sbrnvm0p8NMkGM6EYBC+WivH942lLbLC9B1vZ/yTATWl8DiPOvEBBuRj9hKNBr6vetvufcT/3D52OZTsqA/GiWcb5JigRY0V0rguWCFaePICVt6ZKg3QVecNA2yAS10w+lsbneSP4aDFUGmwjLIYhZ00fOGZQdvJcrnwyo0TMLirqGeHGssGEKJQ5nCH9wG5xeKeYaE3gE8tOLSlGuLHfAKRI2eYxPxtCzCsUPYyJWd5/FyoM+YL9RV1ZsTc1r7tJIqNYE6PeN96MN/fsNNd4UTu0Zp0hsbjLKRhw8fGyTfBDptyxzL2ceQL7U/lc/Uo9ymLdUWazQKw20yOTm5bftWd6pyzV8nRldPb9OtttskIDHaJv1jGDZLAhYn+DgPJ/tjO4f+OOb0xZjBkFMFWu0wKmVNvYuVK8W0NjIs+4glGQYT23r9SWyiTKbF1FViYVwVuHOwHL5yjcLUebDoqHZEoOMEojBCUQE7WBCN+f2t/tgO1K1EA36pOtmBz1Zu0vZWZnyVFSxLi1E46EMNYkSssfGpNC7Q7wdCi1MQORlFaCRnJcMyseXOPLh1dUfKXyg6FlsrlErw3km05eE4yzenPHAXOuXHqKOSKIMlFB7a9zkGFEFFkbUKKH2h/nV5g5/w3GLRBw/w59KJqZZ++s3v+9hf/2u05UyMP4KO+aMhvndCSElnMLbQ8D5aMc4U3zjh3lUWC3z1IBtyADK0Hzh1x+Zzzz69jARsw+BrXemRUilR0Oj+IjHa/Xt0BDF0DzU/NbngY509mIoBbKIpxo3DBzU1VL3gY7S5Wx/XRkkAtiIMQ5KgSgkjQ7NgZEtcqwrDthkTHHBzbpviqczTaQJVhrWMWj3+9tbntxbNe1ke9sdTjL8By14pbRq5emXd0OkkH73ImWlyAIMkGjT4sT8HGRQSYc9H2Qvt5cRhZQql60bPprVGi/BxZeMeOAFWHaBc5Gt90Z1d5vmq981eFfTDXQJf3fcGY41PETT2Qld46kLIPdSOo54dlfW0k3KOJTiAQmX6IVgTNHEyl2hZP0y9W2+d+9lfetc/fe6rwZbTi2gAyWmNxCAmgcVm9SwjyVo6LpYL3SZq7RACAufalgJpBGgPo0L1vHRm/v57Ln76RQ87s2c2W7Qo4IhOToaivwQ2Sn/002ECEqMdvjnrETVXT8OCw/3hqcSD7UV44vFqcWWaPfxobFMVZ+sR7nHpB2Ci/qgGZdwAzX6RYPttFqHHJQQl6vgiYG931xTPvqdc6mB0giLBtDnUHbSTodDA8OkmEY6v9K9natgSlP6BGQpY/HM2ORwDQZ/y3p0lczZtOILFfKqvN68WDh2Rz7WnFJzwE6WeSUCMG4Vm8mHY54zylkamFpN8InVwgpE+cRDJDJllaFb3vWHh3XVffv++0f//mX97x2+8d1j0/K1QohMYcwC5C35BwiI46xzVCLY0pMI7JKR+MVmi4DUXtoVAsOiGn47mJoJ8NLf/8Y/6Fopld17rDUhAYnQD3jRFWQREQAREQATWnQBtmpR9UH2UyxR/qKSHvkTHLHRXijBz55XX3BYOJpOUXbWgFaH/KLoxWovNewSr5Nz8/MxwdGCU3PaN+6752q1/8Zefuv++mcHm03thH7XzUJFmPS0V88HNlmZMqdqJonEsdC9jBpsrbbHFcH4MbfeTWe+Be5/y5MeuOwx5eCwJSIweS9oKSwREQAREQAQ6TAC14bXVFkqzsvHSGkpd6j3/Ra8658JHRfEYerlVQpQWSchKKFE0Ypqdn7vlttvv3fNAOpt4k1vD/qb+Saf78fgIc5PaApsoHENNQsLigFu7UyuurXa+VKJoYQo5iov7MRqdJVExnHng7p/8uZ/avtnjIAY06TMmK/qjg10mIDHa5bujuImACIiACIhASwQqUccRE9i804Nl9Lav75727h4VPjoe+EEvZUtON0EXhr7DwE9syhREE16/P7Z5LIApNIdhFfNRzff7/XnoUVpRresnK/Wr7VXSB21pxlEqUdbOs8FAArmJJiTD+dmxMBjN7kvv+tpP/NgLIGU4uQBdV5E2fWwhUPJq6TgBidGO3yBFTwREQAREQASONQFoOrNbMty6S3oKNehP5uHWpEA3pHG0/oRIRAU9emdh+MA8xGEI0wBTz/sDVu1jrgQ2KfU4PCnHCzO/SsulmUWxjQWS8aDJs8a4sIn6HDCbDXCDAHN/+tnc8MB97/4/79o6YbM24SSaElisD+qbTnaRgMRoF++K4iQCIiACIiACLRGA5ITIXFgw4j1absIiGUMy5D3Ph/rzZzGVHwapx3ijsFiyfxNmRWCfJFboYyR63x9iUCs/jKIYE8dHcZQmCdqdQnrCX1Tns9HnoevT2UjUjKPwkx2qcDEu4vyheTK3/97nPedpz37mU8b6tJli8HuePLS0XUiXtrpDYFGG6060FBMREAEREAEREIFjT8CslJCUVIEUfxx91EQe2mpi3+8lKTeiXszBm6j+AhvTKU8x8hN3Q2fDRNd76FNMQB/H/RQzq9gkTjifZ5Cu9B8LVClGX3LbS9aIBnvmW4cqnmK0oFgwkhR67BfFcPqbHnb6j/7IJadsRwMCjjuFVgPs3rR4gcPFB7TXUQKyjHb0xihaIiACItAWAVdtSl1xiPrTtiKocI8OASg/tst0StFsVaZM68AoGzGHJ+yaYT7KMdUT68wp+Gy0Uw4dCiXKDvhsvolhSDk+LRTkKMVgqxC0KZQtclSVqbCNa3n5qgsFLJxn6CzVQ+d96OKghzaqs/f1i+nXvPzlj7xoB+JLzeoii272FmH4qay7KtROnrAb2MmYKVIiIAIiIAIiIALHnoApOjOOWtjsMgRRiHHs8VPY/KYFOhKl7LuEQxCDEKMB9R8XDuaPyZrKcT9LrwrU2WMo0sNbnH9ZkrAGHnoUanY0m84+MLr5qle+5Puf/9xv62P+EVTQYz5RDhlFO66WDUpAltENeuMUbREQAREQARFYbwKlcdR5i2aarPqmMZMqE3oUmi8NioSTgVJf0ihqTs2YCifm2urWqUIxUD5WaHGKvkfO3FraMNcWa9eutBf1cwhfL82SmagYxem+n/jF17z5Dd+PcfZ7aCBglfys6meADH6JqVVW0rXBbtmVxGjLN0DBi4AIiIAIiEDXCEDamdCEvFu8sB6fEpOij/rPFidhIU1Z545Keg5Waj7AMaYQrYQo3C7zr/Rh2Q8cohkAekIlSYKRSaMwyQ7c97Dzz3rNS1/xgud8a9/DFKvwOimCGF2h4ACd+s0cu8ijJcJ00TntdImAxGiX7obiIgIiIAIiIAJtEajFJSJQWPtL05to/0lVt6A9cRq18hhIKWbvJS4wf+JiaFCqT6swpwN3imszYPo2CbUdXNMq99AhysO0n0U2l+ezz7vkmS/4vqc+/hEnD2BrTTKMFRXF6JWP0aMYORhHrV8UWggcsinqmkKXo2NJQGL0WNJWWCIgAiIgAiLQZQJQk1VnEvZDMgkKGQpBaqZOnGXTUT+ijRNK1GyiaDVqAtRkYOkMrlhJT99oGaWf9GPNllFeGQQZpqEvsjDITzn55Esv+YHHXtzvwQd0WvKLAN35ITtxOh8xFmxIEDMUHKsWJ0yrPf12l0CV57obQ8VMBERABERABETgqBOAXbPUcRB3taJrbNgm9CS6zGOszwiyD33mWSePUUZhScWEoEXkF+hQFOPPHcGagpUd4Q9PiSK1HE0f/el76DOV7rt/3+9+4MP/cflu9IPK0JY1wjT3/oHhHAyyGBwKdfTQrpSjjWXJbuOMNjtHQGK0c7dEEdoQBPTkbIjbpEg+CAL1+9zVytqabf4Oy6b1IMLVJd0ggLLNirc6H+DW218zehiw3nZZKc9xSOkAtfYYyolrqk/7Mz0KUyrHrl+Uf5qtSOmRC7Rem99mGbXqffSU8maH2d//478+66nP/bV3/tnd93vzEMCB3xtMwjKK4BEufyzmToOyYUEBhQqZ3EhJ6bF+OkdA1fSduyUbLUJWbB1GpFlgdGepGjytKUYcxYS1VYtLVZaDLKzdwg0UnLZf/Vbn9CsCHSPgepmUCKSKLAAAQABJREFUkbL8Wudkd5AVsqXUWB519+w3n+glR7DbPLvcBx3pFgGOz4QY8X+5WAawvkjWsZ7NSIsUVlCO64RGobSGsgDEYr2d8Ms8wKyEhf7kaMKZ5ylUKpyhyaiVlsgVNiYUzjsZCuWKS8wjOOFhU6t5Ngwxlj2H1oeltTex/Yxw885f+1+Xferyyz902btO2+Fh+FJ0W4qjEP/YTgBdmFwepJDFPgKCf4ita71Kj6s8aabfJdndnde6DQLVfWsjbIUpAiIgAiLQLoFSeNRvZeyXh2jyqjYRR2cAW/7KaB6ptqs2gu0mTaE/CALICNCEJgtNEVJ3MheYAHW5hPMfUUuaI64oS8uryuxjQpSjkLIHEs2TEK9OBZpnjFed46pI2oHqNIcuLXIMWJqnGRoCeF4vKcK5LEzjicmHftOXr7/zxa96wzU3T4/QYgD19QkyqoUGvxayLJSoi85KX0QLzqrw9dsqgarsaDUSCnwjE+A37uH8dS2thxP5qqDsWhoUHxEQARE4cgILbUbh16KadIhPCEqn9NBgtIc/CMTCt5ajtEaW9fK8Cn/QkjSdop87ZmHKCvSGj3JM2oRT0JV1W1JnWEWxyoPw24dsRUNQ/mFgUTr20UW+72Ux/lAnD+E5n0CijsXjJ9902/Sbf+k9X73+/vnci+OIAUL6UvI2ZaZ5vMgs6iBZ1/8j5yUf1o+AxOj6sZRPIiACIiACIrCxCdTf50xG9QFuNk4MncRD0I2oroeeQ7ekBQmBlqPWeJSX+5SVlJ6wmNq49yWRyjfs8kJIRbexYM6gAjYbKqZ7gq4sMGBTGPoxBm5CX6kwiPEfKjULJ1Jv8oorb3rHuy676758yHajqM+HbyaaS/tIGTd4wnCWLxb88sM60gqBhZzUSvAKVATaJcCP8jX/WXOqduOr0EVABETgKBKgllzkPSQm1GHm+QnOmGET23akyAIvjTBVvf353sj+UrhHF3sMuGS97GlRNV2KUUBpMOXUTW4pezhVJTC1LLfLGn8oUYpFjGqfFmkacgR9L8Gkn2HgRXERhGkw8MdO/uS/fPXn3vK+vQc4/yhEJxumMjwnc+GbFI5jvQHWulUb4CYpiiIgAiLQVQKVtmD8mttdja/idWgCuI/lrayth+wjX5oxOTd9mGds02mz1dONbzZSdkFyzTQhCmnXdDXysG9yyCc0AYW/tY91NCAfTUFWByhLeD18jWKr8Wd8MOYoj3veKEngCU4Ns9745tP/4o/++o//9LNQx34Yc4Ap+tLMhxI5JNL9Rfep+/dIMRQBERCBo0RgQXaU1qQynObr/FBBLxUTh3Kv8x0msFQT0H6JUXcwWhPGk2fTTOjBOCt6Wd5DVTxag3LA0QDDjsLu6YyZUJH4Y7/7HD2bICbRGR6+4kCYV33d6Q0r8cu/hnx0bU8xoj59ztAuAKbQEPN9YrqlUVmvD03rJ1k+DPtjw6I/ee63vvH1v3jtrTMjDzX4MOGaHAXhyixqFtYF4ozRwp62ukJgacbrSrwUDxEQAREQgZYJLDFZITYmUkv12RCyOFMat+pLFp9tOSEK/jAIBG64JbvCKTmYNqlHcW+pIpO+Nz/I5gbFqJ+N4hzrdCxNxjL7S0dj6WiQDHGwl8GAmgYYCgoV916KbvWujt5pQRpR+cccVepFCl/K1tICi+O5jZTvnGGW+hCjRKENKkyssJz6SToK4siLx7zNOz/8x385w5GcIGEbi+nRxsh7jVPa7BgBjTPasRtyHEXHDTXMssNVuKACBbU2VQWKO4gj7aYYX8kHiUAdyTIJ+DDHliXHXWXxZ7rYqF+LCBxfBMpsz7xdPcUugUue2noXG3Bb75Y0TL8eHTKliFnmOYuaZY8kDgaYxBIRbLvYWRbfrhwoxxlldBbuGiGzJxKJwgTqDXd/4/ovcuTOAB3qYcK0IhSyEbLSgeUG9CQsmlH/jDNyPw4HffS7x5IxH9GwyVcB24emHiZswlGaUEu7Z5OFjTCKA9b5HbfNbitXNtmSj3np/Ww2GY5t2/b3/3LFs5/1lEd/8y7EBlX7jAmj5AJasXB2CTxY+d+MibaPNgGJ0aNN+MT135X49SvB7dY4luzWx7uzgZjXkcQGltya3mMDkcQ2Zhqx1C176XUnDYqJCBw5AWe7WpB3CzJldb/hxr3m1+J4dW8e7Jm62Gl64J7oFU81nZ3g29XXBG4f751rhMk5OSHiM0hH77+uviLqTY2yPAgxwBMXCEkIS7igvHSfIpF35+59d9xz75VXXf3122679us33Xr37f2xTXG8ZZSi9WcPFf5pkng9jNk0pM825FNdsW6+ln7bWQbitCrDwX+0WsWc9TCUYlB9NEYtoptv3/OZL171zRft6gc9TA0a5BnUL6MPq6p5p1XHCUiMdvwGdT569qJaLZbQba7od68BOqsKBifp2n8xrB5/xrTxRU3JyRmReQhFocW8SgwTpkUEjh8CfDwt87vn1NYQB+yAsqEXV+AgOa43jEuLS+OGTte6Rd4Vaa7cg8mTxaMThXmWZ2FAO+g3PXwrGotCesK4iQ0scO6UaKlH7eC5Z2/2os2XfO950/Pel79621XXXfehP/7EDTfdObntjGGajuaG8fhEkow8SEaIWRSt5cKRoGiLdZ3r0ZHfKu7tiLkwQ2ySoT99DIsApmdCzyr0tvfDyS9def0znvJt3/LQrexaj6yKtKBWn0W2S487UoVjorY+Ux/VRlsEkHm0iMBRIYByvy7xsY2lDqYu/euN+lRHNpqxraPE2MI+amPt1dvY7Wwq6phrQwQOiwCytJMl+K2fBWckOyx/2nXMVFSLiwn26ihVZxaO1Ke0QQIosMmI4hB7KMw5lxLGsS9SdoxnlX0OaxZakpZ/PqYJTXEUtecwR8YmZaPU2zbwnvjoM1/54qd/4F1ve/bTHjt9xw1BcmCiH/tZGgQ2kT26Hbm6/so0wMFJKYLtb0EQV84QmTDMMJR+2EOMYAMNwoEfT3zhi/95755ZXEMzLpsBoLUA5n8qUt3hjZChZRndCHdp48exbjnataSgoF15QRncOIH3MUtl6GlXXVVdZcedlbThWpsisKEJoNqz+sJCtkdSuIa+sEegIeeY852DriV34YFtxMw9rTgAXdWMeXO74XwDb9Y3BUlbMRm1gyVnnfv6Fvvot8S2nVCgGY2NGOQeNeBhjMttg5Zy1+y+EQxtnCgrIWFjttDl0J9jvjfMvEc+fMdb3/Q/N2+a+sif/PXESRC741E8QK94aE4aMt1S6dFqH784bXsUrLaNjko5GgmE6QhyNkYSszSJov7+W+/5xp27k/Q0WvAxSD+j5uMfL8ZeI4rmnVbdIiDLaLfux3ETG/uMRpHFZXmBiCP10vEk1/FEirCgOglHFgprO93xJCh6IvCgCSDP4xHG5W7d9Ad5H7tUHfWygpKozx3TjeWxRfA4iAUqiutyLiGKabd9TON3NANDimrvsb3iUjtYvoGLWVNOMcmTdnsh6aI0BzfYIGNu4Ksc83TagkzQlHm4iNdx8PkCgzHFyD7JKE+T8RB9nbxzTvd//JWXvuTSZw+n90R5lg5HEKzwc3FrUecxxIn9YWApdDxjjNiP3vrjsztVjmYDcYx7l6VFvz+WYhip7buu/PLVD+zDjWa+tIhUfargpSXHea11BwnIMtrBm3KcRAmFoJs9DkYWvrJQ+rNctNQ1v9fdoeaRrgEoI41qn8RLEqTBXmSMJRNUFnxdi7TiIwJrJkARucgwYdma9id4gZ4iUBSwieFBhhhB9ufbvlSiEHOoty13q/BwlfvDAfpwFJemDloSzPIihc8qBgViGYQEQme7T80l150Iu+5DYnlKy+LZy1x39VLAQZf6Gb86UIrjmiBEU1HQBXvaH6E77TLHGxfCCctF9CqKIvz2ehGyELorDeIYl1x4Vv8lL/zeq6658Zqb9o6NjQ1T5qcAyhZ2THrPOv5KmyLfYXBTLAiQg0O5PIoBTdFOFM1FIXYDTAIaYJImTBHqR73+V6++bjiPqMKgi/hZFJFzi43f2NkoHN8ridHj+/62k7qwyKJifhCMOHIH6/ts8gwUWbYwTq7Ma8Zu+ZHm2ba3EXEU32igtD+c7ofzKHzZt5OFZrfj3TY3hb+BCJRZGbkaki3E+ORe7OdjQTLm7Yv8fpInbASOOXdcnqf+RM095IHV6JcXc7eR5CW7jTPrtLmoMU3DT4tbY7/axChCWZH3wl6ChHgTGG+I6UCy6u/LymVXfx1ep8oW4ujw261rHKQwXHJs4eyKWyzSyvnmqQudGxN1nGoJ/Yww4D0O0lkZZHnjl/gG/nST51ChcRxHIbMNZvaM8Ov1HnHh5h94ztO/8uuXhdFYGE9QgFq2oQxdWBD6omTaDoKrHGVsK8q+pGgVilD6Y6i6v+7am+ZmIW9DBs/8yVyKO73yUvm08lkdPbYEJEaPLe/jLrSqRGJBwe9nPvt+Nr/3URfteOvP/Fg2motQfuENgHIi4FfykvLlkDxWK0YOeeEaHRyyOLJClZ4x8nkWpcOHnnVqz4o3E6jszMk3mU2dXAZaeVr9rjEuciYCx56Ae3IXwrUnjuIAJzZPhC/+/qc846mPywMOEplmmJQcMy4uOMZWqU0XHVvYaX2um/r5ZZxgAEYFb4giyb9/v/fiF7xh8syLhgFnAXIxLn+gsMv2BrCpmQRaSFC7WxCIrv+6G5WTwtTF0KYdsoaXkF8QdjRjBlCOKJ0W365DxB9lNS+Fr+46twkGbKNpZlHOU895mNydLfFW4GrfkSvcaFBRDPHKeCImEI4wguKN0PPDCx6265Rdm+6dHnp+H98+sIk28xUc8hreLeclT2JA+/qIfULAzpqj3RSHhYqCJM3jaPyB6+5EtygYUdmS1Oyh+GHZbNkaflW/ObpiYbduquqC0bpFAhKjLcI/3oJ25R4ffi898+TJR1+0czxi+YEjHKGzmggOyUZxR926hvXRZsSC1xVVq6xZptlCIY3yFKWwHcG3uKvmw8mDv4/L6/UjAhuKAJ7ZiUF88YUPgeDgYgINEgF/eI3jacAayohCZZV1i8nF01o/ue4JdirEnnI0LPDv2ed5cwcwh0/Q7+FzeXlU8aRDAZn75SdbPtKMrouh2ajNdJnlEfq6Y4gP2gyd/bLp/BAxJysKSf5w5e40NkKMVz+Clyiz8U0ewNpovtLNwgLX9VIHSkFP1WiLVeJjlnrvIWfu2HXK1nsP3AdvvQB6lAtcYu38NHnKzIV4WPU9TgcWp/oLgbGx3GfX4v2CGxYPDsyOAj+2tPMdg6CZIOuJRXeLF3iwOAmLT2vvGBKQGD2GsI/foPiqskKsXKPNepJgnjYWZfa4w4ErnFxx5Qqn5hrXL3+lWVljhYUrM47CmrFyMVtp7d5ndbGLSOIIijYsTomaxRdN+fWBffxm7hMyZeiDDDGKP+ZzewSxjacYDfo410P1Gclz1TZe+0u2ed1ReGabfrqndvkt4jPb0KO1A3bNsYWP9giqBT94qNmCqHbDhNQ7ndto1jlTq1ljSraE5acBW2myiEUfI2gzlyTqsbUutGfCLZp78gpQcbce3dXRnT7PYuQGnC18zOwZhQ4agLqSe1EYDqGFjLIRDowznUCIctm5a/NJJ23N87utoQQHaILydaFbw1Tu4nsAbVerpepTX+0v+kUrKl6POZ969957X5JMsB+/DQqBE3w9lSzKO+tU7yIftNM2AYnRtu/Axg8fpYArMfC8W4nA1wD0GUs1llz8LmZRYMUBtt3izi6s0SIdJxavS7fOXzvLa93RdVrby4i+HmRpunEvLSuTyytwhIWdFhE4jghAYUKP0gwGKWEylEqUz547ZjneKY7V1+SxTs/pav7Qe4vU8jWHFMLR+ixqiDFGEZUR6+CTJPN6PSQK35M+PiYbYhReItmu1tgKLaajGwvuCBZEn1rNomQJsvgieWgOCxtmglsUxdiiUwBwt8B2D7VyUt2GczIIjgPWPorzcAKV4tCHKNrZjiFHfT08RwQ4RSgWFyHbXFhZRBFtFPzcTDH9Eiv5vUEf+HsoSPFZP8wTNuKCB7w/SAyr7F1SzSNc6EJY8LaxhUtc0wU71htM75/BPjIv/MiKBIEulNBMCZ1h5WJ7GGwaQWrzaBCQGD0aVE8gP1d9mFE3gmceqpQu+IWMMhGH8M8+fFEUWDF10HX1zX1ol2vxbUU3PprG4d3kWok119DG7jjtDebGqWUzovAF5l7HtpYePYFy/PGV1NWeX44zSonDITnx6JYZ3rkunwt7aiAZ3NNB1bPCc2QmqKP1/FLfIPQV16X6cWY5V9pY7QxXjHEUhRgmwD25VlZtoPsKYUchWAmqsixFffYwD2+9Y8/IH0u8cAhhigmTyq//NZW3IOnUKGye9Qd2VoS4++jK5udzWyf8M3ZMod4LDQFM7TEOy7PQ8iOMLO8UFrf2Zme9ubkRqtUZSdhdeRx/uBTWWNxW5hkkwAptu26FFdxQbeNu0h2uQ4Y1Xcp3DV84ruMs3jsLyaE3lSRdwUsdao+AxGh77I+jkN1XLN9dJkDxtEeu+bqVLei/hFeAH0TsFWE1N1URw9LEbbsXRVVOuNKiXFuxglcjS5j1XbPsYwG20ppTd+AELAFY+KXNqe+w4nc2izYs2MDC81pE4PgiUNv+kcOR1ZE4t0ZnEdtmPS40qj2Q9hSzCFjhOVr3Z7ZZAiyE6LRHc001g6Va8znl8wzDIQy95Rjr7EbPJUFvGUujXbJRVk6II7YQYxyL3g+ju+564G3v+O1//bers3g87A8w3BEcWQnlVN2h1yDEG40WpwSNJQSabJRM9PvZcP9jLz73t9/15pMm4oIDLdlit71GVh7EvoUKpYhf3AME7BbYoE0uet+4c/999+3H6E8wuwfRgAOEcbHLbAvXVntsNlqq5PoYNiywOkQEwf5R8/ObNm3CB5TZRGHdj3CTORjZksWy0ZJj2m2XgMRou/yPk9BLTeZKB5RlNKXA6sDCnx/OGETOvcPMKHG4aXZl2dFY1zFBHF2hurA2CwqOshxESehc2CuNCrRqM1r7oA0ROJ4IIIdTlNjicjs2YSFDC1KnF/BkVE/Hsmen8TTxKtMiR2MNz8soup/mummw43H859OLho8YYx12xQwT/7gRnbjhrmRCNuTCFuwBJr0M+5M7Tn3o7ulrw8mJLEElNRogNG3DC2IUt3fFO4OKeFbC87sbhTgGSKLhMR35+2cgS8c+/kf/+NKXvvxJjz0FKPusuQdX3Fgs9LmEaPs8sni/2mW3+SzwbrzlrjvvecCPJpKixxvDbAXd6y6m+rRchQ0chKK2ctjdHihMnGx6XtpcERO8coqTTz4ZiQ7Zx54XQA9bWwLzmbFlrLkwULeldScISIx24jYcH5HAS4utjWxxbzKUMuUjzy0WmSxXVlrM4UonrMRwnqz7ug7PxWmFtaXGFXxl8ZcXdXcl98LGGguSVvumDRHY6AQoRWx0HWxgQXJcJreWM1ANfFbcE1FuW4KXP0E4jItx/GisGaYL0kJvrlyc6yOIvNvGc4otSBI6wMyWNu49y6XKQX1JtzestHFMXURNUW/ZHD3sgodn0x/vb90Me2OGuYmsXKJUXMsnAdvUmpEYQs6LOAgWliAL4jwOxmAgHT/74h977c9/9Yu/H7LbkX2csCEx/HaLhcNGEDjiDrpSsXSASziTfIDJnLyv33znPXftjbdvhpXapCYto2zB1dCLixRnFcaSX0YDBm6Ogso/L0umJnoIFfcXLyP2i8q8OMQcTo3r3HadIxtntNkiAYnRFuEfF0GXX6VMC8t3ak77zzUbjFqPTHv6rV7bXhJWxq0t9SgxurW40tXiZGkxE4K9rbsVT8VGBI6MwJLvqzK3m2GpQ0+lVQQvT6jTG6ZyYB9r2MZMleAhtkECXH9wK7JMWzurb6mB4EVT7S0Po80jVVd5xKGSVohsHHhnnnayh3mP0izocbwkjvhurSkAAU0rkLSDrZkiKjp2/4EB0olRXIRhQNFiPuyF/alvXH3Nh/74X172gieBYR8iEB2a0CeJDrgRWl9+1sRjPwzyDDMkofs8zNB5yHmbADiCWfqzl9/84Y/8WTy1uQghakOP8ykgVGsIy+RQ6VrPeqdNGS3T0ix8IZh5g1CtTwmKkNjWAqmC/5h3dOsp29m2yqwiePkwWkvNBAioUYib11p1gYDuShfuwoaPg/ssbSZj6evKPnlRFLnja1zTGYulo/nXjLS2RUAE1pfAUX144fmDXShTjuDyBxvsEV23cnxdYWqNIOPQ2zo19m3f9s0YVm9uZiYM0LgTyYTdF5odKWZ39YOv0Q8fehFCEEU6L2Kndv5lfpYHfuIFg3Mf/rsf/cRXrr8f3dTnYSeHa4xrilAgB6FE0RUJzQWwYI7O0QgGVGhgDJGCmIwSaM0Ql3zjnuwfP/2lm27b3RufwiShRYZxRnEJJ1kou9Pb9Vy5pNW73CgXNp7CAr2MqcKsO2mejqB9z3/Y2RNjISry0VGhets077PZaHHpgs+Vj/ptm4DEaNt3YIOHz4/UxoKCp1FHU5+wIsDtuRJibetmKVL7tc4bKAYP62+dg5d3IiACR0TASYuV1zCJokBya1Mg+B5uvvOogjbuAmuib9ZEJBKpMpvmqaeedMEFZ+3fc+fk5olGBfpaE+mUKCCh7jtDSw38cRtGS2jGNMPUc4OJa2/e8+4P/OlVt8wOYWoNMFrrfJ5jvCcED7f1QKLwAzZJ1OKjtQAs0EEUD6Bfv3Fv8b4Pfuy97//I5u2nQjyi5amHQagCpAItPKubwdq2qskpDLTucKMKDomhnR5jSwUwkKJ7EnvNcwLQfP7ss3ZhyifKZzN9Y3gyZ9FvpL/xMgI3LZ0hoGr6ztyKDRsRqzThpyYKjfrprsqVKlWuRGFdjA3PjMNlEWMOVtt2V9deuwDWcV3FTr8iIAJHhYArEdbxmV1SGhyVSHfUU5f0RuScnQ9rCmwwxut8+0nxeQ89BcOMprAU5uWgJo1LuAl9VjeiXXzK+gZB9rF5VeU5jalc8EvN6EXx1Cl/9+kr54bzr/3R53/7RbumegOeRS17kUcwiGYj2EoTyM/Y2pViSFeaKOjg2ptm3vfhP/2DP/nLzTsf4sV9DmKQQ6AiQhZ/uqIFl0cWLQ2DqelUxI1DIuAPjUGTEcdGyIs49PfPTl/48LOnNtlriNG2jlDupUTPy3cOP1AQGzuyKBzttEpAYrRV/MdR4K7AQoLKxxwNlVhyoeDjX1kM4PThFwH0kBVG678mfvirRQROWAKHlf/t4T2sKxzXo/j8IoDVI2TGNiqvJeXOcr2zce8/0oZi1qUQAwOg8865D9k1Oe7NoTt9AJmIrlmLqq+WWQqbScfQe7br1ri4Kq7pCUGiY3qcZ0U0GPvk5679+s2/eekznvjaVz5rLGDLTE4QD10ccbCCEcVsEdug0piNfu8+71P/dPXvfuT/u+Kqr41vPSvz47n5pDc1OYK+hZS0GnymAy0KypeF6xfXfF2UzWSpMdHFH33O0AaA1g28F/wkGRbp0BtNn3/+mVOThgM3HWZRNpOFcsW0Ye6eu4TBonw8ZYHmHdzA27olG/jmtR71spCrCizEpyzKrMKIBUnjFItFi/FhrQ/L8UIE1hYQPXeRXPvafNZKBE5EAu5pPPyUH6Wn+MFGp0rAkV5f+dOZX3YfyrwnPe4Rj/nWh2dzs+ymXtd9ry2SqJenKORiupDGRdvlQEkwS+ZZOor6/VHmReMn3XzPzK+887Id2x73jt/6uyuvmb19n3fntHf7vuIbs8U9w/Deef+eae9zV973Qy9/11ln/veXv/pnr7517+SOc5JoMgt7kLOj+TkaGBIoWHZphc211L4WB+jIsoLeIsNVY8G4qtY1P/d7HIoqjtFj3j//ogt27twEBrTqUnTXrx+Xosb12Dzu7v7i5G28PVlGN94962yMoU0bxUcdzUUFAUoA7KO8WMu69uLobRxuiVQXb0cvSvJZBLpM4LAegcN9vh5MwlePEEKvjbKlzweNUNOE6LZX9/vBxHQ9r1mImStgYeuD6dIb57Sd3uMfceGnP3NjPEZV1pjefSH81TDQjkifG1Yqk4bwPE+Hg6hXoM/6/N7eoD9Miri/pbdrqthy1jve+6e/+gvv8cbDXec/9Owzzzj1rNM//fnPwiC576tf84pwcM75Y+c9sgh7s5iwNI/CKBqlc7CcRmNj6WgYRmPZCLZUShEyZ3DYxW8P0WA8UcnGN0sdJTjC7KFQxyWCLMuiokhHo2//9v926mk7zBsbOIAriHE0O62vhXfl0vX7W8XzxPmVGD1x7vX6pxRlHx/ppQUbn/zG049NjL5clRzrH4sj9XEtsti5OdKQdL0IiIAIHDEBlLilELPCl4ODQsxBd6FLEKrJPe85z3z6W9743sHUqUEYZqitpkBjJTiKYfRMqmyfi2wHJs5Qf92IHIMxx1bIQ0QmSYIJTOI4GiYJJnzCKKboX98bO2kQbg53nDHKRntms/uuuze96nZ/MFWkaf9hj4r9eOgVKXsYxezgztFP0d+IRtt8xFr9bAg92rcxbRn0QtIswnbEvUwgSV1nJjhBeiFZUw/NUtF7ifX26GE1c+H5Z5+yfZzVcrSKMiU0joKKh+H7nSfN5NEPLd0hIDHanXuxIWNiH6xWNPCL1j3wza9YU6s4zhY8LNLwH47WuD42RLoWn2OTaoUiAiRwlN/OR9n7B3kPrcAqr2V3bKdc3Kc1kEDtuKV7sYfSgqBD7CyOlGUWR9eekrMlFX6CUd7Pe8imxz7pcV+56f5wcltaRKEPc4CXovkoNBnLaYg0DjKPgZzMoEDTo5kknb/wn4R4io7oOTZIKQxYO44dqEmGzGMJJHBssYggJ6goov6AY/Bj5k+MQlpGMeAATLigSPEeoLcmkc17nuKGLXyhmGfmxiKG425yZspMu1d416D/fhRnMKH6PoaWKob7zzh16sJzT41xgP/MC9vieKdul6eIzl5BLhDb06obBNy96UZcFIvjgoCrT1ko0JmoakZ6S6CVE2VZcPDtY8Pj4HFonj028VEoIiACR4+AEz5OxC0JZXGpteRkV3ZdiYRUNMyYdgyimjKPygs9gn7j7T8/e9sNGPkT3cyh9tKE002VwpsunX51iYIMcH/YpfXR/WGn2oZj/kEHuz/uVgv8QksA+8NoUPbHUevp0u1io3ILDy3i2DcPm/7UbspTbh/OoZQpQZlGrKmbcQyT2cOwiiFM4RoCN5l/1MXnPvE7zkZIvIlwY86cH411nczGMW12g8BCLulGfBQLERABERABERCBgxEwVQUzJEyBMQyctEBCf3ES1zRN5weRd+55ky9+9Q/PHNibjOYxMnyI5p6cSimEHISgwxyfAWrtKWgh9yBAS7lJJdehBTbNKPBh2Y04lRT75iOC2Ij9PBz0+z20QR3OxEk6f8st3//M7+aUUxb/uttWvdGhNCkqqxCQGF0FjA6LgAiIgAiIQIcJWMW8vcQhJqnDYP0MehGsksXWce/lL71k+5bYS+c5O6iNHg9xFqKHU2HTHWHeepNuHROgTdzQnpSfiLaNp282VpukNIp6yXCUJ6NNE73h7L6LH/fIZzzlAiYH7VINRNOX5UeaZ7XdEQISox25EYqGCIiACIiACByaAGuhrTLdGQLdmvXYMB7CPlrksbUlPefsqZ941Yv8ZB8miad7zOVejFDRDespqraxF2BWeehSTuPEDuxWWX/o0I+ZCyQo8FK/SHIYbpE8TPKEvwDtX4u0SDG0PiTp7IH9o9l7fuWXfwbNVtErimSsQr+O5JLd+rg2ukZAYrRrd0TxEQEREAEREIGDEqDssj+4woatYTmEYRDCLUuGqLzfPuE99+nf8aynfkc690DkJ0WaREGI8eF7fdTvV203IfhgUGRlPf66trAVAYc+ZY8rixv6XRXowZ/B1oumB+loNtl370/+1Msf+YiTaTvlxK809kqAdu1GriU+EqNroSQ3IiACIiACItAyAatXN9WILfdnMWInH+tsnqX4jfrxIB+lGKjz7J3eC773yWPBfm+0Lw7C1GbfHKYjGBetBxQMok0Z2i09ipRkZfRYVV8lOAn9tN+LRrOzRTpz4cXnXvK93zmGxgjJEACWyNAluy3fPAV/UAISowfFo5MiIAIiIAIi0BkCEGWljoTJEDXsXEOEcbp2jO4exX12Mc8DGEEh5TAG/nf993Pf8sZXzd56dc9LMRhpvz+GCvsMQzwFqNTH2EkQoNZ7qTMJbEYETWAhSaEy0agA46dyCKk0KUZDrMN8ftfm/jt/+U3nnzmJMU0n+3GashGCE6BoJ+qairp1009td5OAxGg374tiJQIiIAIiIAIrEoCChLHQ1qXtEEq0cllaTHEAUx5lceG94kVP/NFXv3D6tuujFJ1+4LKHcefRGDMLMaF8mGL0TrYchYStfFj8e8zsixCOS8LCrJ/oR4/BVdnsFTJ0bjTm9yeCOBzO9NLpt73xFY+54KSx3NsURfPzM2hDujji3Fvi4XIHOtIRAhKjHbkRioYIiIAIiIAIHA4BmA0bi/U7ryq0Ta2iw89Y6MFY+sbXvuw1P/7i+Xu/jimP3DVBL4b4TJIROwKFGBwqjyIMFLWwQMY5JdcclH7h9HpvueAQ1oItswgw7VOOiZ4CjPGEYQB8jmUFqT2cm7nxql/4qZc9/fEXT4beGEzBWT7o9RcuXO+4yb9jQGCFL4ljEKqCEAEREAEREAEReFAEYEWCklxiS8IuWlZiOH/INjOacognH6bQXhycus179f94buGlv3PZn/e3n+n3+mmK2m8MPBqZ1rQRlLJFptFa2zlJ+qDieRgXNYNDiIgV12mBEVIzdGLi+KJ+HzM/Deemb7r6x9/wsh9+3hO2T6EvE7s2YQp6NFaAZrUpm6whw2GELKedILAkN3ciToqECIiACIiACIjA6gTcu7scrN76xEPOUYflXsKWoPjDLgYWxXSYUHKJd9au4HWvet5LX/Ss4R3XBclcD0LVjQ9lddkhO6LbHKFVkE11WB07ir8uuAXha1X20JdZOrLJP2HJxSgBM9O3XPXq1/7Iz77uBVsmmUTOKpVCkCKRUTV56FGMpLw+egRkGT16bOWzCIiACIiACKw7gRWsSDSHsgI+R/8lM5HCZIh9iDU2Lu2hBr7wdm3xfuVnX4S+5x/4w78tepvHprYkWepHqODOkwIzerKPvZODC6KQfh0LW2MdYh0c55TPOB6qF2PQ/jSZ2Ren+972jte/4oe/a2rMzMJMXB70MScTo83YL17gVe3t4jPa6xwBidHO3RJFSAREQAREQATWTsDkIhQZ6tlZ1W6qzMYPRVPQLA3DXp5lPUyrWXhbBt5b3viibVu3//b7/2g4k/fHt8yN5oK4BxtkEIYZegzZUivCtcdhHV1SQaLOPU/zbDTo9SCVk5m928a8t77lDc/5zm/ZOokeTRx7NM3nEevI62GXne59jOu/SJA6JSo9uo635uh5JTF69NjKZxEQAREQARE46gRs1iE2nsSfNfyE6RR/MJVmYVRk6XwYDYbDpNePOUBSz/vJV3z3+eed9tsf+NN/u+rWsa27ONyodR2CtoMMdUr02Gs4hEtBaXHAOkvTGD2rktHwgXt3TAUffu+vPubiUzYNYKlFvXyesMUrujTBcoqxAQIkATqUitRJ8crEe9TRK4B1IrCCtX+dfJY3IiACIiACIiACx5RAYDXYLkhTZmhLSXthL47zDEJuFObJVFw856nf/O53vOnS5z5p7t6bAwyJ742iIvXRVwid16EIMWAnjKxQtu5vhRSsv3ig/GVbg7xIR4Gf9fysn03P3371Dz37SZ/46P9+0mNO2TpANyY4SNm9CcrT7KBoNgr9yZr6RiSPvZJuBK7NB0NAltEHQ03XiIAIiIAIiMAxJsCe8vXSFF92sDpLeeYW1GazBjsIM2o4GBAh4IIsS9CEFIMlPfKC8d/61f/x6G859/WveVO448xoYrsfb0H39aIY5ejMhIHxYV9kdTnmGKU05XifIer6abMMoxDHMagSAiqVHwYDtS7wOOJsnGUk0BW+VI2QuEGGgU4jWjBRBe/BtyCCaZN2XIwkioVD9yPGaTI710+nD9zyn5e9/z3PfsYTN23yepa8jENQRUxVlkUhjrmwcoxNxUC9cnQqF2IZgTqG9b42ukegzrTdi5piJAIiIAIiIAIicBgE+E5nbb39QeRhmE4b/oi1165FJSRflo3QNz0sYCL1XvnDT7j6+s//xI9e8tBdY8n03fnMnl4+RGW4nyQ24xGm5EQ/e/gBmYpRPznfaH8wyJIhZoc3kyvbBSzITejJRrchdxwhQiCjuxHapMZ9iN0C/nhRLwhjU6IexkOF2sWknmMYjH/ufn9u96S3/5UvfM7Xr/niy3/oiTs3ez3EPsW8Szafae6jt1bAiziLlLGB1IZgxjYjo2UjEpBldCPeNcVZBERABERABA5OAEZGL4JsK9jBHnLPGShhjMTEoagLj/2IutQLzzjFe8ubfuCZz3zCJ//58k9/7sv/fsVXelPbB+NbR8MCA+JnMFdCbsJ0iYaacZRDh6Iavc+GmuhiBF3IWnLMRlpkOGThoHcRNSJEJxYIVq6tW38UQeLOUUliy0d7gYSmV1huiyzKEz87MLPvnosf/pCnP/lpj/1/7L0JvGRXVe9/xqq6Q8+d7nQ680BCGEKUSYGgIIPIIKiIE+hTFJ/zLMPHp8jThzijD0WQx6CI+kcMOAAyGJIwJEAYEzKSkKSTTjrp+VbVmf7ftfepunWHdPp27r1Vde9vf07OPXXGvb+7cvpXa6+19uMe/YxLzpsgMyrOoVWQYvE0yyhXecVpVlhrlBUeiiZ1ljXurDKeBCRGx7PfVGsREAEREAEReDACJhZNLloxn0wv2viAebIskKWozGYQdavgCY/accF5L3jOM5/y6U9/9T8/9ImP/+dljR2744mpRnOSsfN2XriofKKHqqSRFGW328lJ8Emx4f/aIDqrEU2AWmGN/ZIxdEyfmFdDeyKFnPth2EhSSyNaHMlnDpS333jhEx/z0p//uSdefOHDz92xcSIwdVIEfloolKe71aztk8utSTRodu02tRpPAhKj49lvqrUIiIAIiIAIHIsAee/9ED2j2OhRsxp6VVpg0cT90/xBy4b5hlZpGOIourUVPP7CrY8858nf+bRvuvkVL/m3//jvv/uHSw/tPZzuOmNqw9YiK0Kmhc8zoogwUSInGRqvLCoKXWsTJqEPzQZrspP5nZCPIQP5fLIDVsKUOhQuJT8ateh27z/cvfcbQXjkB176oh968avPPv2kk7ZOTTSClgXJu7o7QyeWUQtsMqsnKarQxO4h3HNu0JJ7hFbjSkBidFx7TvUWAREQAREQgWMRMBWIlDM1Z/FHtsHYfZgkDRvmxvmS5EiEJVk+qLAZWDD9oSPtTRtaG8+YPPe0s7714rNe+6ofvezy2/7l0g++553/QNLSYHJi+pRd7ZksaaRJnJbMe2Tj7DHGT2cf7dpdyzJ1erFAtsZxlmWIUQbxLbaoaM8cPBTsP+DqUr3w+1/0ohf88hMef9bmqaDVCsjGb9VF3eKYGpt/QV6UOKbSCK9EUb1OiS4Yi6dZFK943aZWY0dAYnTsukwVFgEREAEREIEHJTAo2szD0kbpnWRD1TlXS3cHbJcs7LeI+2DzhpalvkdgltHEhqCTBS969ukv/M6Xv+1NL99zT/Cpqz//hWu/evc99+/dd9/RdnHgQHZkpttutw8ePJhn9oiEJPRozsL8R9G5O3bsIOR+8+bNjUZj26apHZvSs0/feeGFDz/9tN0XnLuJ+vFEwqQsgp4a8dg4yPKCcPkgzIsC6WlOos7ySiJRSwfAio89U6urv1ZrgoDE6JroRjVCBERABERABOYTqPWouWy60HeO2+C26Tmsk7hzenXKaYy1E6hEtBKHCUuKKuKTirIZM+d7FUdxpwhOPSn4nudc/ILnXIzqbBfBvfuyvXcdmJnJjh5pHzhwwI3Um/Oo2VxNMhZsnHHG6QjTrds2t5oTu3cH04nFwGNgjc2V1epBtRjTx1bLR3twUaUpLgPUhYmjrFbs5aNbo0q5eT1Mbw11EtZfaCeqjDMBidFx7j3VXQREQAREQAQeiEBPovVtopyIejNLKIoTO6Qv5pVpgfek/WQ8nSgjFClj+gyUl0E9yJ7gYMoZTBSPZMScGQXTO9Kzd2yv7+D/9B9n959fTFriworOdUetGjZaTxAUzyJfqelm9CYuqMTXO+9TTrGdrM3dgKPsdQ4A9sEVv9823Ql+p9bjSEBidBx7TXUWAREQAREQgQch4ERnzyRqum/O+WYHtV0mD/njjrsBcPvkZR7rxCZh4rONjc+7BWmb7FCveOHonsGJVvyf/jnRbCiTO0yIvHNjdR+Y3pP5ldzV5t7qauYPHHPNzf1zj3mWDo48AYnRke8iVVAEREAEREAEToSAGzI3Q6MrtUb0H9BwdpQ1/yFIS+e66Y7hwIl5ks3YfDl9mlIMpXa5TbnkJOOSJSBX2eIksa9P7BxA3RNtxQi/Pc5kqD3JTLO2u/egfuXrxnCImrsW2Gm+9E7ufdbfcSGgnhuXnlI9RUAEREAEROB4CTAITmj7rGLrizmTfa44Symazy2oTAu3Rw+y4aYCRQ+y00blkaFmGe3dwW3MU4HHUytsn/ZILzu8pLQ7E9Xv1tyCnfbxeG42K0MXStLjul4njRQBWUZHqjtUGREQAREQARFYGQJeTQ5oPaKJalFoVlALZ+djTywi8rBROj1qKtEsogS+O3OlV6I2mD6/9ASr7Z971BRnaHoUq6u3sNbnmLZ1gtIMp/xHcBPC1862E+yQrGaOxJpeSYyu6e5V40RABERABNYpgb6G62/UIFxqJ7SlKUev+LyLZswOk4C1DHTH2GV7ewhNJhLZ5C5dTIy68wav719b77T7mSEUSUpwvLsv1WMvJzJnKMZZttwGJ4WW0ckVF37vzprdM2sc9Q2c38zemfo7BgQkRsegk1RFERABERABEVg6gbn6rC8p3Y2YQIm/ts9Env1FDfbNkCZY0Y8YKxmh94FKtQbtj9cT9zQoD93d5z6C280p9Qg8J+EvypGYp3ALL4WdTdRJ1V593LWDj5hzM/eh38D+xsJztGcMCKj/xqCTVMVRI8Dbcd4L0uUocSNN9Y/1we1Rq77qcwwC6rhjwNGhNUKgdhm11mCDRAZ4kySvMR87ZAec9ZK1veps/NypTL+2w3VZkoSw2UdtHJ7S06w8hVz7FrjkhLDt75lVe4/onTpwVe9Q/++SqtG/ShsjRECW0RHqDFVlBAnYkJR7OfoNXpo2dMQ0z2S8cwECpOojQ4oLFLCf+vYutZ/6aBor7lWuF6WHMUJr+tTl6LZ/lK2brMv4R5DuIhHiwD9+VmX3L6hNElP3IzkR/ZeB0/3ldhbF2ZnqcGO3g6m5bbe7eX3b+kHzHuHO1koElpUAXzL/la2/bQu+dPW3l/18/d131Z7fO81H4HubpXMo7R3qndD7/KDvt9kTosT+j+gX7mT/t9kNZ8/pV8Cd5vcf+2j/ftoYYwISo2Pcear6KhCYozZ4HvGmLiNzp5tNpimz0+V5yZR17qWKGLHXqoWe9l6oLnXzKlRTj1gygbky1HUc/ybbv42++5gXhnmxY3qSSQhrtVofq/+B9pJ0zoO5urQID3/IXcXPEvunFJ3b+3d9zhX6IAIrR8B/rR/8/sd73oPfaXnOmK3PgAxdnlvrLiNKQGJ0RDtG1Ro1AmgXtAV++0WRhXEy0UjN+lkENo2yyQ0UjNMb/LVSW0bZaRGoKqNHoP8zw+dapJdsANFmoMmZl9v6zJm46XBTlmYHtxFF35ecx07rar+qW2cncshNZ+NODC1djner8/55o4dBNRIBERCB4ROQGB1+H6gGI07Aqw6nXRilx1oW5iWuVW5aut6gkzN68aG2jZqBrValfc0z4q1cj9XzSpIeckqU0fcyZovkNdZ5IWZR63p/GAMpU227jN+R2+92e2lqZnDX23axXelZmnJl092yNwrpnrgeUavNIiACInAMAhKjx4CjQyKwgIC5FeJq33DD9WYANTOYpYXGPmoTldRCxEyoXMupnO8HarUeAgEXFfGAzzVTp6VRjHCPw78zDuOqLOOofivSgRZFbFN1ozLJYsNchm7Q0M9NY/3OnVkofjDR5Rg3eyrfBPZwV3++O0UrERABERCBByAgMfoAYLRbBHoETIrUxUWehqGPV7K9NrZr4UtOpdh5ttPJU7flL/TmU62HQMB+EVgy7/lrZ/E0f1Dfc15RoiVxDyWxobvKejahS8OksFmzOYKytMw0NhjvetcSJaJXZ9Pb8MPEpq6xc+wEDrotNlVEQAREQAQemIDE6AOz0RERGCDgJcj99xV79h7IglYREL6UEpGNC2mapllpBrbYi5qencxZzgZuoc3VJYAUtEw1i2lBU5CITbQo1s7I4uXZiBsxwnUma2/e3CrzqtUIpibC6Rbdieg0SWuxTMhLLrXzndXTKV33BBOx7HLWUJ7Kq9WSM6JmTfi6zDmmTFVEQAREQAQWEJAYXYBEO0RggIBp0J5llInzPvvVm57xzO8LoukgaQVkeOIQ+qRCiLgQJi70gsTuwNFanA7cT5urS2AxJVrXwFlHzfUXi2hVNTZv3nHyziIt8zJ/wuO/abKVnnrySVs3TZ1+2o7pVmPDZHPDVGvrlg07T9rQSNCv5oVB93J7hGpoYpVNuw+fnLXUPYR9VgF/VEp0dbteTxMBERgfAhKj49NXqunwCKAxKHkYtpuTWy+8qBNOB9GEzyLpK0V2ShMltXuo1yYoURY/lfPwqq4nL0YAaygdikHUDb7bGUVR3FPkVU5Pph/4r2uIXio6M0GRB/ftjbdv2XXS1rPO3H3WabvPPG3nls0bTjtl+9lnn3XW6a2J2GKabC5tOroqU6aoMXXKnfmyMJjvPIqJ0Cd/aVkkccPbaQefy6OpSf8Hz2KV1T4REAERWOMEJEbXeAerectIANNWHiWdOO0EE2U8YSIEy5ezm/bmFXFPsyFajtWzKjNSHFURk4xovfoEzFBt07vMX+NVwWwFNnxO8nvkJOdEDaLkEY1pGreaYZ7njclt2EDzzbs5cF+7ff+1e6/83A1B3k2S4qRtm08/bdfunVvOP/Pkxz/2UY/75kdsnEKHpm36nR8gZgOtGoz+V2XW7eLFwZckjRvo3ThOkZ5eCrOTbf/RfW+0EgEREIF1SkBidJ12vJp9/ASQC5zsRSejs87siQzlr/MadEPxveT27oMbmvVSlQs5jxyT5k2o9aoTKLxn54K1mwkGsyW9GsYp2ZfoZGRpXpXkdyIuiRkKA8Lqs6JImq08L+LGJPuazUms3QTg393J7vza3ujaPUn3c+1XvylIom/9jm//8R/9wSc+7txtW4NWGrTi5EjRTYKq1eRC57ZacMMUA6lFP7li+12ZZyg9/m+mzhQBERCBtUFAYnRt9KNasVoEzA3U5EitRBc81ukOE68oHQKrvSS1z95epvUqEvC/DEz8WdD7nDXj6GavxreCXwlkbyLBk4UwBXFC0i4m1SrTRorPBXFpZVbZkD3K0bqWcXcuSKJkwhJAkfWpGUxdeHIjSa+5Yd+P/+gvB+XMc773OT/98h/cvWvj7p0TU42gUwYNruAbwNWIX7xNSRPVcw9wttK47yrgviZaiYAIiMC6IyAxuu66XA1eEgEUCjKkf0lIrFJI4kn2mNTBmlabQU2jmFaxnX743uJi3ICt7ec/f6bWq0sA9lg5rQPnrq2PLIsovWSZRgOC0xCFAeKTMHkyNCET6foojUh1H8YRH+nEKEoYeqdENsaPr2fYxZE4jjt0dWti6vyLGef/0OW3/Ps//+RjnvLYFz3/27/5UWc97Oydu3ckOJa2EidHTdKaOZQbokFtulG7j3xGwaAiAiKwfglIjK7fvlfLT4RAT4ZyrVnKWHup2buXyZ56vzfMeW3qt7VeVQK1BrUesdyf89Z0DEZQpCFyNY5ssiV0qe9GZCJqNGbGV3ZwmslOO4IQxbLJaTaMXzLXZ4U6dWqVfPnxkTxMmCh28854avNXvr7/mte9acdJre98+hOf8oRHPvlbvumUHc1mEuA92ul0ms0mMhT7KKqUNSVJ9Cr27LUWARFYjwT0BlyPva42nxgBpzsZZo0RITa1jwkUMjp5CYPhq6+0nJXUbG+2x6ZnUhkKgfpXwSLPRnjaiDmx7whNxCCSk03Tpb2+s+1e39LNLvrepmOyM+l9cxKOAgSly+pldtcywIwaEpBvN0vSqdbk6Qezo3///sv/8X0feuxFD//2Sx7/0h947mnbApRot9ttNAhwsvymVM7ffJFaUiMXHrfoIe0UAREQgTVDwL9510xz1BARWDYCmL8e+F6M6Jok7Z3gNvo6xu09xsW9q/R3aAQYIOfZaMF+L/sN1jaI7jLh29A8StHNRF+fhnj13wo2MGqacZzgJyvmlIFDaZmRdDZsxiR2ygifb2xINpzc2n72Z667/bV/9JZzz3rsL776jbfdk7eDRifAIRXViiDm542pZu7VXxbh4my0XOCKSdg5Oxa5QLtEQAREYGwIyDI6Nl2liq4yAS8RBh9qZjSLy0Y9mFchEgJB4MeC/TBubVezcBk3Lmx2075gHbyTtodMoE6QQC2cSbS/Njt2/0cIU9Vzgrduu/qaZrQvAMbUwvW722vB91zHvPZ8dD6gOR6o3IdL8TNtHMrzaHpHc2p7fPI5b/qHT779fVf+5i+94rnP+JazTm00uIwoe7st55IVigvN5G7q1FWDW9qXihB8ey4f2I/3qh3jkGlZvo5ut/susk/fN+OkIgIiMF4E9OYar/5SbUeCgP1vg9xEgpha8QUdwB43M48JiN5u/V2LBBbtX/99qNfO2ImqJLdUEaVZ1egGrXYwlWw9M2/s/K3X//UP/uSvv/t9V91851GkaB7zxSFg39JJsbigKhfbbyrTTLBYT0151sXrTz7Y19CrUjtSe4nYpooIiIAIjBcBidHx6i/VVgREYAwIMKzvR/a9VyjbztpZxozgx/H01lO/sTf/n7/8+6953Zvf+8EvHM3NzGlOrG7sPyGXFHbQnmXULKCmP5GdTo/aWD4GUUKuzKTqlakZYWeXMeCjKoqACIjAIAGJ0UEa2hYBERCBZSCA9PSlfy/0KD6ihNJPTG+YKcI8np7cduYHL/viz/3661/1u3973W1HGacnGAqpyYXuKoyjbvzfPrggOdOjjNG7o06aYoXtvcHtBKdV+w/UhgiIgAiMDYHeq2xsKqyKioAIiMCoE/Bm0Z5B1GprexiMT5sznS6ZnIokyZsT1eRJneSUt77rE4+54NlveedVe+8PyDVF2FQn65KHPy8yXtD4p3J5Tpi+rS3daa06nSj1upUTMI2qiIAIiMCYEpAYHdOOU7VFQARGl0BfjPoq9uykZBW1sHtL6hSHXdJBpa0i3dLYdPqmC570iz/96p/+lTdcf1u+vxOEaYupnuI4caFLROnbJehRZjG1DADmlzrbdrdpXqUqIiACIjCmBPQGG9OOU7VFQARGl0BfffaraFZSC7YPW2krKNCkVbM1mWWkeSo6jeRwkGy48PEfvOJrP/DyV3/kypvvPRSUcSOvyJHvHEltON6inCyhGIP1bgYw06M9Seo3e5/6z9SGCIiACIwHAYnR8egn1VIERGCMCCA9Kb7CfWHqN/JuhpkzjeIs6wSNtGLsHWtpq3kkTJpbdt9wx6FX/PJr3/jWS2+7ux6y73Zzzs+yjFmaChu4r11K5SQ6Rt8HVVUERODYBCRGj81HR0VABERgyQTQnf1r+sLUb3rVXmQAAEAASURBVDDTPTbOoiA9aRYGXZcGrKhIgR8HR4I82rgpS7a+4Y3vfsUvv+EL13UzJnNqIliDOE4t4J7/cBt1A/XcH7lLQqiKzKPmMopPai1/+4/WhgiIgAiMBQGJ0bHoJlVSBERg7AkgFYsALckgPbq04D+bUhaBmbgEo1VODvtOUbWDdOOOs6685pZvecKzL/2v6w4cDdpMQhqFWVZElvPJ4u09C/4yg1PvI/vJ9aRX+th/T9QAEViHBPTmWoedriaLgAgMgwCRSExHj1U0ym16hDCtqtjm6sIwSt6nmNyiQZw0gig90MnL5oZN5178kh/9lb/9x0/cNxN0kZpp2s26hDJZDBSOo7ZC3/owet7kTKen9/kwulXPFAEReMgE9PJ6yAh1AxEQARE4DgI2iI5Nk/AjNw29XWHp691AfZaTxJ5t8jiVURy1JoPGhpmguXHXw37r9X/5xrdcevu9jOgzWj/BJaZHzbZakv2prIiuR5xaxL2bj9TuqiICIiAC40VAYnS8+ku1FQERGF8CDKk3gipxC+9en+feCVRmAc0LG3EPXfqnKs7DKovTw1WabDr19W9825+/+T0335mXjONjCTXRikHVFvxHbXYn2+UmanoANpzkywMc124REAERGCYBidFh0tezRUAE1hMBBuKdEq3H0y32KCwLkjWR8imKCJavyox0+Ekco01zQp2C5sShdtHafOpfv/29L3v5r915n43Gd4ugW+J4StySGVargvscL0Uk6fGeqvNEQAREYLUISIyuFmk9RwREYH0TIFe9uYcyiRIZQ80Gyhz0bLIwwB4VDM8nrSht5t0867bDBI3ZLqMs3jgdTGxOp0/50vV7X/Ky37j+1ixDgMaNMEqi0BaCmtCkWFRZ1jdgtV4ERGBcCUiMjmvPqd4iIAJjR8BEKIPxlo+JEhaWCN/cP/lLMlEmAOVAnBIUjz8o4tKOFkXRbhdFOp1u2n3Vl7/xu3/4NzfdkZEUKmMo393GQUCG+gRPg3qU7f4yiMrvHNyjbREQAREYJgECMFVEQAREQARWgUA9nl71TZghYUu+2CF0KtKUCT9t3iUbyscrNKmKImzGXZuofiLZdvo//fvl6dTkL/zU9154xnTTUpbaDUg+Stan3q3shuYA0NtBaFNI5L7tphDpxG05w1kibEtFBERABIZMwL2PhlwHPV4EREAE1gmBY1glF1gx0YsFGZ9SC5dnRtBGq2pMhptO+ft/+fAf/Nnbr7v5EKLSxvzJVxrHGU6kTBXKvPWu9NI8IUGxukpyrpNvl5opAuNKQJbRce051VsERGDNE8C4yXh9FMVE2xfZUYLop6a3lHH6L+//9N479n7gPb9jg/4lArRM4gap8S1rlCv8MYeAfhZSm9B+kJbMEIM0tC0CIjBkAnolDbkD9HgREAEReCACIZH2lt0enclAfJm20iNH21U00dp4yieu+Mr/+J9/tO9wUCZRFSbdguF9uw2GUVvbJq/3gTe8GUltb73T5Kr/qLUIiIAIDJnAwKtqyDXR40VABERABGYJWBrRIk9jRuEJws9xDM3yPGk22mUZtzZN7Tzn/R+5+v/+v3/fe8jy4ZMHysbnSR5lgfp9O+hcPcq93RlzROrsA7UlAiIgAsMhIDE6HO56qgiIgAg8KAHG5wvmpCeGiTj8FK+qImcK+6Bol0Uet+KpHX/4F2+/9ENXHOqa0TMhnolJmtxNe8FLD/iEWTvpA56iAyIgAiKwSgQkRlcJtB4jAiIgAkslwLRMXBKFMSPwhDFFCTnzu0kjycq8w2Sg6WQ4ueOP/uIfvvjVfUjUnGylNvZe1LONLtSbC/cstUI6XwREQARWgIDE6ApA1S1FQAREYBkIELmUBmHCtKFhaMGmZbcbM2ZfZlFC0qc4C9JuPHnHvu5P/Owr7znApPaWa5Ri4/uh25zNIVUfGPQTNYHrdmslAiIgAsMlIDE6XP56ugiIgAgsToBsTkWVloFNZ88cTeYNGqUWpVRFLlgpCohpiifiiW1795ePetzzZ8ogd+rSHcWQmrHBDrI+kffJrvPaE8Ophdmzg0VFBERABIZPQGJ0+H2gGoiACIjAogTI1EQ4PYfwAfUzh7K2M/EMZeZ6tGaY5EjVdMPhI8Eb3/yhrAjygPlBkzy3NPgE47c7baYZ5SKSkvbyPvUfJTHaR6ENERCBYRKQGB0mfT1bBERABB6YAFqzrCKb59Mik5jR3pQoQ/CYQPMwDsLGRNDNkJjpxGSweefb3vOBK66+lY9ZGcZJA9MoUfWtZisn6snG7i3EfoEefeCH64gIiIAIrBYBidHVIq3niIAIiMBSCDjhWA+mW75RG2T3tkz0aFUhQ8sMMyh723nR2Ljljn2H3/S2f7z2piNIVmZmItsT4/McTeJk3ouea9jDML9drCICIiACwyYw7x017Oro+SIgAiIgAjUBRGcWhHktGcOcba9HyfQUxZhNu2lKpJLNQ59jNp2Y/vePXvW+/7ziPjLhh0FekHs0DU1xel9Ru6ndavZT/Rj9EQEREIHhEpAYHS5/PV0EREAEFicwz2yJ9uyfR3p7PENjZGi3gzyNEuKcoiJqpRt2/farfv8L192TlUHCzEyEOzHU76yqvOtnlag5ojrbaP+O2hABERCB4RGQGB0eez1ZBERABI5BgPD5Mg1Ll9QpRFdGLpFoRAxTQlh9liNJsYDGaVKQYrRIgnCqTDdHJ5/7B3/8pjvuypm1ySeEcvMxMcl9hTDtDfTbU+eJ3WNURIdEQAREYEUJSIyuKF7dXATGhABWN7/U9V1j3oTeCjh+rzuLoO99g3AhdV6k1paKMXgG4Rmrj+M8J4A+DqIUR9GiYqLQkz724cvf8Z73ZwhPk6BkHTX7aE+GcvmshbV3b/0VAREQgWESGL+38zBp6dkisCYI9JMEea1jOdJtKcKqNLMbQTFmk0P7YFvridQV2lhhns4eSLAPI9Wm4dyCSbDXKHt6VJEAyZZRjDS3aHrn5Gn1p2cqApnM55P+cV1EwlEOIEWZd8nmYCrCLAuDzec85n+/5g1fuP6enEimnLF8YplQpJxrw/N2AwioiIAIiMDIEJAYHZmuUEVEYLUIMJ+Pe5T73x+JY9Y3FI6pMZMsSDVOwOzGfOhOAHkZtCLrusn+RXQ866UxIk08Yi2K5gxJM7o9YB0sXZT60m479LNpgi/0FBslk9cHZRJbTBM+okeyOD39/P/37n89QrR9w2UkRY9bn7q22qr0lw+9IaqACIiACEDAvJFUREAE1g0BE3yVy/zDHzfsizIxr0I/IBxWMa6FBb6ISBYsaH7vitM5Hhnqz1lKVcIyKgsuK0O02myhtf2Wu72DZsKlP2X2xqu35TUoa19mlWUZE8zEpEtRc/rv/+k/LnniY7/7Ox4ziVmUbq0ybKT0KyP6VNT1L6qU7PkqIiACIjBkAuPx5h0yJD1eBNYKAbQLTUGD2MJIfM9EahKFT1gJTZc6E5ofo1+lhns5eDzrpVao/4rj5n6Zdwd7KMLbL/OOjfJHuslrUNa+H/OsbDanMpfSqUobnWDyQx+/+q59Famh6PWI+eytu0k9anOLWql733/QWgREQASGRkCW0aGh14NFYPUJlOgQp0js0XhSWjS2MxqaE6KLdrGUPzaOa6eZHsUTcUVLXyyuwFOYvAhnUJrCHJnzvCRxP7D9vtg258FiXIpXn309avUnz2gQdrtdNsmGH8fNdGLbP176sec942knbz+7Zb8vaB7/AYL2sl0r0nFpsuopAiKwhgms5L8EaxibmiYCY0rAFIkrFsSDeuEjL4HIYlxsRN5Cl1z8NcLU9rtTvWpZiTW357ZLWnztj2vto384tfZGcBc5C6gL/3F6tNdGjrkIoeO68fBPwrF3dmieBpoXrBU2iK+nvajwPJ7I46n3/9fl9x0kyt7MoeZ4YcV9B0ofEeV2aCUCIiACQyUgMTpU/Hq4CKwuAYvkMTlWJ6xEjFLYaSP2NmifhEGDwxWuhCF5K/E+9JJ0dNZLUK7E9ERRZgveB65VSG2md6elOMbGmA/JHlAvY2YnpKu8ALXuI87M/8bARxadyZRMqFI0fpRUjYm3v/ld1958oJO7BhLc5JS5mYspsDRr+CLFHdZKBERABFaJgMToKoHWY0RgFAhYqHxRaxCXfjKvijysijSJYl4GBQY3N/kkSZ5cWeE6UxPKUtdLqJRvBXE7qOqoYkoiU9WDsfU9Q/ES7jkKp6I+vQBFSNJG1tTKiUq60Nm8sYPGUWNyQ3PX2a/67T843A26zuGCthOyVL/3x7Txo9ABqoMIiMCyEpDP6LLi1M1EYLQJmM0ziYsIzZlHSaPKUWd5VTJKT1gL8iZFprhwmBKDGzLRDXAvVSyu3PkObj28vjhok2UMVScJmixJkoBm0pCKfJxlXuJJSVC5G8R2Yq4ynwQb13b6jVSetcVw8VuP0l5rZq/0VSkbZLfH2OkC0cj31GVi+7gxffXHP/XZL3zjGU8+LQqYq2kmZhpRDOSmz+0W/vLezezv4M0H92tbBERABFaIgMToCoHVbUVgFAkkDFpn3TApSZReWn70sEGMdZGxWHXL3NK/D0a3mB3NDozM2iSyq8ycFVrTRKeTVuYembXRWFWnyyA2ipMAcgJ40gTRibxm+JoxbrwokW0xsjXLCOsqkzTlqDV9nAvCmuqjJk2sVvzOqNJ0MjnlrNf/6f/99if/fpHlEynvfFJ70cmQcWZS114vQL0wXShPxxmJ6i4CIjAGBCRGx6CTVEURWC4CJtrcfD1m9AyjRhR2D91XHN4X3LPXJfwhQ7oJutnHuXHt2Y/Lv7WIsjyRh1BnpCTyyklSmhBt2sTs7cHGDY3pjXGVYCGMSvOpxAbMqLbNu4Q27Waki4+wFadJnpscr3MLnEgNRuIal+UJtwsmC0WcRwU/OIJgctO2T3z4si/fePgx504XZRvjcBDx5sdHmDo76+hI1F2VEAERWL8EJEbXb9+r5euNANqDkeusKMoij+IwKoPu0cOPveiCl37f83ZumXDRPNgMoWICsRaklbOMIkkZAV6J9ZL7YHZ4evBSjHlFUdi4PAnfsyx1Zs5rvvSlw0V+w9e/8fHLrrj/5ts5EOzYmW7clKQNJHlVJI10otvOgIKngjV4cavr4HNGfRtB7sKZLCgNL2AzD6O+GZffcfp7P/DRC37h+dNMYU9TqxLxjTHYtcd8FbxllI8yi456H6t+IrAWCUiMrsVeVZtEYFECVZR1CxvOJs7aJpAMojI7dceGb3vSmadvDxLzNXSGMhdw7y1mzmfUxnVNq63EetF6HmPn4lq0NokWFkduM7WzQSuf/W1PI2gHCV0EP851195w/5Wf+dxnPnftTV+/+7ob9xzpxmUznJiYtlF6zkrxT8BxlkH+MTYW9qWkqUsG6fFHCCuSrDamt378U5//kZc847yTJ+KiiInkSrwDxjFY65AIiIAIrBIBidFVAq3HiMAoEEjjNM8RJyhSs4yyHZbtqKgsjRNuldjTzJmQmuYmPSn2gQCgFROjy3dn7hTzPmO4Pq8S7L7k2rRJMPPYbIHmPXnReVsuOu/pL3vx079xR/Hpz1535We/+sGPffKuu25pbt/BmWGcRlGMGnXNHssVVacHCa+3CCZ60qydiFHitqIgnfjcl2+84jNfOvP5j8evFOM4IpW4tTiMB50yfLO5ri9qxxKEKi0CIjBuBCRGx63HVF8ReCgESKuJTkGzMBZvnoVsYvNEu8T8oVgiSlaoEafKkKb2YWWsojxhue7MgHRe5CZBaVBiLgWEKqGi4yDG7kn21JQDjODnwZYkmDotPv/MRzztkke88LlP/Ognr/7Lt/x9EE0m8ba8SpGkY6xG6UgLQaMbidiyHxzO4QJJGuSkVg0b1910x4GZoDkR4CYLe8i4rrUW99WnKVgVERABEVhdAmYDUREBEVgXBJAfFcP0qFDLRkn295hQevtr+sMGqWeLM4i6QXs75ITqSK9xh40TaogkLdwcp6bFnI03Ye21dVml5PIPEKYBWuy0k4Jv+5bTfvYnvvuD733ri571LZ1rr97cKJKKDANzZkDF0uoXc2KYUzyiObuG/sFyBWDr5KcE7SS7v9lJidHCayFOJzZe/qkv3XDzfZ0CjUqXS3QOvbtUAREQgZqALKP6KojAOiLAuLXZwyyYHA1aFKS495s2GI+N1AkUt2K2SIqN2o+HaLFaWtSOJdFEPteVrmW2SVBvJUSXkkLVIIQE2IfhyRvC3Q/f+Oj/84onP+K8X/qlV4W7zos27KjiiSpuMN7PRbEpWRvyhporcHFGV5vN3t3X3dgfW7V1XZdFnkceK/MGppg/hllHG+T8T6OkzIurPvOlm2+/7zEXbG1x2MboMSDDzIq7QisREAERGA4B9w/OcB6tp4qACKwqARQM2Y1YejZOcyj0NUDB1arESxOTJyZEx72YGPPF+cKaqdR8ZXFKoIE5kU4tmk0CqDT4qZc9/UtfuPz7nvvU4Mg9KfmP8i4E8F5wgEz7udmb+Gs7vHYbUQXXE+JWfX5zOAdQOERJM0inr/jU5/fdl2eYSuFA/tUBJa0Bev9N0VoERGD1CfTe1Kv/ZD1RBERgZAggYNyCIHGFT24ct/44zn9qxggz10b+8tZj02lNtkoMhOhuRvDPPC193ate/tu/9hPJzL1pPtMwu2KCDTWzDKYMItkETWYOdYX4H6fknFit943An0E7tolRc71AeFs+1aqc2rT1Ix+7/NCRjoukt4mp7DeIK9bfKiIgAiIwJAIaph8SeD1WBIZBYFBz+G2/Rrc4O9+Asc/tMQPiWiuoLsuQTx7OmNxWbmAfRYm2bCTBqVuDn/rhp+7cdtJPvuznWmdflDSno0YrR41W3sRqgepOwFleUjwdvI15hAihKU2DWupQHBach4FT3mFEK8Iq/vp1N9x5175zT5+aNEu4sjuNUNepKiKwngnIMrqee19tX+8EBrXpmmeBrO4vCWlFMQoyil26fKscYm7QIGiFwcY4eMnzLvyrv/nD9vVXJ/mRspMxfT0CdMAEan4OSNqRU6J0oYlR53Nhm1g+a3snUfaW4j5Moo1bP3bZp7tdmxCU4t0w+l2/rr4P/VZrQwREYOgEJEaH3gWqgAisNoG1aO9cGkOSCZBWFQ7YB21Kepul3obgmZmIEK/JKnjJ8y9++z+8+ch1V6VlwR5/d4urn9WgI/fyNHHcN3GTyslV2/sVhDE2YLRo2mxuePu7/plppwqbq2nkmrC0XtTZIiACa4WAXkZrpSfVDhEQgWMRQEb6xU6KQuagsvT4iFFCefALxb2SNFfYC2NUXJFtaAQvetYFb3/3m4uDe9KyQ/J8P0BfWQyUeVs691G3fayHDuPYgPcn4UuuBvaeL4haQqGmrb233L1nL3lHe1bTYdRRzxQBERCBQQISo4M0tC0CIrA+CLjgelJy2sC0KTZ0KrMS5WSDz8siiUqcLiei4JlPveCVv/hj+eG74qBj+aBgY0Pfo/3a7IlRX0vvGEomqyhNs4IGNoKJrVd+6ou0hZimwc7WGP0gDW2LgAisJoHRfquuJgk9SwTWDYF5smPex7WLYdYy6sO1aCnxS6xtwJr8o4zCozjDmCSjjN0TZb91KvjB7/m2Zz710fnR+xjBZxgcyyjyjij7oLaVcs8RK3XMGb4H1jSb4JSUsi5WiVZ283Ji66kf/uinLKuTeR3Q+bUk9aP29rm3Z8QapuqIgAisWQISo2u2a9UwERCBpRJgyB5HUotIj2NcSZmr6fSdwWt+9SfzW69Nw05Qdi0GPYyLLEssPdKcuZqW+qxlP79O62R62u7ttKa94S3cymZiwishTxpp0tx46bvfixg1jVor12Wvi24oAiIgAksgIDG6BFg6VQREYMwIYPXzy7x69+PqEWp+cRk3EZhMZG8yjhNiW+Na+qjzpn/6N366vfeWCVLh5ZnlJY3jvOjaNKq9WQPm3X5YH50KXfhwpoElN5WZPrPSXEeDuHnXPUFeYRmt9ahU6UJq2iMCIrBqBCRGVw21HiQCIjBcAg/8urMRbadPCWNydTQF67aasaV8es2v/tAF5+/uHLxnuhl3Dx9KYuSoC8MfboMWe3pdf6KyLD2AD6YnKisu8zyJzBYaN5pYSr/41a+hqinzBuVNnMpcuhhY7RMBEVg5Ag/8dl65Z+rOIiACIjAcAnPeeD2zaYgnaBXgBmqD8PiNoj4pRVnkJEBCpVbBdCP4nVf+XH5obzFzf6tJGqiwYOb3eM7d3EVDXpmt1i2uHoPVK+Mk6Xa7YZx0i26wc/utt92Bk8E871DJ0CH3nx4vAuuVwODbar0yULtFQATWPIEFIfAo0dnihupNklZVURGoVKJHUyLP44hhejxH0yD4pkee+8Mvfn7n0L6QhPHsjbArzrnH7N2GtEW1I0sL4Iq1lwmibI4oFhxGiyLDXTTP8zgNkkZ87fU31FrcCdJ59tEhtUCPFQERWKcEJEbXacer2SKwngn0VaQF2KPV/OIi6sn3ZGSyPOgyfyaaM0fhMV/Tri3JMy/5lvzgPiKbOp2ON4v27zM6MOuB+TlKuayKbqPRIJeTic6Epdx/4JAz+86puCTpHBz6IAIisFoEJEZXi7SeIwKjQcC7Qrq6ePfCRarlD6yTt0NfvQGixIbIxEUFOeFxCyW1qGV9qoICQylMLnrE2c973jO7M/ubTGOPK2mIwXTkIFno1YJCktFup4PnaBTHR2dmSGh1z/2H7ry7s+BEcyGVJF2IRXtEQARWlMDIvUlXtLW6uQiscwJ9Jdoz6fEGMOPgHCy9Y3N2jukHlFl/MeFYL/199pngcpOWOI0yHI9hlFnrnfMox2yaIsRomlclqZzOOWvySU+8sDuzLy86QcFhE6ODfpbDlXFUFfHsx+UtzN8i/Uvy90fMF1VVYRIXQUFK/7TZIJHqwaPVoaPstRbQ4WzYpKiktTI0/KciAiIgAqtHgPepigiIwPog0MtDZILjwUx660SP+GaydhtOlPe0uNNntU5HcaLncB49/+xTTz1lR0rQPaflc0X8CHyJXM/262FuBr6ETo+aJMXnAN0ZpffuO3j7nnv6p2pDBERABIZIQGJ0iPD1aBEQgdEj0FOm5jDaqx0biQm54NEXPvy8005LmVezJF+nMyr2zhnlvyZDLZF/zJqM/Xw8fPjwzMzMKNdZdRMBEVg/BPov2/XTZLVUBERABBYlMP996PUoe8OqRHgS/LNzW3z+GacXR482zLbcMzwuerNh7VyQN4CK4HdAIabeNuOU0m639+8/MKw66rkiIAIiMEhg/st38Ji2RUAERGBdEXDqEpG54MVo3pWW7wm/0kc/7Pz2/fsZsmd+zfnutiMIy/lmOBlK5SI2fMFEajMyqYiACIjACBDQy2gEOkFVEAERGBkCs9ZOt+UG7cvQBuWJ6zGfzEecf2555FBVZiM/SD/7eve6E9MuG+R4wjo6c7Szb9/9I0NdFREBEVjXBGbfVusagxovAiIgAkaAV2LvrehimmoqJkQJNy8wJp5+1tag6pBDPsFndNSgLbTpuhpiDfU+o3zKnM8oHqQM1o9a9VUfERCB9Umg99pdn61Xq0VABERgLoE5+rL/ARFKBtKqyopg6058SEs/W9PcS0fm0wJJatlSXcFrFI+DJMblFT/YfvNGpuaqiAiIwLokIDG6LrtdjRYBEViMwBx1NvDBpsyMExRpnAR5HGx92NlFxdz1hb+HDeAj7lxZ7K7D34dllEogRwmop/AxSRIC6tu9tPehJRd1rfBJroZfZdVABERgHRGQGF1Hna2mioAIHC8BhuXrGTXrZKIVes4JtnYZ7D7rtC7ZneYGACH1jvfmq3TebBpUquoVs1OlvPYtM9X+/QePHiUGqy5MPVWNZn6AXg31VwREYK0SkBhdqz2rdomACCydQE+B+itRc35HGCU2SG9+o0ESBXvv3zfv1l7qzds5/I9uEiZC/vtCGUnttwlj6na7eZ57g6hNgopxV2bR4feZaiAC65EAiUpUREAEREAEFiHQ/7GOgIuiBGspA/PIU8a4Y4KXcM1k5fLJL3Lx0Hb1az1bAxfAhCHXXvimmyvmqLcE+LbtSn+DT2huqVKPRWsREIHVIbDIa2t1HqyniIAIiMDIEUCbeXnGPO0DlUNxFkVhrpZuFvuosEF7k2w9MTdw7nA3F3+l94fp/QYNyW0u03rsnhp79YkMtWXk/A2Gi1RPFwERWHECsoyuOGI9QAREYEwJoEexg4Ym2tBopSW+d2J0MmkkRDKFcVXPXT8G7TON6cboSUhFexign5qaajYbqE9fe457bT16CnsM8KqKIiACD4XA4j+jH8odda0IiIAIjCmBWpf52g98wKOSYXpUHOKT5Jxfu/JTJHfyFkSkm+k8p+RGVsZRPdrkK2kZnaoQ4+iWLVsmJpwhtGcKNVPvHIvwmHajqi0CIjBmBGQZHbMOU3VFQARWjkA9NN8bqSf0x21a0A9elgi6lLlCTdeRqTPlb33+3Ap5zTd33+p+clOADj4SJW0607mJVoFLS5W1m800iYnJMoOoaVDXmHqYnh0qIiACIrBaBCRGV4u0niMCIjD6BExoukk/EZohaY9qwYlVFK9R1ByW0a9dzymtnKTxQT44i723PnJsiPZR/AhcC6wV1A+vUGygVkk3AVMZFExhWhZ5HBZBGmZFl1MIwjIditr2AtScZaVEDaCKCIjAqhHQMP2qodaDREAExojAYNLNiCk0kZjITdTbdTd+Pdi0hWimAFvpSMo2J0Nr1FTYKhlZonuqXxRd2lFWeZQySb0ZI4Yoncfo26CqioAIrCgBidEVxaubi4AIjBUB7Ii1YZB3I6KOhY0oTZsZM4FiLI2Cr9zwtSBNwpgx/NmM8SPTSOpvGUMXFNPW6M4wsqROcRAyRD/RYlLQ2eItu9Kms0S0JQIisFoEJEZXi7SeIwIiMD4EnMXTZCiLDXcTRB+nJBlFfl5/y63J1JQ5k86dgWmUG+dkqMUqMShfZBkj9WFVuICsRWotPboIFO0SARFYSQLyGV1Jurq3CIjAWBHADmoy1MvPMOrbGM1gGgWdKvjKjXuv/fqt6eR0l9OQqeaiOQY/6UmSav3Qi5on4f22zZt37thqO1VEQAREYNgExuA1OmxEer4IiMB6IeAMoozPzx/sxgbaLcz58nNfvuHmb+zJqsiSjuaENI1H8cZOy0xVkpIqKLrZhqnmpumpwdrLIDpIQ9siIAKrSUBidDVp61kiIAIjT8DMotgR5whNItKJpN9/OPjq9bcdnQmrEG9LcuGPxftzfiVtyD4ot2zesH3b5n6ok5ToyH8vVUERWMsE5r+n1nJb1TYREAERODYBP0DfO4f3o39FMncmQ/Zfu2nvxy+7JpnYEIYEAaWhBQWN0yuUWHrL2l+VjTDePD2xc3tr0SROPpKpx0B/RUAERGDFCYzTm3TFYegBIiAC65kASpQF90rnK0oepD6MMgoPt4Orr7np2uvuSJNJplsqcxJzzolG7588Qhu9yHqSi2LGJZ0TQrMZJe2ZIxsnm1OTLl+AWUprdwPJ0BHqO1VFBNYTAYnR9dTbaqsIiMCDEohIfGSpOJ1GK4sy89bSa2/Y9/o/+uuJ6ZPKKkamxkEcsRq94kbeyW1fGz3rgfgkIfyfbeZgKrM8yLNzzjwtHReP19GDrBqJgAgsLwGJ0eXlqbuJgAiMOQFCzlFpyLkqzJGkEbMVBQe7wYf/+5r775sJ01YUWbr4sgjyfATzjC4Kv37PF4Wl7sfDIJ85esbpp1gr3el9g2jfRLroXbRTBERABFaIgMToCoHVbUVABMaQAALN7IXMQE/eJlLEx0WQZEHwha8c/LO/eme6eXvYbORV2e52khRR6vJAjXor3Use34PcvA6qEo+DKjh08LyzziKxH+PzXon29eiot0b1EwERWIsEJEbXYq+qTSIgAidAABnKkLyb9jMr8pwUSEGAEiWl6P/6vT9v583mhg1HOjNlWKZpjJWRSTVP4CEregn5pmzyzwUlJMF9HKRpypG8S5vCC87fxdt/8Fyp0gXYtEMERGCVCEiMrhJoPUYERGAMCDiB5hI5MVeRiVFimd79z1d/8j8va23YYoPcjYTApbxiAL8bzSbFH7WW9bP11xUjjp6tLMtMcZbl7vPO2zRtkVoqIiACIjAKBDQD0yj0guogAiKwqgQeaFTafEQZog9jhChG0k4RXPHp2//X7/75hvMu7FRVVpZBkjKGT5A6lka7SYXsG6Gf9D5cyUdczQOKUwHqE4fRbvfIC1/8AmzASVyP0fsz+0zkOToPnT6KgAisNIEReo2udFN1fxFY7wSw6eEI6RZn8oMH8mrBS6AeuyX8er6BbfwAossWlWbWElrnl36zTIliLkSWIdW6VXD7XTNv+7v3H55plNFERWLRKKkIszeLIiusjMWiY+L92w11A59XqknnMuUSnRwVedVIkohp6fd8/Tue9iT2SX0OtYP0cBEQgVkCsozOstCWCKxtAojMuDTpmTv9afNCIlfMy9DGm3uazeszdg/6E64cmAVSeBkfRZN6rbK7ugYxSu232aCN7ENfhog2l2vTcjbFOIlafs69+4O/fMv7/r9LL5vcfkYWNp1IxUmUmUL5z6LsHb5lrO7y3Mo61De2TKip/0VBXa1fszAuOuQGePQFG9I4KLJ2GDWwmJr4dsXXgE12Lk9tdBcREAEROA4CeuMcBySdIgJrhQCqyy11e5AqlGqhcXTV2uvF4vGvH3LFmMTT38Or7RxLIaFKTpOaWo1taL4Mw/tngjf86bv+9l2XTm0/tUonyjByIs+i7J25EcXnNx5yhVbiBtatTnP3G0tGJxf7X2XZc170nFbD2uqG4/1ps5XQGP0sC22JgAisFgFZRleLtJ4jAqNAoJ6SxwSZjePOjtpb5UyS9eSLS2+0CjWeL4aW85EmuPz95vzq7utRlKhlOiJBU0gy0RKHUSakL2KLoP/5X3njpf9xxcaTTj+aE67ULbGX+hKiQQ0TYtThWs76Lse9XPVMidZNdh1alnmWpo2o7LT373vWM17aSIOiDNIkxijMQxGgWEP7MrS/sRz10T1EQARE4MEJSIw+OCOdIQJrhoAzQWLk80oFDcKGbfOfjTrXY/PuqJdctZhbOQA8ywa+rRzPeskVYf54f2Ov0npPcbLbbIUWNB92kWaUOJgJgpvvKH7qp1792c/ftGn7aTNZxFg3My5RSQfNkTEvTDMw2yW9+TZte2SKgaTKtXHUuRSkUZl1m2HVKdpPeuLFU003eZQ1oe7geXp0ZJqiioiACKwLAhKj66Kb1UgR8ARMUfl07lUcVgnbKFP0iPN/9Aqmh8rUjCu1XOl9XP6/XuEd7329uDyetVdjrvpzHsG1ZYVFlCeGFsBlMjUitPxQHlz2+dv/8I3v/Oqt+yZPOiOLm2GaFGUXoersi+4mdfgX2/17rqRx93ip1Od5O6jrTVerKnJOwi4kq8y7Mwdf8PxnTraIovdCFU1trcAsaiyc1+wSH6jTRUAERGAZCEiMLgNE3UIExoKAibDaktcbdLZ6mxAxp8l60xnLbJ8rPhqm92nc/qK0FlGKtBUlmuUZeZpQ40TNYye8877yg//9mVf/wd8c6CRBY1MUN8ogLso8THC2jHNL9DRYuG1fjA7uH4VtfmBQDWu4625n+y2riTQ+cuddT3niy07eGhPZlHc7ZMLvGUZHodqqgwiIwPolIDG6fvteLV93BFCiyBTWXnqaXmGbAegcB0Izlrn9pmIYvq6H8kcLUl1xzJNsPdjaNYdXnGumtcPJRz4RYV4WcZLmDNCTCj4MPvv5ve/6+w/846UfCaZOKpMJgn26RUHkOUHlGSP4mE+Zv8iKsTGAWJdDIusXF7t2zpAKPyq8kRsvgsp+ePTkJklS24d3nbr9gnN3TTRsjD5uNG2GqXkae0jV1mNFQATWOQGJ0XX+BVDz1xcBJ1BoshNVbu230CR+o4/DCZn+p5HY6CtRq41XUcdeL1prf5c47aDFwuBrtx59x7vf/28fumLvPe1gYkceT1dJsww6QRKQdDTrolfjKG2UBUFNlIWQFn3G8HY6T1Y/TO8aarqZauOQEZSdJz/xUeectRMlWhZVZDn7ewbxgeil4VVdTxYBEVi/BCRG12/fq+XrjoC5CIbmI1rZ3Dtk+8kysmcyZJ0isnA3xF6YRvUIfq385suvZWe29MHuXs0etCrOFdLkI5ZNZh5iYyar0kY4kwWHO5ZG9DWv/ZMPvPvS6JSzo8kN8dRWMjyVzKtkdlBEbljlYRg14VPlRWhWxp4Sxdd2hIsPRYrjCL/YMsuiibjKijDLgvaRS55w0Vm7WwkW5SAsqsLnEaAp8hYd4f5U1URgXRAY6bfquugBNVIEVpEACtRJNDQocrSIkqSsIsabcxMoNsWlpXY3IRYwIaYrozv/+jGwuYAcjqOyLBLewuSL4Eg7aHfDO27Zf/Otd73/Q//97r9828Q5F0+f/8QuGZ3iuIPWpMnWakSnz2iPUCa4CeW2UDH7PT15eoyqrO6hOI2KTo4SpRvzomhMNLtZJ6UBRfusM06++FHncsApbXPDYDLTupNXt5J6mgiIgAjMIyAxOg+IPorA2iWAe6gZQAmpjyMsY6iWNCHH+32HsmaaphyqSGTEfDwmVS17UR1ebeLMS7QVWC+BtpdOPlH/vMv60wix34afazUazRxtHzh0+OCR7NBM55bb7r7qs1/+yCc+fe9d9ze3ndx65LdWYbODOsckjADlvtZg31hrvmu1U2umZ/m4ULt5LPPqMsyPZZajnEtM3ExVGoXk8ydfQLOBlffoYx/5qIc/bLdpc9pk7raIUetoFREQAREYOgGJ0aF3gSogAqtIgCnJS5tTHTNgkiZR1PryDbf+5VvfM90kQqdrBlGnQs1oZkbUhfJreau6ZMsiitEsla5ix1jbdJ2muuKjR9u3fWPP7Xv23HLbXUTGtzbtiNLNk6fsbOd5ozHZztppkuRFzukIdDdAj1Jzs4PWDTUdagVt6jSc/zSy61qFo80jVGjGOomT7MiBzh03Pe2Sn51umE8GvzV6pl5T2CoiIAIiMHQCEqND7wJVQARWj0DETJc2E73ZDsswCZPJ2/ce/qcPXFGVXaJaOEaxMWoUnzMN+uHqFa7f8UpSbxldVIyisKl2X57W2xiBq7DRaCTxdLjxjGY6UZRVp2Q69kbaTLK8g6rN8i7upEUnY6w+aU6WhTMWmocoxdZOjXrR5tfeMusDg1ZarLtaLGXle5CfG6Y3o6QounFZTKZBJzv8Pd/1mNSUKN8Aa4il+YdXbfxeyjN0rgiIgAgsNwGJ0eUmqvuJwMgSYOAWneLiVoimLvIK+dlobiyTzGWAx/bHEL4ZFW2Uu0rM4dIN2a9kg45XiVIHN2T+gOu6km6A3iS1aUlTkp0g6nBtczoLojiNyWKfFVmzmTJ0HYe4zBZFXjYnp7sZk9T7TPj+TlSMpFdsI9289PRi1N2Yla+NP3eU1rTdNdzUOSbwJA7vv+223//D322mQdYNGiki1SK6SPXvfQ9Gqe6qiwiIwDolIDG6TjtezV6fBOI47TIqTTh9GoZpXOVVhjqNGygygDC4S+ZJVBbD4IgtNswMWJsJVwaY2V+XUB5cAbozEKFOj7pU9YRiZbSKIeswxx5YlWmjMdNtYx3GdTYKUxRop50njVZhZlE4eA1qtXJitGcrRcUP1DYKSM5KGa1XKM4ERbcbNGMLQMvyBE/gTpuh+h/+gWdXeYAetUYZHde5+GosDb9driICIiACy05gtN6ky9483VAERGCQAAIqSRJSGDnhhYtowritzRHq006aRCH3E3LFfC69ZdGsiytXHlxdzj7bRuFNRy1SkJ61u2TvoPuINnMp65OUWB0bvDZRSpojnCmtYCC0prKPBPhkuXJpr3o34FkotQHDrRflPT1aHzAr5JAFHUD6fURMUtxgdJ7fFFWctKru4SN33PJ7r/vNjZMBJlGPrx6Zp3lDrniftDZEQATWOwGJ0fX+DVD71xUBTH3mLGiSjrybjNea12BPt/U0DRrN3AlrqTJoDhwFVn3hNViZeUq0f4jK2/n4I/jmmJKlZSZLPQc+OwCFtxG6m9tc9bbfVnOL0501GX94hZWo/U6wzvB9Zutev5g3LwvFRt3JAmD1IfQK118mjmoERZUGUdaZOfXs7c946kUT2EQxE+ONgRuGXeQKW4s0sndUf0VABERgtQjop/FqkdZzRGAkCCBoWPr/4zuVU9v/+tvzjo5EvU+4Ej3R5hvu1wtv1j869xBac3AZPOj3D+5Z7m3nJLDYTQcUJErUndFvV5kkUZl3mXY+yI4Wd9/+Sz/z0lN3TfDLg1yjjOFLfS4GVPtEQASGTECW0SF3gB4vAqtNwEaW0SbHsV7tmul5Cwl4rek0pLfyokT7tk3SNzkxarO8OoWK00HWbSdpk8Si2dH9j3/KxY979PmbJ7ktR+hx8t+z7e4pd9GFsLVHBERgSAQkRocEXo8VgaEQQLVQjn+9wsPQQ2EwLg/FprvQONrb6aOsGJf3atXpUwvasoxOZAhoYAeNjvzQ9zzjogu3FV08hWk0h0yKDqrZcUGheoqACKxtAhKja7t/1ToRmEtA4nIujxH/5GaEQj46xwn6zpk/e2FVJkNn1arPZlVUcdRImIKpffCxF57x9Kdc1OLiGLfgkqz+vcaaJvXW1fp+vQP6KwIiIAJDIdB3DhvK0/VQERABERCB4yWAWbRXnBIlj6jFYlkhUIsksXGUhnlJOH37lht+5PtfcMbJLSykic8i689jPXuT/i5tiIAIiMAwCcgyOkz6erYIrDqBpf7+9KPAq15NPdAR8OrTZQSwUKrS+Vf0Ruo5w3oTOeomVbIJqMgREAd5dmT/jjN3ffd3PaERufF5S1/FhKezgfQ2tm85A0gy0DeXirgIiIAIDI2AxOjQ0OvBIjAMAl5cImKcHnnw9TDqqGfOIUBn1T8hXLfhLdr/heD2m+uFKc2EGKWiE5edo/vveM+H3zPdDMo8I6U/Y/G1SZULnZ+GG50nrRf3kRidw1ofREAEhkJAYnQo2PVQERgeAVMkLobpQdfDq6Oe3CNgctNpTyaL8hq0p0RxBSVWqUuCUcs5atbT8uhElB+899b//Tu/8IiHWTqnKDFv0bIs4jgm2aoLXuJyIpnsJn0X1N6z9FcEREAEhkPA/bAezqP1VBEQgVUn4AXNca5r9bPqldQDBwmYLbP/ou7pUTd5VJXZhFo2gxSTKVWWt6l9aO/3veDbX/S8p2xo1BqW2ZjwJOX3h3mX9hxMe7NG9W87+Dxti4AIiMBqE5BldLWJ63kiMEwCbpR2mBXQs5dCwOZbYtYkrJ5eW9rPA6dHsXS68HmmOUWJMh99g8noy/apOyd/6PuedfounEXL2BRqVCVshyVmUQuh50Y9eyjfBMXSL6UvdK4IiMDKEdAv45VjqzuLgAiIwDIQcPmbSGvvzaJ2Q3txZ+hQ8/gsi6yREjDfOXzHjS9+4Xc+7Snn2wB9mTHzK0FLcRAXeJnyF/WpsHqDpyICIjByBGQZHbkuUYVEYCUJLPX356wAWsla6d6LExiIVZprx0RZJmGQ51GzSYRSnh8pjtz//Je84BUv/25moc+zLDa7qGUpzfMiSWNvErUk+uZfatmdZBVdnLj2ioAIDIPAUv9lGkYd9UwREIFlI9Ab5/Wjvce1XrZn60YnTABV6sbq6xuYA6hFLkVlkRdlJ47zjRsbv/DzP75lCiUatNI0wWiaMzQfJha6xMT0LniJcCbf45KiJ9wTulAERGAFCMgyugJQdUsRGGUCjPaia45nPcqtWC91m2OZZrzeGTYjgpbcmDu2zyzmLZ51JqbCs840pdlKgyzPotgNyReWgxRUFTOE9kb5oyDn4iq0l79EKRBUREAEhk5AltGhd4EqIAKrSMArkuNc9+TLKtZPj3pgAnV32Evbhc87LRmFDMoz9dLeffv/4k0fuu3OMudwkqJCgzg1wcqWSdfSopnsVwgLRlb0KJZVFREQAREYCQKyjI5EN6gSIrBKBBAkKuNDIJzTX9Z3aElv2DYjaUFkEm6gjaIMq/SkP/6zdx4+0P7Fn3z+GduRq71s9g0mWsoxmRJfH8SE3DNSj0R1t+Iy51k6PjxUUxEQgbVJQP8yrc1+VatEQATWMgFv7ESrEjBPpHzUDJOpaOOuN7/jvZc8+0ev+vLBNmFMLJboHmFq3qUBp5Gd1Ib98SJFlHKp3v9r+TuitonAGBHQy2iMOktVFQEREAEjYCnsLUK+3vYbaWMi2bDz/nbz5b/02mu+1kaPYh+10zgRUcrU9mWCGdXlF3Uj9v4yrUVABERg2AQkRofdA3q+CIiACCydABZRLmKuT9bmQmqCMyzjNJ7eduMdh178o7/wlZuOzHBCaHlGA4tywoRK5BPTg5qWrR8ov9EahP6IgAgMk4DE6DDp69kiIAIicAIEUJ9ejHpZyTYbBcqU0KQobmzavue+7JWv/YsvXX+ow2A9w/HkxCfnEwUJG7npQ5GhUqIngF6XiIAIrAABidEVgKpbioAIiMBKEkB6+uJVqbePYvNsTk6WeU50/cS2kz925Vd/6/f/6os37Sf5E/6jmEWLCjMqQfSE5WMaLarKIu9VREAERGDoBCRGh94FqoAIiIAILI0AShQBikHUD9CzHducS1Hn6OGkkZR5d2amM7V990eu/NJLfvw3vnDDQcbryffEcD55R3PimlxgE0P1PU07/+/SaqOzRUAEROChEZAYfWj8dLUIiIAIrDoBdCeFx3pVan6gNgLPGHycd6tG2mpNTc0UZbLxpFv3HH7N7/3ljbfPMF7PHPVuMqYkChOLwXcJnla97nqgCIiACMwnIDE6n4g+i4AIiMCIE/CWTCrJBus4SWykviJ4vhVXjTwv291u0kwr5gXdeMrHP/Hl173hrQeO2gg9otVpWMvyhO+o6dfFyog3X9UTARFYYwQkRtdYh6o5IiAC64KA15CDTSX3aG5iM4kbadJIszwvMjLcNxubdr33HZe+5V0fuQ89agH4FsVk04ra3Ey9sPrBG2lbBERABFaXgMTo6vLW00RABERgBQigTSsCk5KgiMuM0CRTnQzkk+ieI83pcy7+vT96279/5IsWXE/m+7wgwr4sLSV+38i6ApXSLUVABETguAhIjB4XJp0kAiIgAiNFoC8iTYa6gvwMoiwICwSms3qGMb6h7A2jsjGRTm//pVe97qOX31SScjSO8yIvKiKZZBkdqV5VZURgnRKQGF2nHa9mi4AIrCUCSFJL2RR2g4ilCkqmoU8tSqmKsJjOZDOdEKG68U/e9PdfuPbejHOTJEnTtURAbREBERhfAhKj49t3qrkIiMD6JYD6pAyaNnEDZew9IG0Tue8Dsj7F7ECJllUVIT2brWRq22VXfPFv3/mv9x0OyICfcRrT1quIgAiIwLAJSIwOuwf0fBEQARF4yAQQpnaPLIhyXEUT0o7iDppXeRGVURoxYN/pdLMgmd5+5t/86bve/u5PWL77CLupk7T+2odcB91ABERABE6MgMToiXHTVSIwtgQYzFVZEwQwi3ot6VxGsYZGcZTGQRwWxCgxwRKHUZtBTsBSWSatKcKWCuYKffg3vfJXXn355+6cwbP0eA2jFg/lljUBTo0QAREYMQISoyPWIaqOCKwkARJNhpWlm+wvztEQX0NbvHYZXKNvwmpsFzf7er+lvY21MCU7wrO/MApPriY+UrwqtdH7gEh5AunpTMyfCUuek/SpkVVlEYfNM8/6vT9/656DQdf9MOl2u8zJxJKTMb8qsqxT390JUPxP+4v06Er+36l7i8D6JSAxun77Xi1fnwSiau7/9QMfvaKpdU2PjjeejeXammAKmzJnbTsGiwcyF8vg8THZRo/yI8MXQpjsB8ZsYebQlAj6OGl0yrIxtekTn/7iO/7hP9t5MNMN0rSBiiVtPp6lRVGks4FNc5j07j17U22JgAiIwLIQIMmHigiIwPohEPX1im8zhs85jcfKxmdvZ7MDi4m5hfJulPdYK0ybUWabNWcmzEExOijg3DVjtnL9W/epa4tJ0shmpS+dEs1mWulEUbWDcOpf/vUjT3rUhd/xrad32kGzydT2FUoU1W6D/7Otrr8evT1zvy2zp2lLBERABE6cgN4sJ85OV4rAuBLwYqUnQ+cJtQHFNq7tm623tXHRt9yg6PTbg3tmbzDGW/hX1LUvgyK35KNB0GhMFGWY58n0ph3X37jnH9/30W/sCZKW/eZAicYkJo0bRTWLovdlcBh7X5gxZqKqi4AIjCQBWUZHsltUKRFYGQKmLfzo7cDaZu7xVkPLSTnnwc5h1E0dyXVOmAx5bamLatut1fTEtusmzkqufpt72qu/Y8w2LLmTecqyntO6MI5xCsUbNEobhDE108lukU1u3PWOd//bd3zbJTu2nd0i7imKi5Kc+URB4Wa6oOEL9yw4RTtEQARE4MQILGozOLFb6SoREIHxI1A7U5p86SlRVJ5fXGuGrD4XKmBfq+Ncu+grEr875VqvvaxCgrMxu7b4rTkCbvz6ck6N3bsdW6Zru7U1rJJGgtWz0ZpEj3azsFs1J7fsfukPvvyOe4PcejwiNykxT2WVD34B5txVknQODn0QARFYHgISo8vDUXcRgbEh4EeuB9dOibrhbJOkyJd6cQY2k2ujs5j351KWEIXtFpPa7sL+x/4enCV7p41NJz5gRdHTdX95/wSvwgmuj4IwL7oIzU7WZRrQZGKqjBtVYzo5+Yzf/+O/RoySedQF4xdOs9t9+g+ZF9PW368NERABEVgWAhKjy4JRNxGBcSHg5KZV1v+/T9om22ZtKZ8WLKPXKi+STmBNU0xdefOnswfXBFwb19ibsK8ja8uoNb7KLQGULUxhjzDFPBrmSdqY3vrOv/m7G27LyQVVhTGmUZuzntP56NC4b0j/g9ullQiIgAgsK4E19gpeVja6mQisOQIWK20WwQAPQTODlSXT9fQzj/qEotjIWGK39HJzzuYlHa89ToCacjUdZmLUssGzeNkd5Bnb4LDx+ZyEnLUPPWDGtedpSc/ZwPra7KJWTIJaiDz9yBB8EUTo0RIPYT60MQvvOuttf/cvR3NykzKDKDgsgonFnW9/TJZyde/ObpdWIiACIrBsBCRGlw2lbiQCo08A5RkgOWwgt4hwEIwIs/Zx1qROt0yTZWnzRNbz+rgMP17QjNLaZFLPwHnsbdNPLv07aqpgm9F4Wk3xcjNOEhIa2WTuVWExO5b43WQoJ9gjxk6S1mLR69GenrSW0BxvAqd1zjJqktRPc1AmjYnm1NZ/fv+Hr7zqRoyjGbuR5bPFIsas2M0H7jl7grZEQARE4KESkBh9qAR1vQiMEYGy6jIMG0clg7boTsKmvQcmWtNGaG1JkGwIN8KqnXwzKcLRUVovxWfUxCoKNGYAGpOwifDS7bKpiUoUuV9IwolYM4Hu9Tc6tDfTJtePkSo1C6jXjr7XzNnXGcLdd7RnJ+3pUcRlyJB8mUWNu/fN/NuHL7/3IKc38Cj1Ufm1eZRr7UrjpiICIiACK0FAYnQlqOqeIjCiBFAqVWH2TzOOIuoYro9rM5hpjcqGb1Fvcxfbb+0Z/tpFVvW8Xa1KD7JN81ImwbQTTVDTeFsoAMD6ayIV+ekKlmEMpHamMwx74yigONlv+0MjvfYd5KtYGzL9B8/Ntm2w3beSNaPxNv9nlTYnmxu3v/+Dl3/5+tsxjgZh04N1KaLcNe42NR23rZUIiIAILCMBidFlhKlbicCoE0jTZhQlfkF8FZ3cTz0fmQ8pkgXrYOWtawNr70o6CutaS3lFdTxr8wol33uRmxwLoyROyF5EJ1nH7VTmAABAAElEQVQOo4ipL5mOHb+EsIqTApeFMLZJ3p27AmtOG8/xehrorZiszRbc+1Ja1gDnEWoOtL7fw9h4zHS6UWtyz94jV33+pgMzFrtkbHvS3C63m3Bbv/Tup78iIAIisEwElPR+mUDqNiIwDgS6XYbp68J0O1EUE9GSZ500SZ3xkDaYdsFmyklsOGOhqbdamfSNakPb05dWVqkHL06KobERYaYvC3NMcBE6ZvUz5WkNNWcF10KabC1kFyfXmHrbD/6sYZ9B7Z2x27rQaVAaZSLSNcnUJ9uuL10f98yoJSkUGs121pnYtPONf/WOFz77qRtOYR4mf5n9PrFoJ+NUW9CH3Uo9XwREYA0SkBhdg52qJonAAxHwdkEbkQ6CxIRJnrXbzEmeHT4Y4UtqCg3vSYSIm8He9KhJ0rEtNvbulCWmQItdwjwaJWkVJGHcyNsdpr7ER9Y8F7KcAyjWoshNocexuTLYTO0m5PzHMYHgBSiVRT6aEnXVRk36/T6Mib2gMFlukjsOi7zL6VU6te+mm//zw5f9zMueiv607wKtNwMpzsOc6sWoAVlYgLxwp/aIgAiIwHESkBg9TlA6TQTWAgF0VU74vA1TIy+KNCi2bm5dcM5pG1rYwjKUKFl9nGApaxubdywd06bjc+CmWQ9pRRmjrw4ePtqeyQ7NtI8c7dx2591ZOwuak43mBlRpmkx08zJM07zM8sLEOu4MaCwUKU62tdiqrYk9hTfSWHrq0Aj0FSoWU2uZq7iXlRHpFOJWE3eFogrTXWe88rf/4Hte8NTTtgQN51zK6UC05qPn3cUj3WhVTgREYDwJSIyOZ7+p1iJwQgSwgREw72KlCeLJj84c/K5LnvQ7v/HSkzdbOh9EirdwsUbCULxsOaFHDf8imuAFF4oKEyeq7ODB4MiR9oFDB+87eOjm276x/1D763fcc82Xbrzqqq+UzY1xc2NWNeNmikNplnfQXiSGtywDlgqqSJIGii2okoCwJ6KayDZQuFH/xRq6uP1wsTOXcR8PdQbtOnze1GOd0ck6EyXp+9R7YvjnYg1PbNr6yJw14kZranN2W/GRT37th597vhlCsQyXnMEPE642il6Um8ODK7VG9x+0FgEREIETJSAxeqLkdJ0IjCGBvpgwaxfSk1Hs/GiUl60gShEeZOJEc7i1E6wmQMa6MJMQ9WeIGWWGE8LUxiDc1Mormrvj259wTrsM9h3M79hzaM/egx/6r8vf9+8f2bfvaLptJ3bRRtok4wAj9n5qd67GXoo4Jz8+oU8M4RPlg5nZJzEdHUS1SOz5g87rvjkSmV52p7HO8SRuNsiy2qaJu895/R+/6cXP/VPITYCsiktz6mDeejILmDft6DRWNREBEVgzBCRG10xXqiEi8OAEnIELYeGG4p026WUvwqfS9nMLnAWdCc1kB/+Nr3GUVvj87bTCWmbpnFCmQYIEd6PPU1EysTk5aeOWxzx8yzc/8tSf+JHnffSyz//xG9+6b3833rKLbPAzhOE3EkuCVaV4NlQk5Sw6RdVN0maRIeYsW+lYFxqFE0KcpOYdi49pFUxv2HTzVZd/5fp93/ywbYhQs5eTd5YxfPO3ndNaCdOx7npVXgRGisD4/kMzUhhVGREYDwL9AVZ0R19MzMuj6cZkEaomtMb6BWH6E2cEhuedaESJuoWpp9hgLswyCfKozFphOREEp26LL37Yxp/5oad+/mPvePXP/9jMzdfkh++aCPMw7+JtasHlSDPMpGkapnFRWHpOZ1wej35fvJZuSio0aJIyTJ+55lWdbh7t3H3lJ6+muWYLhpR5GPvUA9ZoCt+c/pdn8TtrrwiIgAgshcBY/1uzlIbqXBEQAUcAMYESpfCpLynQnQg1FIdfvGzzwOzQeC7U3zIDmNcBhr28CjNbnCNlUDIC3QjKJAlT5wQaxEXVKINNreDkTcFrfuVZX7v5Y9/73Is3pPuT9uGkmyVZ0QCQQeOdaYmfmEoUo7JHNKZrGmMNiCJL+EWKVQtVYl84Mb3l45ddfaht2ZwI5bLvCjbhomtfERUREAERWAECEqMrAFW3FIFRJYD6NCdIM2xZ4p9FxRTKAwGC8nLLqLbkOOrlNLS1wp1rhl5aboqKiaaccyxHsHeysC/B/5MZ24sCKyEmwVO3B3/0up/7i9f/5iXfdHZ5eO9E0E2KnAF787TMsnRygpHr2E4d78KssOaD4OKxzPhJ3oEETZ7c8o27P/+FW3ESxSZsR0NLd9Utu+PdWtVeBERgVAmM/ct0VMGqXiIwigS8LkNzuLic2RryIuhbvUySUEyh9ffNnjleWz1Dr4lQ2m7Np+18SJzWptmJbZPXCFnGUDz+pGykScyRDWnwrEse9iev+5mXPPfx+792zWRRMGUTOjVuTJCc1YK/Soa2x7sYk6pKEpuMyht6bZrYtPmNPQe/9JWvm2utASO3QEbqgMRPrDreLVbtRUAERpGAAphGsVdUJxFYKQI2Dst/mESd4HSPQY70tSjbWA5NtLFGi7itlarMyt/XuR44weWmYuKB5kJqrY1ywuH9j3FcQomad2Zim44oYvydXEekGTUJe87uyd97zSu2bjzpT97w5qmHPTqJm5xSEJ5PPFOeY0lc+Uas4BPMLErOK3OKrYOxGJovyzTrJjfduvfue4NdW4KWmwUAe3o53i7EK4hRtxYBEXiIBCRGHyJAXS4CY0UAcyeFmBRToLXSZNN/YKcddqf0W2UWxbEulhLUSS3XLstW5ERV2msmoUwoUfeJYfjI1GplMjUqid9hsqZo+5bo1371e7bt2vCaX/8/k+delFWtOG6RczSKmj0/S5P2BtFrfFLlj4k7KTX2GKz+tlnmWIjxY0inP//FG26/895Tt2/nHMzFeN32hXe/pWP9vVDlRUAERofAeP+sHx2OqokIjB0B01tjV+mlVtiUlFto62z2zTm+sqbCOGQLSpXf5+ZE6SQauYzQaGjTYtN08DM/9cw3/92fhdm+qn2AmavSuGFnehHLE7jECX0Gu90cV0ut6DDOr63Fc2hQD3g0JjZc9cnP3XXvAZRpN0N2W+l53w6jqnqmCIjAmiaw9v8xWtPdp8aJwNIIoLGc9ppzle3BdsgxF3zuBvBRVm4fK79zHNdW+Z7pz7fY9KgtxqG/ICNtITE+Q9QITPIYeemFD2nM3O0Jn8qyGQTPefqjXv0rP9yKDmZH7yXhaBwl3kZY39vpUbvSUI5ZMVHt4JiXBvbeKA0mNlx3w9fvPxCkKa2nOUDz09OPWdNUXREQgdEnIDE6+n2kGorA8hPwkpT1A70CsCeOffF60+vPvva0VvVsgd5o6qVjbUA1kRrjQenVOYLV3ELDBpOoltX2ieAHX/SM73/B04v2vkZYZt2OSXZXPCtvH0WPjgc6U58UpjvoAXEfEeRZUTWnN3/mqmvuP9R2zrU2A6o7uV7R6MGP2hYBERCBh0JgTF6aD6WJulYERKBHwDQoAmuOrugdW4t/vcIcWJOtyBanR0mGz+IMpLwIsfqx+I9OaJkI9SPTXE8GpCJMq+DkDeErf/HHJqMiP3qIcXpC6gexodh8Gdw5ytvmn+CKIfLetM4+Smw9uf0/9okrs8xkJ5ZRk9x41vbKKDdKdRMBERg7AhKjY9dlqrAInCABJBYDz7awcUxJijTxeo2N8S2+8r4hvQYxHO3dPPu2wJ4w9S32YtT5gPYNqKi0KA4SkuMj5Ytg55bgg+/7u+6NXwzzQ0yrSvGIvE4bP1wEcJkS7XHiq0Ee1ipvTk7M3HXPHXv2cRTjqEWBqYiACIjAyhCQGF0ZrrqrCIwDgeMxkZpSGc/F90CEA6QTmj0Z2tvtTIBOn/sGWop3m5vKHfdksKGi0fKgysocM2pZHG3EZSsMzj2t+Zb3/HXn7pui0uYFRYb2DaJ9bToO/U8de/8E9EfqcZwlrVUaz8wcik/adfVnrzl0mBkBxqQ1qqYIiMB4Eui9icaz9qq1CIjAChCwYKUVuO1QbllbQOea9WYj612dfGNtjadoXctZn0gzGeIGStZ3piEKgqLMsy1TwVMe/7CXvPg7y+6BIO/0bagW4uMMjc4BoH70UJq9lIf2+rqnR228viqSRjNuTX72i9eG5A4wVT4uzVlK03WuCIjAaBDovYZGozaqhQiIwMoRMMsf07STPxMjoY3M2uKE1Fyd4WyDvBr824FTxnmpswC41vg2ubVvkmPtNuvTZnez5fIIWPZ7kuKT4z5OyQ3P1JjMV4QmJRv8S777ya3y8ERaVEWbIXyGsk201XIWpCwM43uKvlcHt/2eIa/dF8Hq6ULp6WkMwHjBlkz+2c6qoLXxo1dcfRixbefZ1weR6mvcNwD3N4bcEj1eBERgnAmM3MtxnGGq7iIw2gRC5nq0GnoZ2hOji9fZndi3Ey5+zljtdRrUBPbSXnpenpIJnzkCmJwpYIYip92mG8HFjzzrxS985szBe0hEiunUJyf1ofSerRvrH3zcXNE/MvgGvDW8hi750ZKmjTJszNx+5/6DNmkV6QSoLw4JI1NrVUQERGDtEBh8Ua6dVqklIiACIrCMBPoiDElKYcyajR3bJ7/1cRdNpRg/MTInSDqLv8d9lCnsKXNsostYl9W4FWPyhUXQx0HcuOvue3hkThDTgJTvA1mN2ugZIiACa52AxOha72G1TwREYDkIeHdSlCg6jLnszYeyCp77nY+55MmPi5kaFKNziNMlnqVZmKBNGff3xQ2Cs8nBnlPmclRn2e/h/y2o/0Uoi4LmYOUNd+z8749fzsMS16iFT5UqXchEe0RABJZKQGJ0qcR0vgiIwLojMBi+470k0aPYQ1tJ8KTHPrJ9x+1Jwbu0NBlKCnkcRUkC5Syj3i/CRrltz9hwazQmnHG0CuN0//6D1LtgYlAVERABEVgZAhKjK8NVdxUBEVhDBMwl1LI+YfDEWmjbNA4nyjQInv+sbwuO7I+r3L9MGdmeVa7zTaEj6jO6sKO63S4xTLQ6SRqXf+JTnECaVXMdxfugl1d14VXaIwIiIAInRkBi9MS46SoREIH1RQAR1tdhDNmbMK1KJmE6+5TopIedfnTmQEpWfFxJ8bX0IWIOjwtXZ2tkZejizgMmvquwKKo0bV5/4y1kCegSZz/3n4s+jfX1PVBrRUAEVoDA3LfLCjxAtxQBERCBNUDAfCidHPNmUVrEx7DI4ir4Hz/y/UF+JO920GcW9OMD9s0s2l88gLF539IO2mJJrKK0e8/9+L9GD1x3qdI18PVWE0RguAQe+AUz3Hrp6SIgAiIwYgT6MpR6ocDI94QFkXfoC5751PL2W2ILUaqzZ8WkJHXG0J7PKFdw4mi/b3Fy7WUAQHkzTE8brf7pxD17fapR64/BiCUvQwf32BkqIiACIrBEAqP9clxiY3S6CIiACKwOARQYQ/U2LVMYnLm7EUSdsMgtCB15Gia+Dm7CdxdHvzp1Wr6n0LZOlhVlmecFqVX37yfdPTJ0+R6gO4mACIjAAAGJ0QEY2hQBERCBpRCI48TmJIqD73rJd2ftoy2y4jNxEVMxhZGF1w+YQklCanlIR74goLGGFmXRbDZJGIB9NMjLHKdRJjodn2wAI49ZFRQBEZhDYAxejnPqqw8iIAIisOoEiFianbZ+ztMrxulbzWDrpmnCzau8SCz05xiqbeReuYslnDJ/gyxnGlCaVBJIf999+9lmWiYVERABEVgJAiP3ZlyJRuqeIiACIrBcBGZVaRQyLRESrXs0eNLjHts+cghhSoy9TeA+P6mTPXzAf3S56rKM91nk34IStwPEaFkeOHCAtKMqIiACIrBCBBZ5Aa3Qk3RbERABEVhLBCxUPgoZlt+8MZieaAWdbhzhRZrZgPxA8abHnhIdLU3nasq/Ar1/CCwGyyd7KiMS+AdlkkQE0pM5VQ6jA12qTREQgWUm0HsHLfNtdTsREAERWPsEsJISwJRlQaedMUkow/Qx2tNCmzCEuuB0i08fUHsjh2TxfwKIwso7HR8mH2/ccLTTtgCmkau8KiQCIrBGCCz+JlojjVMzREAERGDFCPD29MmeSC0ap0QyYfW0Geojhu5djiRvDR3luKW+G2jop1ci9N9NW2qm0CRhvik2ipzZmEgS0DefrhhQ3VgERGC9EpAYXa89r3aLgAgcPwGXcDNy2Y3MQFghNu0vQUu8Q/GnLNGlhC6R1slcRvsar6yYlMlOHNG56V3svLkbUEWq6ZQoDcKmi503pepZWQRHD6cxCVTt6MJyzGithadrjwiIgAgsQkBidBEo2iUCIiACD0oAcUaAD+/QmCnqmXepLFBwZB5FueGLaRLU/rOC5vMWR/9xNNfMblo7uzqzLklTaYeldmrSPCy+o1lr1UoERGAtEJAYXQu9qDaIgAisAoG+FdA7U/LE2OW3n5kJZtrtYKqVZd0oimvhhqQzVcfiTI91YNAqVHMJj5grkX1t3eVOezJGH5E5NUo6HUvzNK/0Iczbr48iIAIisFQCEqNLJabzRUAE1jUBL0lrYUpqp9Lmbd+zZw9Q4kaKQREB2hunR48aKzTfYkPco4WROrtq2z8KhGCZH0IZWkva2aZNm2v32AVVliRdgEQ7REAElkxAYnTJyHSBCIjAOifQN5ESSk8GpCIPbrj5lompyTzPwzi1QCZXnN3RvEV9vqR6dtCRY+dzOblq1dZcfGKrsspj8z+Igqw444wzOIy19Fjp/EeuXaqQCIjA2BCQGB2brlJFRUAEhkigL0AX1qGTBV/68nUh7pWW1Imw89jsoIzL2xj9CBer4UAxpwKcQ1lFOL1iGa2zkOI3SgKr2md0joVXZtEBfNoUARE4cQKj/a488XbpShEQARFYfgJI0kEFhgHxaDuo4uCrn/liGONeOSfMx1lG3Wh3L3HS8ldome6IBnUL/yLYPwrUHAlKeJYbuUdmkyTAHBIoxxDly1QX3UYERGDdEZAYXXddrgaLgAg8RAJekLFmtsykFXz6qluDMg2jBnvmeofONT0+xKeu4uWELgVF6dNXBVV+5pk2Ro9rrIoIiIAIrAQBvV1WgqruKQIisNYIeIMoKg3B+f+3dyZAtlxnfe/t3pk3T+9J8pNkSbZkLV5kWxaWLcuFV7yCsaFMDLFdoQzFYrNjyiwBAiFLFUkgwYZAgIKwJJAKhKKoQBESUglLGSoO2CQxmyw7drBsS9bypPdmub3l/53Tt2/fWd7MvJk73X37129e3977+36n+/S/v7O0pm2sXkWjRC18fvXXfnvlKU/PilCRRF9YXzkfSs95PVp/jakfWOSgPNXYOsMvi9gFfH2FUS2TD6a6GSAAAQgcEwHE6DGB5DAQgMCyE5AOs/qTTonKV0UP9ZXMrTL49//hN5NTV5bqAl8qTd8G9UXe3aehPvr3kJSV4FZTrCK78vpr/FbTaqPddwwLIQCBnhFAjPYswTAXAhBokUAzIqiYaBSHf/wnnwy21Pf9SqlPgo5XnG116bwm6ukWrb70qf1TQJ9bsr9qU9dXaqKW9JPNe1/0fMVCpUet7J4BAhCAwAIIIEYXAJVDQgACy0hAStSL0UgF9IoThoH6gv+t3/n94NonhysrkmupOodP9InQOt7YrwzWS2f7WJSazztf862t9Tuf90ynRFVn1NzxBHxh/TImMj5BAAItEOhXXtkCIE4JAQhAoNZe9YTChNJuf/4X5//bH/3p6Ior0iDLVL1SClWLTYsqa62/wOT7S+owRdepk7R1Hcc1xVnYX7l18bbbbwqtn6eZ/V6PzuaZggAEIHA0Ao0M5mgHYm8IQAACy0pA8kviU2MvRjWhyqNpFvzeH33wvo99euX06Um+GUTlaDxuhEUNhj7P1FkmrlVSwzr7YGmlm/UVUPuLg+Cxh5931x3aSJ1WbdOg22YbB2ISAhCAwOEIdDejPJwfbA0BCEBgYQTq6pJNBXb//Q/899/7QBCvXZxsRGPJ1DBN09BCiBYTtd7vO6xEp6jUhqnxFLA6o6o5aiXyclkflApG0VNvOpe5yqLyvQ4MT3fnFwIQgMAxEGhkQ8dwNA4BAQj0gIAqBdYFsu5z5DtsdpUet0fOdmzV4wXOwZ32zxZrajrjfiXPLLdUx6JqYj4pw4cvZH/wgQ//7h9+QO3oxytrRWZx0yhMTLFph7olkA7TVY4yU6k/uwA0b67asjxP1YlqHGZPu+s5q0kwlutl4QnshMYSCEAAAkckYH2RMEAAAgMhIJ3ktFGtQFTBMVKHmZX7pkWmQ3N6uqz938MKu9oL7VhPyw3VidSs76zIHVNztkxBwTklaUssLGjf+XTl1HGUBsEkCD78N+f/yU/90ujK6yZlnFtvTiv6DKht6Ld1bZg8ahFun9seFvjrIJSKruCo9ZL1jSrzT61EW49deMXrXrIaBIn6T7UasSJQJUAzQrzHsVkMAQhA4KAEuptLHtQDtoMABA5IYKaK9upf0h/IFcoe8Jg93czawjtdNVWi8kMLKkm2wynbXG3M9dH5zHb4m4eKH/5Xv/TJh7N8tFbGKqEfWTzUCTUVZKt6qTuAxn0lqSiw9Gn62Qde/cqXn1pRVNR6+C+LrAmGIvsmDaYhAIGjECAyehR67AuBnhGwiowNwaXmNVIZWiDRpLGXZ7NIXhUF65KPDeP3N0v2N/Rl5Z3bTWXQ+jXhaLMmHhUV1au5WuxYj002p2CgfWZJzch1DHtr1x5lNErirAx++3fe/x9/4TdPPesFqevoXsfxRdhLEC+0SLDJ7nBj40KQbTzj9ptiF/KVwjY9eij+xpYBAhCAwP4EEKP7M2ILCCwXAWtbI8HVaOhtetTpDNMaXqBZr+c21y31MS1N3i9BpsJT6lDqqvKosdO0tFmLfBjTuapKn64o2srjBcgUqHZ125pAS4os0gc///B/fubbv/7vrtz+gsyUqPXHKTGqwc5VTzfO1eXJHTxdyNxFjZX8Nz376ePYSucN4fyFIH+77Be2QQAC/SKAGO1XemEtBI5IYFvNnNmsibZpbFTnqLSolnWqrPmgEshLJy8nLf5Zq0/XvEheKQZqZegW/zSiWm8C3cVGFTXNomiUmxC3uLG2yMuJ6lLmo+CPP/Tw9/7jH1+9+c7o1CnVt7UIqv2YHvVjO0aPBjW0cmFfBcgrShKh1o1VHuYbn/eyl1x95apI5XkexyJRhZN75B+mQgACvSAwexT1wlyMhAAEjk7Aqa49v0tux59pvr7WepQTKouXwPLBPxfZk7j0InXmlClwi38masTj2pFLo2pJJCWqkGmeuz8JtmQ8iYM/+esn/uF7f/ZP/upTyZlrJ67+ZB0KNWjTQQunk13/NT4mymdAfEBY1UPTxx554d3PPneVAXIdCYiLBYC77hL2QQACPSRAZLSHiYbJELhcAqY8rPl8tb/pr1quSajZP9NiXk1ZrLRjssq3/j6g91MvXZn7nN4SBDuGl1YWJbUIp5x10tR62TRMsfra1EKFRYNgvQj+z0cvfOlXfvujG+Px1TdsyI5yFBWqTllWGm1aTH9A27q3mXUvWg9qqHX22iufecuNK7GrQhqGeZlHVn2WAQIQgMDxE0CMHj9TjgiBbhKQknBVAvUpIRWJSET5eJgqBWo6lrxyYS+TaU5zuDLuSn3Y9i5m1vJYQlFyeaclFuAzj3zh+9RaLXP2uzY55pyT2lob1wE+K2D3wrSW3ZpQbFOl71EogaaDqiOnD/7Vo+989/d95nwanb5aC5PRuEwnFhY1eWZbW8zQ6VGjVx2ym1fBnFVG0yFqLhWuIl2/597nXnfNGfUwaoLbWi/Za8uObZv7MQ0BCEDgMgkgRi8THLtBoI8E9FUdfeYxVJTLJIbqT1qnkpqUQJvpDJNlts6FDLXGD36i1bHrD9X1BCqT5ixxxkuJVst9LNR6WzKpqMimgsFhXLlYeaTPCyVxoh3LrAgT32LcHcCJWpGxUGkUPD4J3v+hT77jnd+2Xq4lZ662YylWmqfWqt4pVm9J/Ykmf4j+jI2GU89TMV7kcZAX6cbzn/PMW2++Wmt1eWRlFgdji5s76a3t++MglkIAAj0ggBjtQSJhIgSOi4C+qC4RGsWJ5JSTo6X6JLLInhcZdhonOZzasICfL7A3GadN2h6bQQe0wTxRKE+RTbVBkuAyBy2EadJKWirPSynRPLOvCpkStR7d3ZFVNJ9rKiz06fkg+Mzjwa//9vv/+U/+YhpfVUarZaQuN+07mVqfS7NKlvrgsp2tl4NaJlk3TvJYTlnthCxSS6UiW02KZ9xy4+mx9RfgqIdZLu0+7qWTGA0BCHSeAGK080mEgRA4PgL6zqPklw/jjcfjyVaoAGEd6LLAl0UcXd1Jr92k0HYrFneb7VJcvujlFqv0DcAvMVZhvdOhrhKo9KdpUlcJQcsVFFbcT900aYF9gd3ck/y0yKkdUVpTVSMVK97UN5Y+uvnen/jF3/qv798sV+LVK9W+Xt07maZV0b0CpyZeq/CsJno6JMm4kLDOc4sbWzl8UG5tlfnGbTc/+QXPe5ZrR59Gsao1qBaHDzz31FHMhgAEOk3A8mIGCEBgGAQU74stPOhKZtc3NhQOU5VBiTBFBhXuk7iyAu4wtgCiSbpEc/rT0IWxN8MpZklCZ9WuY3lYBXSlO1Wurplc+ruUCDW5ZdVj04mLb1oDLnkZF1GSBm4cBetl8NmN4D3f/3MvfeHrf+0/vT9Lrlo5c20Q66OY40L93evLmQoXOyaadqCcEf0c6X3Cq0zT4tlEIeKROvBPt1501x3PuPUKY+UuGGEUpynUfrqK1RCAQIcJEBntcOJgGgSOm0CW56PRKNW3x8twPF4JghUpNKsfKlkmmSVpYiMbpuXPJkgsrtiBseljG6SSDzC2GKbaf0tVS2jJQfls0stKpMtgNLYuBSZSqnGwJa1qUdLg/HrwyKPlH3/wvu/5gR9+6FOPrDzj3jwa6fOfk60sjlcswmotmnJXnD3F4wzq78irdld5IxMtsVlVNdlPfPQ1L323JhRFlui32sOGTez66yiWQwACnSaAGO108mAcBI6RgBRXPIq2VDafrKrsNc02i61U7ZnKKJY+k+5Q6MsVXNs5pdWkPaoApFZJj7Y9vgQK6aRd4namoUd+L9NZXsy6FltSoalTolq4kQefeTi7/6Of+MjHHvi5X/6ND//ZR1auuWXtaTduKpiqUHEuJRorwGqCTKFifZ/dlScpoGiK/hI29WCVPFGdDaulUKhK6MqoTDdLcSnz17zieRL+6rnKh8Ql6jM189L1wxOjB8mKiRDoHwGylv6lGRZD4LIJ5IoOJrE0VJ6r7U6iaQkMi4Za4KtSn15gOXVanceknguMtTveJxq5QxjKWu1SL5bX/ghWch9YM/lPfWbzz/7ivgc/+8SH/vyv/8vv/v7DjzwenTmX3HBLPD6zuTWJonE8WtlaT5MksT7wdSgFkNWbk1VrUAm9Qq0qqL/spOjEjmKiBlxlsKVKoQoQK+a8fvHC27/qq86eDrKJKi9Y16KqMirNaldJjbITtmMEBCCwPAQQo8uTlngCgX0JSEXF+tCltJhCoGWRxCsf/+Qjv/mfP3DtGdUNTE1saU1VRu+lR7fUlgw/3BDFueKX+hSTqkIqJloUjz3x+MOPPPbpBx954DMPPfTIxY9/8sEHH75QJqun1s6OrzmnFvJBMtpIU5VMi1W2cfHUqSu2JhtqSC7lqVMrOGrdEdi3nVRhVLK2L4N1E2qDahq4caWjVe8gjvKsHK+oRmwaldnk0x9711f9qB4MCqLnWWB9XwVhmk5GI9WaZYAABCCwEAKI0YVg5aAQ6CYBFS5b02kNJkvCKD79Z3/16T/9gZ8MLpx3sT9ndaX4nAztSzRsl0J654t1w6SQ7zSmp4LnUaJWOcmpNYnTMBqFyZnxlVeps6vUPjKkQGHsuiVVnFDuW79XW9mWIoPqaFPrpoNrSW+zaunVrcEFf6WSbXAGuy7t5YupbAttilMRZq4xkjXnUmzcOheIkskkH6sJl4VFv+TOO04Zs6BI1OmVhjAcjWedOrlrxxYzQAACEDguAojR4yLJcSDQDwJeTJgelTQJR+HobHzmiviqp0jCKHjmhUytu7omtg6NWPrSKVHviEkzhQgj9TNq0WHJLE1roaYVB5X+soV+U3cmt40r21e/T42hsUljaVcmZaq6QfBmm/qU04oLyy9NOMu1yjVK0pKwTNN0tLZa5IX6nl3/7Cff+re+a2Xkq8Vqs7m4uPatL4yu+IodEIDAUhBAjC5FMuIEBA5GoA7vWYVHi34p+CehEkt3OOFVqQ0vSSuV1lsB4vrNVOMcQ+MihF6KSXZa2bRQWKcCWqZ/ptdss6os2yaXbHAdo1qim8RUxwJKdFHJyywZKcCbpVsbW+n5N7z5dbfdduPYd1pQA1Bg1eBoRw1z8tQtYQQBCEDgqAQQo0clyP4Q6BkBV1jrBJiVX7vee5zYmIpOqTcv3RoCrmcuenNdSLSK9WqJaWsXKHURPtOhfqgFejXf+x/Ti1aldRrNlYMWHi6kQK0zWc0qAq5OvIRGnffrW1xic3ocXjz/0Jd80WtuunHN0JgqR3f2/lLAAQj0hQBitC8phZ0QOA4CRanPPZoGVVDM92LuNaiPDrozeA2qSR8mnGrU4zj7yR5Dekq6qvA9p3plOg19Wgf4cswtrKOhUmwWJl2ewYrmpxFN60zWeeYWVokaFWGpD3Hl6u5r67HPe9kLn3/nrepe1IlQCyhXzJYJyfIkLp5AYKkI8O67VMmJMxDYh4DEmdr0uAChK6VXFNS0xiw6aBKt+pst3OegHV7te62yknhXE8GLMIv8mc2SZzMl6pRrhz05rGk+b9dYf6qPMGv4r25lbaEFikUn1melVlRmn26+/S1vvOOWM3Z16D8DBCAAgRMkQGT0BGFzKgh0gYCkmL62FKuuqLr5kRK1EJgiiJX03BEG27GgCz4c1AY1mbdCZw0a608C3M1Zgx4nud0aW6RIoNVYqIKBWtDTwWtQZ7zV9axk5bTIvl4b2zWgSHCmnu3jyYVHX3LP57z83rvUZt4a0BdWaVR7+q1rJF7J95QLZkMAAl0mUOdNXTYS2yAAgeMhoI8JqWNzG1SD0IVI7bhOrtVhwkquNaKGx3PuNo5Sppk6FzWP1FBLjldKVFUlnf8aW/f1Vb1SdeTUho2LOOeujkhemjZVNNRWW1ep+uhBFJfF5FP/9y1ves3Trtf3pfRxWL96m1WVqN22lFkIQAACx0KAyOixYOQgEOgHgVkEdN7eWdDLoocWLdXYKbdGCf78Lt2fk9hy36Z3HqnOZG2xq6VQz9V1ZL0or5f3ccInmbfcp+PU7dzK5ePYQsK5hHiulxKV0FtHqenF5Gz05i+6W1HUUVjoS0u143VwdLpktmq6hF8IQAACx0CAzOUYIHIICPSFgLRHJTH3sNgrtuZYG1YBRbdnz6anZfEzJTrveJOGn55f38c55eo7Apkqa5f81Jel0kwtmOzbn9mW5uNi/cLH/vdP/8QPPukKhYclV4siq/pgrT1XrQ43zcOiRsIEBCBwzASIjB4zUA4HgY4TsFCZbzu/Q3ztVGy2pBEr7dn0bimxzelL0Nht7+4vqyVjpUft5cH1aaVxGI8V+NQWeZ7pI6BRublx/sG3ffWXfcHr7lRCj+PcxGhk1YklZ92B6qO5CXeo7iPAQghAoHcE6rymd5ZjMAQgcGgCvtC2HvuJSx/FK9Q+jnf6tYsSldh2vml8EBo7j9ntJerByqlSScwwTKI4V3A0z87qk0vpZpk+fs1V8Tu/+i1XrKqtkr5JlaZZ5urNaheLkurPeWfdPFUR9W57i3UQgEBPCRAZ7WnCYTYEjofAnALbJtaO5wydO8qcy52z7kgGedfUPktH8e8PVZLmQW6dCRSjOAnKdGP9wkpcpBcf+/b3fMuzbj1njejVoVMZJslYQfM8nyTazA06yDAuiiNhZ2cIQOCIBIiMHhEgu0OgTwR21vjsk/XHYetOJVoz8RPHcZLOHUMdBagjJ+tYwHWkEBZpka6/5lUve/2r7r16TV8FTfUkSKKVUo2a1LrLoqP+r3OOYBAEILCUBIiMLmWy4hQE9iQgyWUxs+l453a1XKtU2s4terLEh/S2u7Mj0FfT2LGmJ37uaqZK550/PhHVZ1Mcj1QRNJuko6hQrdA8S7/0zW/Uxz/Vp2gcjlRIL5lqElT9XxXqIV9TmvbF9LuegIUQgAAEjo2Ay3GO7WgcCAIQ6DQBCS/TXvPjTlu8SOOWj4a9acw0tY9u2liDupVVv/5xUo6j4sLf3P8t73rHG1/7rLH7CoCpUAuZGmt9DVR9j1bU1W2+LhV/TH/dVCv4gQAEIHCcBIiMHidNjgWBjhOYCZW9DW2oGdvoILvsfbD212xzp2lQ311r+uKnLQKaJOpNVgXyUag2S6FqgCrm6SRqXlpMtNh47OGn3fbkb/yK158Jg0Qd/quVkuSmSVG14dKEjqRPNzWOXU/XE42VTEIAAhA4OgHE6NEZcgQIQAACnSAgJSo7rFN/+xZokGWZPu9Zug9OSWWO9OGtzfV88+Gf+rGfedJasGIm2+epqqCo607Amjk5QdoJfzACAhAYBgHE6DDSGS8hAIFlJ6DasfrOkqqABkWSKCpaToIo9f2F2idA8zDKs42P3v9z/+5f3HvXOcVEy1LtlqYl8ssOB/8gAIEuE6DOaJdTB9sgAAEIHIqA2h7prygza4TkYpzqxj7QZz9PhcXGx+97z/e8+5UvftbpJBirZ9E006F3xkFVyn+oU7IxBCAAgSMSQIweESC7QwACEOgIAXVxr0L6bJSERZEn8bgsRoH71lKUpevnH/iKr/nir3zbq598Vt+jt1qlK+NTHbEbMyAAgYEToJh+4BcA7kMAAktCwIRoqU96lnmxocqjqjAahUmeF2OV208uPvu267/6y9/0jJtia0GvmqJlOckmcWyNnJbEf9yAAAR6SwAx2tukw3AIQAAC8wRcp6HBpFD90DBLy9XR6jhaLS8+un7/h37o53/9njvPqSysyKzZvFo1jcfjXG3trblTpUf9BMX081CZgwAEFk6AYvqFI+YEEIAABE6AgNrFx4H6Ew2SJFGvouNRXEw2ovSJix/783/zKz9z713XqjZpHJb60mde6lNMsbp0QneeQLpwCghAYF8CREb3RcQGEIAABNohsFcJurSm+8Cnrde0IpoaSvUjmutznpF6Z4rKZBSFk63zT3ziL3/q53/kDa+9YzVxFUpVWVRN62P3yU81XoqtNb32rd1DntYomIAABE6MAJHRE0PNiSAAAQgcDwFf19MLRydEnSpVobtVB42iMpISTZ945FS08c/e931f/IY7T68oJmr920uyWtf2am6vrp3U4J4BAhCAQAcIIEY7kAiYAAEIQOAwBKx83XXApLEio6ZC1ZOTvr2kInq1UCrKOF2PJ49+29e99cu+5OVXnw4SU6B54b41LxWqjTUpAXuJz1Mdxhy2hQAEIHAkAojRI+FjZwhAAAKtEJAGlRJVYb1qiGpsqjTP1aVonm6sJdnF+z70Hd/85e946+tuuCqMgjRUTFRl9+p5VGXy+gSoyuWV97vsv1lGL0e2zbbiGieFAASGRoA6o0NLcfyFAASWgYBUozSoPPEhUk2oaD4otpJi4/yHP/SN3/mur/2K1197hZo05SqZ12BtlhQftWJ6/VN4NNOeQTjaycK2Y4AABCBwggQQoycIm1NBAAIQOA4CEqBeMio+qsFPR1ERpxfUi9O3fO83fds3/O1rrlDV0A1FTqNwpCb22kU7xf6rTK6k3gyxgnvKx44jSTgGBCBwBAKI0SPAY1cIQAACbRCQ+nTi0iSpb8yUbW0F8Va5+emf/eV/+abPv2tNnTwFQRLpq59xupWNxqo16v65lk7OZJXUaxOUaBvpxzkhAIF5AojReR7MQeDABFTeWQ++IUjpGogoHlUvZwIC8wS8+DvYFaKGSGXkPpe0XTL6UGhsbZCKIpuEYZEEW1etBu/7oR981YtvP+uUaFlMsiwYjWIpUYuE6q9xxQahderEAAEIQKALBBCjXUgFbOgNAYlO/akxyPZBMlS6oR6cKrWKefUSJiCghkP1RSKhKSB+XIUnq+tHtTttjXpf0p+uNHUb6gri1ROTFbRHlmlbbU9dXGo1H2Tjcitdf2RtnP/r973vFXefGxWqJ6ojatMkGml/t61+7aLVAdREqXGhahkDBCAAgbYJkCu1nQKcv58EvMp0jUGm8aZpWFQLLQiFDu1nyp6M1WrRfukTubh7FKskPVOjI+sYVJO+q3opSsnMIs3iID2lhvOfuf8V9zzjN/7tj7787nMrKpovc/sKk7a3lvGmQF1QVAX6bp7GSZfmzloIQKANAkRG26DOOSEAgSEScJHOmeMKX07fZGxhVXbvZKhmFUYNQpWzl0mpIKm+NV9k49WVdJKHCnmW4enVU5Pzn3r0ox/8+u961zd9zdtue8qq2sfbB5VMgtpgUVA3Z8dmgAAEINBhAojRDicOpkEAAktGIMxc1NyHRTVuxkd3qUhaqqN6ac8kyYo0CaN0azKKRqoMWmxduHj+wWc+/drv+MGffsubnremYPxWfmoc50X1VSWvRD08HWHJKOIOBCCwZAQQo0uWoLgDAQh0lYBV5FBcswhV1dNqdZoYrWKjrlbHjgZwUTCKA2nPfN2VuSfjPEjyLMzWLzzyiTd+/ud+89e9/aUvvHFUBnEWJNoyt97sVXnZd/bkeyEVi7rvJ88FbdrV6wO7IDBcAojR4aY9nkMAAq0QsKrGVUumuZilKdJpzWNTq2GRZ1m4MgominyWsYrppSu3nsjXP/vD/+Bbv+B1997+1BUfXLUmT/r2kvq1106u5F+KsxadmmgGSjVdr2rFfU4KAQhAYBsBxOg2IMxCAAIQWAyBUlU91ZrIhUVNa9Z1RtXtgj4VL0VpYU07t2SpKopqvBpnaRqVyak4KdfPP/7gx177ys/5zm/97hfdffPaioVVtYfqiebjYCsvkpFaLuUmR92wa51RZKiHwxgCEOgUAcRop5IDYyAAgeUmUNcTtdqirt8FyVInQK25kS3SYA2d7LudRZmlKnkfhdnG+SeyB+77ez/wHV/3lW+47qogdhsXeRHH2iGUBtVRLK6q6qHSsS72WetOQqHGlAECEOgwAcRohxMH0zpAwIeXvCFeLWhJofCVaQkGCOxOoL5sakXot5uWzktqWsskfUzelKKTj6YkY3XlNJrk6sypGKnRUro5KvP0iYfW1kav/cJ73vV3/tHnvuC6sWqI2qb6b9JTW1oRvV2N6v22jMJEq+raotVJacC0eyqxFAIQ6AoBxGhXUgI7uknAiwmvLariz24ailVdIrBNg9amlVkeJ5brlkUqLSkdKi2pjSVCFQhVCfvW5vrKqbE6Zconm2V6IZw8+tY3veqNr3vpq1/63HNrrv97tVXSAZyKtdipVRa1oaoqOlvgljKCAAQg0AcCiNE+pBI2tk3AQlCu18a2DeH8PSagl5nxeJynmV1Okep3ZmpXHyWKZYZqqKR4e5REK+MwSC8GRZrff9/NL3r233/3d33u3c+86Ya1caCi+SJPJzqCLkX1Ozr9DJhpUVdE7wP3PeaD6RCAwGAJIEYHm/Q4flACO2Wo1IN2NkmhXzTAQUEu53Z2GTReVDTtL49dvc3cd+T1ISVtFsdxVmYqh4/0ic8kKtLN1TDe3Hhk68EHrrr+3Ht/+cfvuuOm59w8Ph27cvkiy7Ot8Sgu8kmkxkxVBLRx/fnr0C5MBghAAAI9I4AY7VmCYW5HCDQFh8mRjpiFGSdOoKlEdfLmhbHNFqvfGaanxitpmqqN/Gh8Kgn18c40VnXPdD3YfPz8+U9dddXKj7z3+1/1yhfdcF2sIOlILzuZ3neyOC4jtVVSsb6+9unUqTu4v+4yV0qvmqdI0W3ImYUABPpBADHaj3TCyp4SuIQ06alHwzR7m+LcF8LOdPdHUDR0MtnU7iuro7CcZJsb6j20SNefdv3VL3jevZ/3srvf+pYXrzqxqZb0I73kqKWcZdLq6n4ziqwD/CRZyaVpXRslX2HUGkVZGygpUdeRPop03+RhAwhAoGMEEKMdSxDM6RiBpgqpw59a6JZXC2x6DwXgNuuYS5hzrASUxJKeGvyHjjRRJ3o9UZ1Q/YyWwSgaB9kk33w8u/Dw6bXo1S9/8Uvufe4Lnnv7PXffupYEypHVTZO+pmSfpld/Ta510mQyGamyqfoQDROLjEYjaVTJT9dtqXVcqguxugD3uA6P1WMOBgEIQOCYCSBGjxkoh1sOAk0ZMZt2OkOzUVjo8W8tSNScWX1C+q5z7Js6rsNIN1agisL75bgYLuFFU3pqM3dFqLcmfSA+NLVobylqpFQdIC7zsNhKN5/IH33wtjue/vZ3fu3z77z9Gbdcf+tNq+PIZKgkqHoNG8euPZIdwnUdGgRSojqEWty7y8u6xXcatT6wVVw2PeqWXsJaVkEAAhDoJgHEaDfTBavaJ+B1Rq1ENeGiTsUoDidqP2JKQH+RFY0WmdMSZrMJD/9FR8WtvGZo3xUsOCiBfWpdSlyavrSePHV56JVEvdKPR6PJxkY4Glk3n6U6aYqzIk+kHHUxlNmKWimlW0WWbTz+ePbQ/zt1bfyer3/HK1/+sqdcf+1115y++gpdPIqVmnlSotrB6U/19qRJO4N+dMJ60ILQd3jvlroL0hb5t6F6MyYgAAEI9IsAYrRf6YW1J0TAdMB0qKdNFRRFmm6poNXaLCkSpV7LTTlYPz1uc3W4oy86OkXqtnYxLB/JYtwHAlb/Uim4fWxffY+VzGrGbl+AtxB4Id2oz3CWYbappvDl1vp4bJ9DmqxvmCydTNQN0+TC+c1HH1KE/KY7nvX2b3rbF77+5bc+5fSZtWB1xUtPK2tXGNQGpz1dG3k3ayPhMoHaHHwstBER1cppYL65HdMQgAAEekUAMdqr5MLYkyUgGWoB0elYGmSUrEhfFmlWlKlXomrtbP30SJIqaiZ5qmLZQKW0mjU1asHR3cTNTrnDki4QcI2BdhGjalOk/upVX9NK3/XCoSbu+oKSEjrfLLOtxC6TvNjIxivx9WdP3XTjdWdOjZ56wzXPfdZtd911x13PufnMqt5YTF1qnNvbiytV16xV89BfkdhXPTUbu0CoTbtN3C8jCEAAAstOADG67CmMf0cj4JWoP4bulrjcvPpU/uj6+dOjaCO/mE621ORZbZ4TBbH0OR1pCwtbSXUo6KWQl6kKt8TKW22WcR8IqLRdqdYc+xeKUZRIqBZ5HibRdddee6MK2kflDdderY7on/qUG86cPXXF2sqTrj5z+9Nuuubc6OxpC2zqInBjVeVIVZxeqDg/dpI0DxJ16WQXixrIK8BeDbqa/FQ9MV2z++8BN9t9Z5ZCAAIQ6AYBxGg30gErukfAx0RlVz0hVXHnLVf+wvu+e1Ke2sjCZLSiioF5NlmJoyLzutMV0zsxGqsYV/u6xRTW94vAvBA1UZpEozSf6MUiHqmVuxoS5Suj1dNr41FUnrv6jPpZOvck9Qpqg8ZSmIqU62rRtC6CMrdqpnGsysbStHZxqKqplKhb63oP9QLd7+wO4qoe+3cZP7/LGBm6CxQWQQAC/SSAGO1numH1iRBwZaZ2Jj34bbrMb7z2zJOveXZWjqUyXKiz0hyKh5rIsDhotdziolZw75TpiVjLSY5OwF4gdhu8xNQaTfhBae2FpiqKKp3VaGkUxboGVJZvgc7Iop6mRxUO1QYmRy26qjebxESodlXrp8I3c8rzPI7Uvf100KGnA4pzSoJfCEBgmQkgRpc5dfHtiASaUsBNm+ywjzc6xenliMpaXeG7NURpSk/NSog0dMURbWH3kyBQa82DnCzPFeC07kUVGZUSNZGpRLfrwJK+Lnq3a6B6RQkVVjUZ6pvKS5KqsrEkaaw6Ho0THsqIxn5MQgACEOgpAcRoTxMOs0+OQEOSSmhUt4wEgy+HdeWuMkZBMa11/51pXlGgK04unY7lTE1R2DigNKM+elQtcHFOTSsm6pWoppXQlcS0iqF6KzHVaW8p7urRtL8S3HG0TC817oIJ1Uhf1xEDBCAAgUETQIwOOvlx/hIEGhq02kqSQl++0UytLSol2pCckhgaprLFpk2UMPSEwLT50HZz1X3obFFjI8VE64uhvmDUgYIPjlYS1AVK/XVgira+ICp96o5cXUL+8vGnapxxdm6mIAABCCwhAcToEiYqLi2UQC0+9joLImIvMku53GRkrS+bHvqF9Sptp2nrY8EpzqYSbe41m975XjNbxxQEIACBZSKAGF2m1MSXxRKQfvBSYi+56TfwMqM2ZdtsvZyJZSBgWlOqcSoxa5fmUt2ipxosompT7vKpFrkV20fN+Oh0++3bMA8BCEBgeQjs9VRdHg/xBALHSEByor5nnN7QXL1AGsI+zlMNUhtecEwX8Lu8BGr5aNdAFfuceuuvAi2duxx0ocyulemm1bVUX1H1ciYgAAEILDMBIqPLnLr4tggCu0gI0xC1HNE5nZiYbddctQiLOGZbBKx26PRtxKfynjpy1xVz8nTqxOzCmS7hFwIQgMByE9g1h1xul/EOAkcgIPlgCqLSl27OCmHts5+XGvxaxktFwF8L07Fc895tvw5qcWkT+u/+/F7bN7V5f5zmeLetWAYBCEBgiQgQGV2ixMSVEyOgZihTieFkqakQ/Z8uMzukNjS4JbZ2qlSY7jQBl2oHt3D6UjJNYOvsfm6ZWzF/YUw3sLNsi5n7E9s+1s7JDc1LqlrEDwQgAIFlIzDN8pbNL/yBwMkT8HcT99TJk2//jIdKdf+i4o2uLxo/gfhsPy2xAAIQOHECREZPHDkn7DWBebGguVqFuDX13FyUtNceD8r4+eTd3/U6vRs71sv22r3+NlMVTdcOjd3dXtvn9zoUyyEAAQgsAwHE6DKkIj60SADZ0CL81k99xNT3ux/xIK1DwAAIQAACRySw70v8EY/P7hCAAAQgAAEIQAACENiTAGJ0TzSsgAAEIAABCEAAAhBYNAHE6KIJc3wIQAACEIAABCAAgT0JIEb3RMMKCEAAAhCAAAQgAIFFE0CMLpowx4cABCAAAQhAAAIQ2JMAYnRPNKyAAAQgAAEIQAACEFg0AcTooglzfAhAAAIQgAAEIACBPQkgRvdEwwoIQAACEIAABCAAgUUTQIwumjDHhwAEIAABCEAAAhDYkwBidE80rIAABCAAAQhAAAIQWDQBxOiiCXN8CEAAAhCAAAQgAIE9CSBG90TDCghAAAIQgAAEIACBRRNAjC6aMMeHAAQgAAEIQAACENiTAGJ0TzSsgAAEIAABCEAAAhBYNAHE6KIJc3wIQAACEIAABCAAgT0JIEb3RMMKCEAAAhCAAAQgAIFFE0CMLpowx4cABCAAAQhAAAIQ2JMAYnRPNKyAAAQgAAEIQAACEFg0AcTooglzfAhAAAIQgAAEIACBPQkgRvdEwwoIQAACEIAABCAAgUUTQIwumjDHhwAEIAABCEAAAhDYkwBidE80rIAABCAAAQhAAAIQWDQBxOiiCXN8CEAAAhCAAAQgAIE9CSBG90TDCghAAAIQgAAEIACBRRNAjC6aMMeHAAQgAAEIQAACENiTAGJ0TzSsgAAEIAABCEAAAhBYNAHE6KIJc3wIQAACEIAABCAAgT0JIEb3RMMKCEAAAhCAAAQgAIFFE0CMLpowx4cABCAAAQhAAAIQ2JMAYnRPNKw4GIGi2qysryVbUoa2uJxOhTYVuGU2sQSDHPJ/S+ALLgyXwOwirm/kHTBm2+xY1bcFyoh8PhXJqTAotmVJYeFzKnMrnALpm4/YC4E+Ekj6aDQ2d4VAWChL1xCaEtVfoRxcMlSZvDJyp0krSy3Pt0da1L0svtbQlan7/LhnmEaF+Wf76n/1VtFphwAAI/pJREFUADMnPZCoesa5jfc5IKsh0BYBuyXduU142f1qd6iNq5fJ6ra1RfWWfubgY3fYg29+6C0Pc/+av6Hu1lhncY6Xdu/qCJKmlneFZcNaN20v1bPX7EMbxw4QgMABCRzmTj7gIdlsUAT0GLMnWeNCMj1a5ekKPOhPI3vU2ZOgkdf3m9LMkVkoxT/OnbP2pHNPu357ifXDIuDu05nLerNyd7e/nSXLqnes2RYHmGrkDAfY+mQ38bZVFlay1HKqarkv3jlZkzgbBAZKgMjoQBP+uNx2Ukx5tx5jVZ5eHbmh0dxaBSBy20pRid5HGqxwb97bnTh3ANm5CUsg0C4BC/t5ielvYWeN3hjtBVJr7Hb16yXL8sDi/XVM8TCG73evHOZYh9o2dHLSj/2OlveYL0HuJvyrshXsyDfd09ULpAKlDsjyvDwfChsbQ6AFAq1lEy34yimPnYBl7btcQqH0pi/9amTwdvI5hXrs1pzMAe0J7QZz3B5hs2EXFLOVTEGggwTcFSwNNr1fTYnOD6XW6qLXn9tsfmW/5pxr3pG9DC/CyBfsCEgZckfvxYnlEDhmAkRGjxno0A7n5aULKCiTt9CCW2IVs/SnOIprKKDl2kQa1cm37U+7fjGTmxoatUI15/1yKwyCPbh5jFU4+OkJAXfdSn5NCy5Cu4Yzd8dGmnL3uHOlP/ev3Zc+15nZPH+vTp0170Kr6e5uXtUs9be585cRBCCweAKI0cUzXvIz7KK6TIC6wZWCSYS6Z5nXrUui0pzX3s25p1ud2C7CNH3U1UuZgEC3CMxUmuTm9BVLJlZXta5zk2Xaygro3YT77etI9dfjIJZLsRy0F2ZNzuVgrmC/UqKuXWZfPcVuCPSLAGK0X+nVLWv1iPK6U6LTCzNnX6FWqVbJzNXN0nNMjzHNWubvphuPv265cznWVM/sunCzenhXh1oqVy8HD/t0nsCcGrO7WBVG/c3sx+aAiTO7lu3/nHTTfLcHf3/6sSxV46RcEdA4SGLLswo544puzAlXUcF+gjCrblz98D7Z7QTGuqUh0K+cZWmwL5MjVX7uXaoy8Tn//DJtpjef3l9vZZDor/Jv9rTea8EcCGYg0DECPgRYBQL146dcdLBhqQmy3t+5lT+mL6e5lJXF6x623uimg3fTxgqLVqJ8uo5fCEBgcQSmj9XFnYEjLy8By8idd6WqhEaunqiqaCkwWpRlroYAQaJQqNsoVMauQrHIF471mEhaBHFkT+bZ88sca3rkyzo9mOZypiHQGwKl7mL1e1FkoeqL2q2sFujSbH1r0WN5ku7VWlXKl6QIItWETXUPR+pZtFAvAXLRVRe1RZZC2sfuaFd9lsqjRoQBAgsngBhdOOKlP0Ho2whM/bQaotEoSE6rrGtT4VBl6y6Hr/P56Ya9/NXTWE8y3Ta+Cp35IPdNk88JUuebd7uXbmL0MAjoEq2+WyF/bWbqtjSoU6KJtJo6QkrVz1NoSrS+m6cb9ulX3vmyeHk0keFhrKpE8SjJrXmlBq2Xiw6DgsEU0DsojCBwMgQQoyfDeTnP4p5M1khJDypl52qCqiebPbNGpx5aL/7iU0Gk7N093/I8XzkVb6b6/slO0dYuHGffwUxIiiJJN59y7RVXXaFwylSF2gNOTsl1PcYag3/Adc3dhoFMQmDbRdu8grUqLaOPP/DoY+txtHZW9/kkzw9//zYPuQjeh7h/3elVghMoHPrEut4p17ZcqUYhv2JfLm9H86X2jbL7RZjNMSEAgTkCiNE5HMwciYBJUjUQiMJ45X/8r/u++G3fIA2aWOYfFYUK/EpXHuY12pHOc8w7m9Wu1cZ+43GRpo888GP/9B+8+YvuzdRxlR7X9qhVDYS6AVNt2qKfwfWJmIDAZRKob0X/xuR7ufcFGVmexUny8GNbP/0Lv/orv/EHG8FKMBrpFraXzgPfL5dp1mF3280eK5/ZudxejfU+HKs5fRmOo5tvDUdj3chRrFvZGjbNn3nb7PxK5iAAgWMlgBg9VpxDPJgqlynXnwUALaIQr6hc7/z6pCwT6dEoihVQKVRh1BrZF74BfpdQ2QN2WlPsUtOjIth44MIkT1RzNEksMiqPTHAn8kmCVI1zvQZVGV+X/MMWCBySgO5UabGsTC6sB59+JAvWriyyOFPRtQo+rFD7QPfLIc952ZvvYo8reN++XMFdFc0rL4qKPI7j8anTk7ws9PqcxMrC3OAEqDZzklvjbZFjtw0jCEDg+AkgRo+f6XCOqAzc8ndrwWP5tyky/Wmk9krRShpGa6fXFBPd3Nwcj8dZpq20mbJ79/VnPexUK6tX46gYB6tXm9TOg3FSNarXU00ytHqW+bSfmxnO5YCnPSNg9259xaquTaOqSZJIegaZtFo0DuO1ZPWqLauMU3Xl1v07133hc3sOY2+PKqVx/c6lKqqXENV7chKXufImA+Hek61ukcum7IcBAhA4GQKI0ZPhvLRnsTioBqdHXVGXTavMe5LmK6PVixfWo9FIci2TFHXiTQ8DNRqwosAejvMwCaJxlifxyEKgkt2uCwFritu3ZsYu1RgNnoC/fZsl1E6KWUNz3aRRbBVRpFJ1S7u6KKFVrrShl/ev7NY9OxqNoiLKszIexal6DbByeuehc8y8NoWu+1tZlvO9Ws4PBCCwQAKI0QXCHcihSz2sqmeanlhVqEUVziaKNyRjybRcHfmFURJbkb3km7VEt+27PbaY0fYnroWBw8SEd6kSzGxkCrSUd6oLaxHhetBmjbl6MRMQ6DYBq2Ri/92gS9gXXqtl/bS9ud23VnJtv/PjftzXKpxJ0slEfc+prGYr3Qqtnzb1OJeUmVrYq8imSUDTXpk7HIwgAIFFEkCMLpLuEI5twUHnp8kveyLZ4JpCSH9axFSDNVUNpURtcr5A29b2Z7CQiarOWeOIQIWXXnLGqkRXlLFryuS8df5UIPrjG5YOkoB12STHfTdG7qL1V24d7FdzH5Vhx6U+oqmr3hUG7Apq+ha668ouLbSeU+V1oTdJ1SbSXazvxTklahgsHtxUoC5I2iXrsQUCy0rAXgQZIACBgxOw5lpedTYfwF51H/wobAmBbhCo3qDq1yfNWyVw1yxRKtSMjFQLXLVvludb7WpPaTdvbKU6OwYHQAzsjwECEDgZAojRk+E8xLP4IvvmeFkpuIZZy+ocfg2RQPOSruveLA0IeaeGlU0fl8Y1HIFATwkgRnuacJjdCQLL95zuBFaM6BgBr9uW6WqXL4jRjl1lmDNoAojRQSc/zl8GAf8MmzXaUkXYqtrsZRyMXSDQaQJNAboc13l1/6rSgatm03Sw0ymBcRBYagI0YFrq5MW5Yycw1Z1qyjF9Nu9S7ezYT8sBIXDCBKZX+rK9azXVp27h5uwJE+Z0EIBATYDIaI2CiWMm0Aw8LE+O7x7RzZZLx0yNw0GgMwSat+301aszxmEIBCCwRAQQo0uUmLgCAQhAYDEElkmM1r5IbdfTi8HGUSEAgQMRQIweCBMbXQYBn8s3x5dxkE7tUj+3FB6t64zqeaahU3ZiDASOhYC/sP1l7/sJPpbDtn4QbtjWkwADILCNAGJ0GxBmIQABCEAAAhCAAAROjgBi9ORYcyYIQAACEIAABCAAgW0EEKPbgDALAQhAAAIQgAAEIHByBBCjJ8eaM0EAAhCAAAQgAAEIbCOAGN0GhFkIQAACEIAABCAAgZMjgBg9OdacCQIQgAAEIAABCEBgGwHE6DYgyzkblfpKUP2hoCIMCudnlfpa6db7hctJ4Ji9cl05lYEAzt1B9PB0zJw53MIJuGvY5Q3V1VvnE7q4y1muIUO4vPdNjVDEppj0cad5Zn6Fsl9Rncs39j0sG0Bg6QnwOdAlT2L7aqWyPpdFlj4DLPM4LOMiysKoiAp72tSPnLAISidcl5xK5Z5/bDQevvu4bdvnQbNTUS2oOx/1O0vRN58zBz/4PudmNQQWRsCrpJ2Hj5QdFHlcKlso7NVL13ppWuqAgz+svegOY5jlJ8pqNaPs1F77LcMQNYUARM+RGNnY8o7peBh88BIClyDQfG5eYjNWLQkB92DY/dFjmefua5bE96O74eLHOyBNoU1//fPm6GfjCBDoEgEpp8HIysvmXhNSUFlKfvtx7GsZ089l1Jtu34h5CAyRAJHRZU515YeFeyd30QzLHl0RUZiXYTOftFd2yzgtLJorq5yqqmVG0/DtcO4q2mGyfba/dm/Mabk9geaXzDZmCgKdIjC72etLtnk/WGzP5uvopps4zOtWGc1O0SnPF2WM4HgNqrGYxrPMQGFlB9PwuXL6GvmibOG4EOgPAcRof9Lqciw1lWmPk+rH9GgQxq6yo6YaD5Xp00b5Y/NhdDnnXO59VItBdcGMZ+EeO3rkCJg9Vjw6/whabgZ4tzwE/N3ur127it0QqlBel3VdY0fZiM8rtEUj05huzm9NwPJRy26t/lNUJoH9mTZ1PC2jcOVPlnN4jtKqDBCAgAggRpf5MlDGaBmh5YRSTlZfqQxVmckCoYWeN1qtWVttC4PCbbvMPHb17ZBeW6U5/xzxY483NsZiWA826zc45PHrIzABgRMj0Lx6q+vWn1uaKrM/1ZV2lzgtb/ZJE6tzr6q2lreWwSiUGJ0VlfjM1oS+4+mPhBzdhyirB0KAJ+WSJ7Rlii5fVCyvtCeKnikuT5QYjfSMqRWVU6hVAdOSM5l3TwTUsEDLDjIWylpy+nunKG1wYB1nO7h72syfhTkIdJJAlUE0bVP5ia5tf3lbEya/zu6R2bQt9HV9LjWebt88+nJPmwoN9J7vswBRqrILZb72Gmtko2kOEml6uWngHQQOToDI6MFZ9XHL+kFSKAucZoK+xxbVDvWqyTJHyyVV8NxHF49ms2NiMWFVrt13bIWVoSIZnqofa4mw7Rbe0POoJn40I9kbAgsi4MRTdZ16ATV3zZZJqWvbwnt2hasTDlNZYRGpkb1ug33Hrrh/QZZ39bAuE7U8warzuCxWBVGBA2eV8r3ZCjBXdSDmcHfVJ+yCwOIJIEYXz7jFM1hm6Irgq3r0rjFBqeeK6jOZALUHij1j3I/yR3up1/YuP23R7JM9tZ6pDsT+YwdTz2aFi8xEF9iYPnuM6rah2gxJuo0Lsx0hoKtY72AyZluIThmCXlW1Qm9atlJ/Kn02o/XiKiXqpg4wtu2GNvjM06pE+YbzdXVbl1GIhuR/aJGBWRHL0BDhLwR2I4AY3Y3Kki3LFc5LchsHuUrmVZOpGIflRA+VQk+XUhrUl1DXbWZNlg1lOEw82CIdwuge0e5ZLEhRaI8fSXuN57lpC8IeQ7mM+uqnK5E33alrt7pa3XWbqaZoYopJNaT1pzieXepJWKaqfe511UHGHsv8fdFXVAexW2wsYwhVy7Ys4nhUqOcS17eoYPm3VeUh9s9qTRlvJOlBsLLNEAgMJ5sYQmru5mMh9WRiKY6tEVOsaSs+UhwvjmxZFc9Txqg/adOpovIXxtKPrbWBNThQaPhAYwWLMtFT6Eh/7rli3Qbqr0I//Z2lxM4ls3VMQaBlAv7y1A1QXacmpWyIlF3UcVNpUHsPC0pJVMtLLFs42NiOpP+DGevVNI4ihXg0EabZlrhFiXovcQQsumwB0Th07UbFfErb1jNAYNgEiIwudforXBdLjOoREm+mRTgaR/r2x+RiFEtS6ZVdRW4qlPdfYbJnj88cXYsEPZv8E2qZx76dQWlBzSoq7KIVs2k9OrTEdKd4KOYhZPpqlba3mnTuAa7HiVZp+c7IaPV4X+oLDOf6TMDf5HYhz6kiux0iyxasNo/ukSJPXeGJRFXsbxZd/3ZH7Df2GtQd3J9q+cdlMC5U/BRGUZwEsV5cLQt24l2++xq3xm0Hc1vCAIEhE0CMLnfq++Y1+pZfOB6NJ0GQ6f/aKMjX9YouWWXOW/slU6KxVRzNErVRWG4kDe+kId3DVd4LxW5jxTUsKqQKDmo1rw5aJ1GUJYm+p+qK46TzLQKiLQof7Kie6Z6g16mN0zEJgQ4SmN3vO69Y9y3QMM/VR1GZpWGU6Dao7hQrfVZd0mqsiGA9PVuuqqdWIj2gIc8LBZWjKJxMLoyS2CR9XqS5K5JqYHA1ckVPGZCv099YxyQEBkkAMbrcyS59aYozDEZWWzQORgrobZ4PswvWzWgcx+FIEQ59JEXPGhcHMUE6HyZZbj4W4LH4qH7mx64FwnS5HriKkOpfuVGc/9T6xiOCJQ3vx4Z3vuaXlruF7ocRBDpMoFJFstAyAG+oC+S5OXvNmmyFWxvFxceDPI6TRMUC7v1tj5e3+Zc6HXxQmYnw+a/PC1FUpCJWpk/kk4srkqeutpQrRXGQDbVlK544YwhAADG65NeA3tQlNpNE0Q09TOIkTJ93zx03PO1mBfesx5FQxfaWKbo2OabHTIzagqEMVtq43+ArzGkrPVs2bl295tyaQhpWgO/L3wrrajSyCg92ILGzD6vaw92/BthCBgh0koC79c2yaXxO17B7l7KYXRko27jphrMvuefZ5eisqpi7m0W7+LetAzk0qMxERJIwSos0U0R5HFvOm151y43XSJeOLDOwwV593WAvsJo+QP7jt2cMgeUmoFffQ+Qsy81iGb1TPcdCQb48D0cj1WDa3Nwq//IjDwbxmlSnxKikpxtc1y1W2Fyocv0ycjiqT/42yQWyzG+68dwNZ8ejQKFmvctJearqg37Heq4IpxOj1s6jCBI9gKB5VPTsv0ACyh/UiZMuUn210i5WN7JMI3PL8yL/yMc+/ejWKB5dqZwhTyexVe6xd60DD1MVduAd+r1hUeqdf2L1RsUwXImKs+HGc55+q2dmncL52KlzUmimLwH9dhrrIXB0AojRozPs9BGs5yKpTHuC5GGShvpfjKxD0emwTS1V6nS6dul/t7lf+6t3tKYs94Ei+05AGORlsGZhZT2pFehQSwX3NHd1vxy9OtpkxQ57Hb8+ERMQaI+A6U6dPXTfhZ7e+3YB6wVWmYQqkRfBOAtGervSrOr46O9Ql/T0mO25eIJnFhlREjLfE7GHNi6zWP3q6WXV1fXRSuu0xPIMYxPPZTMnaCungkDHCCBGO5Ygx21OoceKcsFKWNm0Xt01burR4z7nMhxvrwIDq9sgnnnuAKqxsSrcRgo+WzH9bDDO7sE0W8QUBDpJYNdr1S+UXMpVRTR3n8lQFqK/aVnKnCvN17a5FQOckcKUzJTGd2PlD4o5W10F+2a94bD2jg05T2R0gNcILu9KgDqju2JZtoXKEzXIK2WFVS2uZo64bO4egz+N58Xc0dS9jRCq8XzF0pjurETXFKZzuzMDgY4R2PVatbcsN1hvESMnQzUrcWrjxmDZiYa5ZY3Vw5wUDevI2ZFxklT19tVW1M0bkWmtUUenXjpMVngNgSkBIqNTEkv6u+3hUXtZPUXqeSYORkA8hc6Ptce22YMdg60g0HUCzRKVOq+oL/uuW9+qfaJ06fPXPC+9GWshMCgCREaXPLnJ+I43gbfx9LPbFh7vGTkaBFoh0Kx5sq/AasXCbp60zg1qaPWSbhqMVRDoAgEio11IhQ7ZUGegHbKpDVN4frRBnXN2l4DPGfa6L8g3minXpCQyzdnmZkxDAAI1AcRojYIJCEAAAhDYkwC6ak80jRVQasBgEgIHJYAYPSgptoMABCAwEAIoqoEkNG5CoCMEdm1K2RHbMAMCEIAABLpCQAq1K6Z01Q6PqAa1bbarVmMXBNonQGS0/TTAAghAAAIQgAAEIDBYAkRGB5v0OA4BCEAAAhCAAATaJ4AYbT8NsAACEIAABCAAAQgMlgBidLBJj+MQgAAEIAABCECgfQKI0fbTAAsgAAEIQAACEIDAYAkgRgeb9DgOAQhAAAIQgAAE2ieAGG0/DbAAAhCAAAQgAAEIDJYAYnSwSY/jEIAABCAAAQhAoH0CiNH20wALIAABCEAAAhCAwGAJIEYHm/Q4DgEIQAACEIAABNongBhtPw2wAAIQgAAEIAABCAyWAGJ0sEmP4xCAAAQgAAEIQKB9AojR9tMACyAAAQhAAAIQgMBgCSBGB5v0OA4BCEAAAhCAAATaJ4AYbT8NsAACEIAABCAAAQgMlgBidLBJj+MQgAAEIAABCECgfQKI0fbTAAsgAAEIQAACEIDAYAkgRgeb9DgOAQhAAAIQgAAE2ieAGG0/DbAAAhCAAAQgAAEIDJYAYnSwSY/jEIAABCAAAQhAoH0CiNH20wALIAABCEAAAhCAwGAJIEYHm/Q4DgEIQAACEIAABNongBhtPw2wAAIQgAAEIAABCAyWAGJ0sEmP4xCAAAQgAAEIQKB9AojR9tMACyAAAQhAAAIQgMBgCSBGB5v0OA4BCEAAAhCAAATaJ4AYbT8NsAACEIAABCAAAQgMlgBidLBJj+MQgAAEIAABCECgfQKI0fbTAAsgAAEIQAACEIDAYAkgRgeb9DgOAQhAAAIQgAAE2ieAGG0/DbAAAhCAAAQgAAEIDJYAYnSwSY/jEIAABCAAAQhAoH0CiNH20wALIAABCEAAAhCAwGAJIEYHm/Q4DgEIQAACEIAABNongBhtPw2wAAIQgAAEIAABCAyWAGJ0sEmP4xCAAAQgAAEIQKB9AojR9tMACyAAAQhAAAIQgMBgCSBGB5v0OA4BCEAAAhCAAATaJ4AYbT8NsAACEIAABCAAAQgMlgBidLBJj+MQgAAEIAABCECgfQKI0fbTAAsgAAEIQAACEIDAYAkgRgeb9DgOAQhAAAIQgAAE2ieAGG0/DbAAAhCAAAQgAAEIDJYAYnSwSY/jEIAABCAAAQhAoH0CiNH20wALIAABCEAAAhCAwGAJIEYHm/Q4DgEIQAACEIAABNongBhtPw2wAAIQgAAEIAABCAyWAGJ0sEmP4xCAAAQgAAEIQKB9AojR9tMACyAAAQhAAAIQgMBgCSBGB5v0OA4BCEAAAhCAAATaJ4AYbT8NsAACEIAABCAAAQgMlgBidLBJj+MQgAAEIAABCECgfQKI0fbTAAsgAAEIQAACEIDAYAkgRgeb9DgOAQhAAAIQgAAE2ieAGG0/DbAAAhCAAAQgAAEIDJYAYnSwSY/jEIAABCAAAQhAoH0CiNH20wALIAABCEAAAhCAwGAJIEYHm/Q4DgEIQAACEIAABNongBhtPw2wAAIQgAAEIAABCAyWAGJ0sEmP4xCAAAQgAAEIQKB9AojR9tMACyAAAQhAAAIQgMBgCSBGB5v0OA4BCEAAAhCAAATaJ4AYbT8NsAACEIAABCAAAQgMlgBidLBJj+MQgAAEIAABCECgfQKI0fbTAAsgAAEIQAACEIDAYAkgRgeb9DgOAQhAAAIQgAAE2ieAGG0/DbAAAhCAAAQgAAEIDJYAYnSwSY/jEIAABCAAAQhAoH0CiNH20wALIAABCEAAAhCAwGAJIEYHm/Q4DgEIQAACEIAABNongBhtPw2wAAIQgAAEIAABCAyWAGJ0sEmP4xCAAAQgAAEIQKB9AojR9tMACyAAAQhAAAIQgMBgCSBGB5v0OA4BCEAAAhCAAATaJ4AYbT8NsAACEIAABCAAAQgMlgBidLBJj+MQgAAEIAABCECgfQKI0fbTAAsgAAEIQAACEIDAYAkgRgeb9DgOAQhAAAIQgAAE2ieAGG0/DbAAAhCAAAQgAAEIDJYAYnSwSY/jEIAABCAAAQhAoH0CiNH20wALIAABCEAAAhCAwGAJIEYHm/Q4DgEIQAACEIAABNongBhtPw2wAAIQgAAEIAABCAyWAGJ0sEmP4xCAAAQgAAEIQKB9AojR9tMACyAAAQhAAAIQgMBgCSBGB5v0OA4BCEAAAhCAAATaJ4AYbT8NsAACEIAABCAAAQgMlgBidLBJj+MQgAAEIAABCECgfQKI0fbTAAsgAAEIQAACEIDAYAkgRgeb9DgOAQhAAAIQgAAE2ieAGG0/DbAAAhCAAAQgAAEIDJYAYnSwSY/jEIAABCAAAQhAoH0CiNH20wALIAABCEAAAhCAwGAJIEYHm/Q4DgEIQAACEIAABNongBhtPw2wAAIQgAAEIAABCAyWAGJ0sEmP4xCAAAQgAAEIQKB9AojR9tMACyAAAQhAAAIQgMBgCSBGB5v0OA4BCEAAAhCAAATaJ4AYbT8NsAACEIAABCAAAQgMlgBidLBJj+MQgAAEIAABCECgfQKI0fbTAAsgAAEIQAACEIDAYAkgRgeb9DgOAQhAAAIQgAAE2ieAGG0/DbAAAhCAAAQgAAEIDJYAYnSwSY/jEIAABCAAAQhAoH0CiNH20wALIAABCEAAAhCAwGAJIEYHm/Q4DgEIQAACEIAABNongBhtPw2wAAIQgAAEIAABCAyWAGJ0sEmP4xCAAAQgAAEIQKB9AojR9tMACyAAAQhAAAIQgMBgCSBGB5v0OA4BCEAAAhCAAATaJ4AYbT8NsAACEIAABCAAAQgMlgBidLBJj+MQgAAEIAABCECgfQKI0fbTAAsgAAEIQAACEIDAYAkgRgeb9DgOAQhAAAIQgAAE2ieAGG0/DbAAAhCAAAQgAAEIDJYAYnSwSY/jEIAABCAAAQhAoH0CiNH20wALIAABCEAAAhCAwGAJIEYHm/Q4DgEIQAACEIAABNongBhtPw2wAAIQgAAEIAABCAyWAGJ0sEmP4xCAAAQgAAEIQKB9AojR9tMACyAAAQhAAAIQgMBgCSBGB5v0OA4BCEAAAhCAAATaJ4AYbT8NsAACEIAABCAAAQgMlgBidLBJj+MQgAAEIAABCECgfQKI0fbTAAsgAAEIQAACEIDAYAkgRgeb9DgOAQhAAAIQgAAE2ieAGG0/DbAAAhCAAAQgAAEIDJYAYnSwSY/jEIAABCAAAQhAoH0CiNH20wALIAABCEAAAhCAwGAJIEYHm/Q4DgEIQAACEIAABNongBhtPw2wAAIQgAAEIAABCAyWAGJ0sEmP4xCAAAQgAAEIQKB9AojR9tMACyAAAQhAAAIQgMBgCSBGB5v0OA4BCEAAAhCAAATaJ4AYbT8NsAACEIAABCAAAQgMlgBidLBJj+MQgAAEIAABCECgfQKI0fbTAAsgAAEIQAACEIDAYAkgRgeb9DgOAQhAAAIQgAAE2ieAGG0/DbAAAhCAAAQgAAEIDJYAYnSwSY/jEIAABCAAAQhAoH0CiNH20wALIAABCEAAAhCAwGAJIEYHm/Q4DgEIQAACEIAABNongBhtPw2wAAIQgAAEIAABCAyWAGJ0sEmP4xCAAAQgAAEIQKB9AojR9tMACyAAAQhAAAIQgMBgCSBGB5v0OA4BCEAAAhCAAATaJ4AYbT8NsAACEIAABCAAAQgMlgBidLBJj+MQgAAEIAABCECgfQKI0fbTAAsgAAEIQAACEIDAYAkgRgeb9DgOAQhAAAIQgAAE2ieAGG0/DbAAAhCAAAQgAAEIDJYAYnSwSY/jEIAABCAAAQhAoH0CiNH20wALIAABCEAAAhCAwGAJIEYHm/Q4DgEIQAACEIAABNongBhtPw2wAAIQgAAEIAABCAyWAGJ0sEmP4xCAAAQgAAEIQKB9AojR9tMACyAAAQhAAAIQgMBgCSBGB5v0OA4BCEAAAhCAAATaJ4AYbT8NsAACEIAABCAAAQgMlgBidLBJj+MQgAAEIAABCECgfQKI0fbTAAsgAAEIQAACEIDAYAkgRgeb9DgOAQhAAAIQgAAE2ieAGG0/DbAAAhCAAAQgAAEIDJYAYnSwSY/jEIAABCAAAQhAoH0CiNH20wALIAABCEAAAhCAwGAJIEYHm/Q4DgEIQAACEIAABNongBhtPw2wAAIQgAAEIAABCAyWAGJ0sEmP4xCAAAQgAAEIQKB9AojR9tMACyAAAQhAAAIQgMBgCSBGB5v0OA4BCEAAAhCAAATaJ4AYbT8NsAACEIAABCAAAQgMlgBidLBJj+MQgAAEIAABCECgfQKI0fbTAAsgAAEIQAACEIDAYAkgRgeb9DgOAQhAAAIQgAAE2ieAGG0/DbAAAhCAAAQgAAEIDJYAYnSwSY/jEIAABCAAAQhAoH0CiNH20wALIAABCEAAAhCAwGAJIEYHm/Q4DgEIQAACEIAABNongBhtPw2wAAIQgAAEIAABCAyWAGJ0sEmP4xCAAAQgAAEIQKB9AojR9tMACyAAAQhAAAIQgMBgCSBGB5v0OA4BCEAAAhCAAATaJ4AYbT8NsAACEIAABCAAAQgMlgBidLBJj+MQgAAEIAABCECgfQKI0fbTAAsgAAEIQAACEIDAYAkgRgeb9DgOAQhAAAIQgAAE2ieAGG0/DbAAAhCAAAQgAAEIDJYAYnSwSY/jEIAABCAAAQhAoH0C/x9jZFEkSlUDbQAAAABJRU5ErkJggg==;" parent="1" vertex="1">
          <mxGeometry x="80" y="70" width="80" height="80" as="geometry" />
        </mxCell>
        <mxCell id="d5ftj_FYXe6vEuWilVj4-5" style="edgeStyle=orthogonalEdgeStyle;rounded=0;orthogonalLoop=1;jettySize=auto;html=1;entryX=0.5;entryY=1;entryDx=0;entryDy=0;dashed=1;endArrow=classic;endFill=1;strokeColor=default;startArrow=classic;startFill=1;" parent="1" source="d5ftj_FYXe6vEuWilVj4-3" target="d5ftj_FYXe6vEuWilVj4-2" edge="1">
          <mxGeometry relative="1" as="geometry" />
        </mxCell>
        <mxCell id="d5ftj_FYXe6vEuWilVj4-8" style="edgeStyle=orthogonalEdgeStyle;rounded=0;orthogonalLoop=1;jettySize=auto;html=1;" parent="1" source="d5ftj_FYXe6vEuWilVj4-3" target="d5ftj_FYXe6vEuWilVj4-7" edge="1">
          <mxGeometry relative="1" as="geometry" />
        </mxCell>
        <mxCell id="d5ftj_FYXe6vEuWilVj4-3" value="Glue Job&lt;br&gt;scraping b3&lt;br&gt;schedule" style="sketch=0;outlineConnect=0;fontColor=#232F3E;gradientColor=none;strokeColor=#ffffff;fillColor=#232F3E;dashed=0;verticalLabelPosition=middle;verticalAlign=bottom;align=center;html=1;whiteSpace=wrap;fontSize=10;fontStyle=1;spacing=3;shape=mxgraph.aws4.productIcon;prIcon=mxgraph.aws4.glue;" parent="1" vertex="1">
          <mxGeometry x="170" y="160" width="80" height="120" as="geometry" />
        </mxCell>
        <mxCell id="d5ftj_FYXe6vEuWilVj4-6" value="&lt;p style=&quot;margin-top: 0px;&quot;&gt;&lt;span style=&quot;background-color: transparent; font-weight: normal;&quot;&gt;&lt;font face=&quot;Helvetica&quot;&gt;Requisito 3&lt;/font&gt;&lt;/span&gt;&lt;/p&gt;" style="text;html=1;whiteSpace=wrap;overflow=hidden;rounded=0;fontStyle=2;fontSize=10;fontColor=#999900;" parent="1" vertex="1">
          <mxGeometry x="355" y="170" width="65" height="20" as="geometry" />
        </mxCell>
        <mxCell id="d5ftj_FYXe6vEuWilVj4-13" style="edgeStyle=orthogonalEdgeStyle;rounded=0;orthogonalLoop=1;jettySize=auto;html=1;dashed=1;dashPattern=12 12;entryX=0;entryY=0.5;entryDx=0;entryDy=0;entryPerimeter=0;exitX=0.94;exitY=0.5;exitDx=0;exitDy=0;exitPerimeter=0;" parent="1" source="d5ftj_FYXe6vEuWilVj4-7" target="d5ftj_FYXe6vEuWilVj4-15" edge="1">
          <mxGeometry relative="1" as="geometry">
            <mxPoint x="450" y="110" as="targetPoint" />
            <Array as="points">
              <mxPoint x="420" y="215" />
              <mxPoint x="420" y="215" />
            </Array>
          </mxGeometry>
        </mxCell>
        <mxCell id="d5ftj_FYXe6vEuWilVj4-14" value="&lt;b&gt;&lt;i&gt;Trigger&lt;/i&gt;&lt;/b&gt;" style="edgeLabel;html=1;align=center;verticalAlign=middle;resizable=0;points=[];" parent="d5ftj_FYXe6vEuWilVj4-13" vertex="1" connectable="0">
          <mxGeometry x="0.2859" y="-1" relative="1" as="geometry">
            <mxPoint x="-13" y="-21" as="offset" />
          </mxGeometry>
        </mxCell>
        <mxCell id="d5ftj_FYXe6vEuWilVj4-7" value="S3/RAW" style="outlineConnect=0;dashed=0;verticalLabelPosition=bottom;verticalAlign=top;align=center;html=1;shape=mxgraph.aws3.bucket_with_objects;fillColor=#E05243;gradientColor=none;" parent="1" vertex="1">
          <mxGeometry x="290" y="184.25" width="60" height="61.5" as="geometry" />
        </mxCell>
        <mxCell id="d5ftj_FYXe6vEuWilVj4-12" style="edgeStyle=orthogonalEdgeStyle;rounded=0;orthogonalLoop=1;jettySize=auto;html=1;curved=1;entryX=0.06;entryY=0.5;entryDx=0;entryDy=0;entryPerimeter=0;" parent="1" source="d5ftj_FYXe6vEuWilVj4-9" target="d5ftj_FYXe6vEuWilVj4-11" edge="1">
          <mxGeometry relative="1" as="geometry">
            <Array as="points">
              <mxPoint x="670" y="215" />
              <mxPoint x="670" y="110" />
            </Array>
          </mxGeometry>
        </mxCell>
        <mxCell id="0LkTVIgx1-bzo2UH1YZd-1" style="edgeStyle=orthogonalEdgeStyle;rounded=0;orthogonalLoop=1;jettySize=auto;html=1;" parent="1" source="d5ftj_FYXe6vEuWilVj4-11" target="d5ftj_FYXe6vEuWilVj4-23" edge="1">
          <mxGeometry relative="1" as="geometry" />
        </mxCell>
        <mxCell id="d5ftj_FYXe6vEuWilVj4-11" value="S3/REFINED" style="outlineConnect=0;dashed=0;verticalLabelPosition=bottom;verticalAlign=top;align=center;html=1;shape=mxgraph.aws3.bucket_with_objects;fillColor=#E05243;gradientColor=none;" parent="1" vertex="1">
          <mxGeometry x="703.31" y="79.25" width="60" height="61.5" as="geometry" />
        </mxCell>
        <mxCell id="d5ftj_FYXe6vEuWilVj4-16" style="edgeStyle=orthogonalEdgeStyle;rounded=0;orthogonalLoop=1;jettySize=auto;html=1;" parent="1" source="d5ftj_FYXe6vEuWilVj4-15" target="d5ftj_FYXe6vEuWilVj4-9" edge="1">
          <mxGeometry relative="1" as="geometry" />
        </mxCell>
        <mxCell id="d5ftj_FYXe6vEuWilVj4-15" value="acionar job glue" style="outlineConnect=0;dashed=0;verticalLabelPosition=bottom;verticalAlign=top;align=center;html=1;shape=mxgraph.aws3.lambda_function;fillColor=#F58534;gradientColor=none;" parent="1" vertex="1">
          <mxGeometry x="420" y="179" width="69" height="72" as="geometry" />
        </mxCell>
        <mxCell id="d5ftj_FYXe6vEuWilVj4-18" value="&lt;p style=&quot;margin-top: 0px;&quot;&gt;&lt;span style=&quot;background-color: transparent; font-weight: normal;&quot;&gt;&lt;font face=&quot;Helvetica&quot;&gt;Requisito 1&lt;br&gt;&lt;/font&gt;&lt;/span&gt;&lt;span style=&quot;background-color: transparent; font-weight: normal;&quot;&gt;&lt;font face=&quot;Helvetica&quot;&gt;Requisito 2&lt;/font&gt;&lt;/span&gt;&lt;/p&gt;" style="text;html=1;whiteSpace=wrap;overflow=hidden;rounded=0;fontColor=#666600;fontSize=10;fontStyle=2;align=center;" parent="1" vertex="1">
          <mxGeometry x="170" y="270" width="80" height="40" as="geometry" />
        </mxCell>
        <mxCell id="d5ftj_FYXe6vEuWilVj4-19" value="&lt;p style=&quot;margin-top: 0px;&quot;&gt;&lt;span style=&quot;background-color: transparent; font-weight: normal;&quot;&gt;&lt;font face=&quot;Helvetica&quot;&gt;Requisito 4&lt;/font&gt;&lt;/span&gt;&lt;/p&gt;" style="text;html=1;whiteSpace=wrap;overflow=hidden;rounded=0;fontStyle=2;fontSize=10;fontColor=#999900;" parent="1" vertex="1">
          <mxGeometry x="428" y="270" width="65" height="20" as="geometry" />
        </mxCell>
        <mxCell id="d5ftj_FYXe6vEuWilVj4-21" value="&lt;p style=&quot;margin-top: 0px;&quot;&gt;&lt;span style=&quot;background-color: transparent; font-weight: normal;&quot;&gt;&lt;font face=&quot;Helvetica&quot;&gt;Requisito 5&lt;/font&gt;&lt;/span&gt;&lt;/p&gt;" style="text;html=1;whiteSpace=wrap;overflow=hidden;rounded=0;fontStyle=2;fontSize=10;fontColor=#999900;" parent="1" vertex="1">
          <mxGeometry x="537.5" y="270" width="65" height="20" as="geometry" />
        </mxCell>
        <mxCell id="d5ftj_FYXe6vEuWilVj4-22" value="&lt;p style=&quot;margin-top: 0px;&quot;&gt;&lt;span style=&quot;background-color: transparent; font-weight: normal;&quot;&gt;&lt;font face=&quot;Helvetica&quot;&gt;Requisito 6&lt;/font&gt;&lt;/span&gt;&lt;/p&gt;" style="text;html=1;whiteSpace=wrap;overflow=hidden;rounded=0;fontStyle=2;fontSize=10;fontColor=#999900;" parent="1" vertex="1">
          <mxGeometry x="700.81" y="170" width="65" height="20" as="geometry" />
        </mxCell>
        <mxCell id="FwBeXFjSDIuULk2stqde-1" style="edgeStyle=orthogonalEdgeStyle;rounded=0;orthogonalLoop=1;jettySize=auto;html=1;" parent="1" source="d5ftj_FYXe6vEuWilVj4-23" target="d5ftj_FYXe6vEuWilVj4-25" edge="1">
          <mxGeometry relative="1" as="geometry" />
        </mxCell>
        <mxCell id="d5ftj_FYXe6vEuWilVj4-23" value="Glue Catalog" style="sketch=0;outlineConnect=0;fontColor=#232F3E;gradientColor=none;fillColor=#8C4FFF;strokeColor=none;dashed=0;verticalLabelPosition=bottom;verticalAlign=top;align=center;html=1;fontSize=12;fontStyle=0;aspect=fixed;pointerEvents=1;shape=mxgraph.aws4.glue_data_catalog;" parent="1" vertex="1">
          <mxGeometry x="700.0000000000001" y="200" width="63.31" height="68.58" as="geometry" />
        </mxCell>
        <mxCell id="d5ftj_FYXe6vEuWilVj4-24" value="&lt;p style=&quot;margin-top: 0px;&quot;&gt;&lt;span style=&quot;background-color: transparent; font-weight: normal;&quot;&gt;&lt;font face=&quot;Helvetica&quot;&gt;Requisito 7&lt;/font&gt;&lt;/span&gt;&lt;/p&gt;" style="text;html=1;whiteSpace=wrap;overflow=hidden;rounded=0;fontStyle=2;fontSize=10;fontColor=#999900;" parent="1" vertex="1">
          <mxGeometry x="706.83" y="278.58" width="65" height="20" as="geometry" />
        </mxCell>
        <mxCell id="d5ftj_FYXe6vEuWilVj4-25" value="Athena" style="sketch=0;points=[[0,0,0],[0.25,0,0],[0.5,0,0],[0.75,0,0],[1,0,0],[0,1,0],[0.25,1,0],[0.5,1,0],[0.75,1,0],[1,1,0],[0,0.25,0],[0,0.5,0],[0,0.75,0],[1,0.25,0],[1,0.5,0],[1,0.75,0]];outlineConnect=0;fontColor=#232F3E;fillColor=#8C4FFF;strokeColor=#ffffff;dashed=0;verticalLabelPosition=bottom;verticalAlign=top;align=center;html=1;fontSize=12;fontStyle=0;aspect=fixed;shape=mxgraph.aws4.resourceIcon;resIcon=mxgraph.aws4.athena;" parent="1" vertex="1">
          <mxGeometry x="840.0000000000001" y="195.29000000000002" width="78" height="78" as="geometry" />
        </mxCell>
        <mxCell id="d5ftj_FYXe6vEuWilVj4-26" style="edgeStyle=orthogonalEdgeStyle;rounded=0;orthogonalLoop=1;jettySize=auto;html=1;curved=1;" parent="1" source="d5ftj_FYXe6vEuWilVj4-9" target="d5ftj_FYXe6vEuWilVj4-23" edge="1">
          <mxGeometry relative="1" as="geometry">
            <mxPoint x="630" y="244" as="sourcePoint" />
            <mxPoint x="740" y="210" as="targetPoint" />
          </mxGeometry>
        </mxCell>
        <mxCell id="d5ftj_FYXe6vEuWilVj4-9" value="Glue Job&lt;br&gt;truested" style="sketch=0;outlineConnect=0;fontColor=#232F3E;gradientColor=none;strokeColor=#ffffff;fillColor=#232F3E;dashed=0;verticalLabelPosition=middle;verticalAlign=bottom;align=center;html=1;whiteSpace=wrap;fontSize=10;fontStyle=1;spacing=3;shape=mxgraph.aws4.productIcon;prIcon=mxgraph.aws4.glue;" parent="1" vertex="1">
          <mxGeometry x="530" y="160" width="80" height="110" as="geometry" />
        </mxCell>
        <mxCell id="d5ftj_FYXe6vEuWilVj4-31" value="&lt;p style=&quot;margin-top: 0px;&quot;&gt;&lt;span style=&quot;background-color: transparent; font-weight: normal;&quot;&gt;&lt;font face=&quot;Helvetica&quot;&gt;Requisito 8&lt;/font&gt;&lt;/span&gt;&lt;/p&gt;" style="text;html=1;whiteSpace=wrap;overflow=hidden;rounded=0;fontStyle=2;fontSize=10;fontColor=#999900;" parent="1" vertex="1">
          <mxGeometry x="853" y="290" width="65" height="20" as="geometry" />
        </mxCell>
      </root>
    </mxGraphModel>
  </diagram>
</mxfile>
